%TF.GenerationSoftware,KiCad,Pcbnew,(6.0.4)*%
%TF.CreationDate,2022-06-02T17:00:47-07:00*%
%TF.ProjectId,SolarChargerV7,536f6c61-7243-4686-9172-67657256372e,rev?*%
%TF.SameCoordinates,Original*%
%TF.FileFunction,Legend,Top*%
%TF.FilePolarity,Positive*%
%FSLAX46Y46*%
G04 Gerber Fmt 4.6, Leading zero omitted, Abs format (unit mm)*
G04 Created by KiCad (PCBNEW (6.0.4)) date 2022-06-02 17:00:47*
%MOMM*%
%LPD*%
G01*
G04 APERTURE LIST*
%ADD10C,0.150000*%
%ADD11C,0.125000*%
%ADD12C,0.120000*%
G04 APERTURE END LIST*
D10*
X138033809Y-49844761D02*
X138176666Y-49892380D01*
X138414761Y-49892380D01*
X138509999Y-49844761D01*
X138557619Y-49797142D01*
X138605238Y-49701904D01*
X138605238Y-49606666D01*
X138557619Y-49511428D01*
X138509999Y-49463809D01*
X138414761Y-49416190D01*
X138224285Y-49368571D01*
X138129047Y-49320952D01*
X138081428Y-49273333D01*
X138033809Y-49178095D01*
X138033809Y-49082857D01*
X138081428Y-48987619D01*
X138129047Y-48940000D01*
X138224285Y-48892380D01*
X138462380Y-48892380D01*
X138605238Y-48940000D01*
X139176666Y-49892380D02*
X139081428Y-49844761D01*
X139033809Y-49797142D01*
X138986190Y-49701904D01*
X138986190Y-49416190D01*
X139033809Y-49320952D01*
X139081428Y-49273333D01*
X139176666Y-49225714D01*
X139319523Y-49225714D01*
X139414761Y-49273333D01*
X139462380Y-49320952D01*
X139509999Y-49416190D01*
X139509999Y-49701904D01*
X139462380Y-49797142D01*
X139414761Y-49844761D01*
X139319523Y-49892380D01*
X139176666Y-49892380D01*
X140081428Y-49892380D02*
X139986190Y-49844761D01*
X139938571Y-49749523D01*
X139938571Y-48892380D01*
X140890952Y-49892380D02*
X140890952Y-49368571D01*
X140843333Y-49273333D01*
X140748095Y-49225714D01*
X140557619Y-49225714D01*
X140462380Y-49273333D01*
X140890952Y-49844761D02*
X140795714Y-49892380D01*
X140557619Y-49892380D01*
X140462380Y-49844761D01*
X140414761Y-49749523D01*
X140414761Y-49654285D01*
X140462380Y-49559047D01*
X140557619Y-49511428D01*
X140795714Y-49511428D01*
X140890952Y-49463809D01*
X141367142Y-49892380D02*
X141367142Y-49225714D01*
X141367142Y-49416190D02*
X141414761Y-49320952D01*
X141462380Y-49273333D01*
X141557619Y-49225714D01*
X141652857Y-49225714D01*
X142748095Y-49892380D02*
X142748095Y-48892380D01*
X143129047Y-48892380D01*
X143224285Y-48940000D01*
X143271904Y-48987619D01*
X143319523Y-49082857D01*
X143319523Y-49225714D01*
X143271904Y-49320952D01*
X143224285Y-49368571D01*
X143129047Y-49416190D01*
X142748095Y-49416190D01*
X143890952Y-49892380D02*
X143795714Y-49844761D01*
X143748095Y-49797142D01*
X143700476Y-49701904D01*
X143700476Y-49416190D01*
X143748095Y-49320952D01*
X143795714Y-49273333D01*
X143890952Y-49225714D01*
X144033809Y-49225714D01*
X144129047Y-49273333D01*
X144176666Y-49320952D01*
X144224285Y-49416190D01*
X144224285Y-49701904D01*
X144176666Y-49797142D01*
X144129047Y-49844761D01*
X144033809Y-49892380D01*
X143890952Y-49892380D01*
X144557619Y-49225714D02*
X144748095Y-49892380D01*
X144938571Y-49416190D01*
X145129047Y-49892380D01*
X145319523Y-49225714D01*
X146081428Y-49844761D02*
X145986190Y-49892380D01*
X145795714Y-49892380D01*
X145700476Y-49844761D01*
X145652857Y-49749523D01*
X145652857Y-49368571D01*
X145700476Y-49273333D01*
X145795714Y-49225714D01*
X145986190Y-49225714D01*
X146081428Y-49273333D01*
X146129047Y-49368571D01*
X146129047Y-49463809D01*
X145652857Y-49559047D01*
X146557619Y-49892380D02*
X146557619Y-49225714D01*
X146557619Y-49416190D02*
X146605238Y-49320952D01*
X146652857Y-49273333D01*
X146748095Y-49225714D01*
X146843333Y-49225714D01*
X147557619Y-49844761D02*
X147462380Y-49892380D01*
X147271904Y-49892380D01*
X147176666Y-49844761D01*
X147129047Y-49749523D01*
X147129047Y-49368571D01*
X147176666Y-49273333D01*
X147271904Y-49225714D01*
X147462380Y-49225714D01*
X147557619Y-49273333D01*
X147605238Y-49368571D01*
X147605238Y-49463809D01*
X147129047Y-49559047D01*
X148462380Y-49892380D02*
X148462380Y-48892380D01*
X148462380Y-49844761D02*
X148367142Y-49892380D01*
X148176666Y-49892380D01*
X148081428Y-49844761D01*
X148033809Y-49797142D01*
X147986190Y-49701904D01*
X147986190Y-49416190D01*
X148033809Y-49320952D01*
X148081428Y-49273333D01*
X148176666Y-49225714D01*
X148367142Y-49225714D01*
X148462380Y-49273333D01*
X150176666Y-48892380D02*
X149700476Y-48892380D01*
X149652857Y-49368571D01*
X149700476Y-49320952D01*
X149795714Y-49273333D01*
X150033809Y-49273333D01*
X150129047Y-49320952D01*
X150176666Y-49368571D01*
X150224285Y-49463809D01*
X150224285Y-49701904D01*
X150176666Y-49797142D01*
X150129047Y-49844761D01*
X150033809Y-49892380D01*
X149795714Y-49892380D01*
X149700476Y-49844761D01*
X149652857Y-49797142D01*
X150509999Y-48892380D02*
X150843333Y-49892380D01*
X151176666Y-48892380D01*
X152271904Y-49892380D02*
X152271904Y-48892380D01*
X152652857Y-48892380D01*
X152748095Y-48940000D01*
X152795714Y-48987619D01*
X152843333Y-49082857D01*
X152843333Y-49225714D01*
X152795714Y-49320952D01*
X152748095Y-49368571D01*
X152652857Y-49416190D01*
X152271904Y-49416190D01*
X153271904Y-49892380D02*
X153271904Y-48892380D01*
X153700476Y-49892380D02*
X153700476Y-49368571D01*
X153652857Y-49273333D01*
X153557619Y-49225714D01*
X153414761Y-49225714D01*
X153319523Y-49273333D01*
X153271904Y-49320952D01*
X154319523Y-49892380D02*
X154224285Y-49844761D01*
X154176666Y-49797142D01*
X154129047Y-49701904D01*
X154129047Y-49416190D01*
X154176666Y-49320952D01*
X154224285Y-49273333D01*
X154319523Y-49225714D01*
X154462380Y-49225714D01*
X154557619Y-49273333D01*
X154605238Y-49320952D01*
X154652857Y-49416190D01*
X154652857Y-49701904D01*
X154605238Y-49797142D01*
X154557619Y-49844761D01*
X154462380Y-49892380D01*
X154319523Y-49892380D01*
X155081428Y-49225714D02*
X155081428Y-49892380D01*
X155081428Y-49320952D02*
X155129047Y-49273333D01*
X155224285Y-49225714D01*
X155367142Y-49225714D01*
X155462380Y-49273333D01*
X155509999Y-49368571D01*
X155509999Y-49892380D01*
X156367142Y-49844761D02*
X156271904Y-49892380D01*
X156081428Y-49892380D01*
X155986190Y-49844761D01*
X155938571Y-49749523D01*
X155938571Y-49368571D01*
X155986190Y-49273333D01*
X156081428Y-49225714D01*
X156271904Y-49225714D01*
X156367142Y-49273333D01*
X156414761Y-49368571D01*
X156414761Y-49463809D01*
X155938571Y-49559047D01*
X158176666Y-49797142D02*
X158129047Y-49844761D01*
X157986190Y-49892380D01*
X157890952Y-49892380D01*
X157748095Y-49844761D01*
X157652857Y-49749523D01*
X157605238Y-49654285D01*
X157557619Y-49463809D01*
X157557619Y-49320952D01*
X157605238Y-49130476D01*
X157652857Y-49035238D01*
X157748095Y-48940000D01*
X157890952Y-48892380D01*
X157986190Y-48892380D01*
X158129047Y-48940000D01*
X158176666Y-48987619D01*
X158605238Y-49892380D02*
X158605238Y-48892380D01*
X159033809Y-49892380D02*
X159033809Y-49368571D01*
X158986190Y-49273333D01*
X158890952Y-49225714D01*
X158748095Y-49225714D01*
X158652857Y-49273333D01*
X158605238Y-49320952D01*
X159938571Y-49892380D02*
X159938571Y-49368571D01*
X159890952Y-49273333D01*
X159795714Y-49225714D01*
X159605238Y-49225714D01*
X159509999Y-49273333D01*
X159938571Y-49844761D02*
X159843333Y-49892380D01*
X159605238Y-49892380D01*
X159509999Y-49844761D01*
X159462380Y-49749523D01*
X159462380Y-49654285D01*
X159509999Y-49559047D01*
X159605238Y-49511428D01*
X159843333Y-49511428D01*
X159938571Y-49463809D01*
X160414761Y-49892380D02*
X160414761Y-49225714D01*
X160414761Y-49416190D02*
X160462380Y-49320952D01*
X160509999Y-49273333D01*
X160605238Y-49225714D01*
X160700476Y-49225714D01*
X161462380Y-49225714D02*
X161462380Y-50035238D01*
X161414761Y-50130476D01*
X161367142Y-50178095D01*
X161271904Y-50225714D01*
X161129047Y-50225714D01*
X161033809Y-50178095D01*
X161462380Y-49844761D02*
X161367142Y-49892380D01*
X161176666Y-49892380D01*
X161081428Y-49844761D01*
X161033809Y-49797142D01*
X160986190Y-49701904D01*
X160986190Y-49416190D01*
X161033809Y-49320952D01*
X161081428Y-49273333D01*
X161176666Y-49225714D01*
X161367142Y-49225714D01*
X161462380Y-49273333D01*
X162319523Y-49844761D02*
X162224285Y-49892380D01*
X162033809Y-49892380D01*
X161938571Y-49844761D01*
X161890952Y-49749523D01*
X161890952Y-49368571D01*
X161938571Y-49273333D01*
X162033809Y-49225714D01*
X162224285Y-49225714D01*
X162319523Y-49273333D01*
X162367142Y-49368571D01*
X162367142Y-49463809D01*
X161890952Y-49559047D01*
X162795714Y-49892380D02*
X162795714Y-49225714D01*
X162795714Y-49416190D02*
X162843333Y-49320952D01*
X162890952Y-49273333D01*
X162986190Y-49225714D01*
X163081428Y-49225714D01*
D11*
X154963035Y-81048142D02*
X154963035Y-81691000D01*
X154920178Y-81819571D01*
X154834464Y-81905285D01*
X154705892Y-81948142D01*
X154620178Y-81948142D01*
X155520178Y-81948142D02*
X155434464Y-81905285D01*
X155391607Y-81862428D01*
X155348750Y-81776714D01*
X155348750Y-81519571D01*
X155391607Y-81433857D01*
X155434464Y-81391000D01*
X155520178Y-81348142D01*
X155648750Y-81348142D01*
X155734464Y-81391000D01*
X155777321Y-81433857D01*
X155820178Y-81519571D01*
X155820178Y-81776714D01*
X155777321Y-81862428D01*
X155734464Y-81905285D01*
X155648750Y-81948142D01*
X155520178Y-81948142D01*
X156163035Y-81905285D02*
X156248750Y-81948142D01*
X156420178Y-81948142D01*
X156505892Y-81905285D01*
X156548750Y-81819571D01*
X156548750Y-81776714D01*
X156505892Y-81691000D01*
X156420178Y-81648142D01*
X156291607Y-81648142D01*
X156205892Y-81605285D01*
X156163035Y-81519571D01*
X156163035Y-81476714D01*
X156205892Y-81391000D01*
X156291607Y-81348142D01*
X156420178Y-81348142D01*
X156505892Y-81391000D01*
X156934464Y-81948142D02*
X156934464Y-81048142D01*
X157320178Y-81948142D02*
X157320178Y-81476714D01*
X157277321Y-81391000D01*
X157191607Y-81348142D01*
X157063035Y-81348142D01*
X156977321Y-81391000D01*
X156934464Y-81433857D01*
X158134464Y-81348142D02*
X158134464Y-81948142D01*
X157748750Y-81348142D02*
X157748750Y-81819571D01*
X157791607Y-81905285D01*
X157877321Y-81948142D01*
X158005892Y-81948142D01*
X158091607Y-81905285D01*
X158134464Y-81862428D01*
X158948750Y-81948142D02*
X158948750Y-81476714D01*
X158905892Y-81391000D01*
X158820178Y-81348142D01*
X158648750Y-81348142D01*
X158563035Y-81391000D01*
X158948750Y-81905285D02*
X158863035Y-81948142D01*
X158648750Y-81948142D01*
X158563035Y-81905285D01*
X158520178Y-81819571D01*
X158520178Y-81733857D01*
X158563035Y-81648142D01*
X158648750Y-81605285D01*
X158863035Y-81605285D01*
X158948750Y-81562428D01*
X160063035Y-81948142D02*
X160063035Y-81048142D01*
X160363035Y-81691000D01*
X160663035Y-81048142D01*
X160663035Y-81948142D01*
X161477321Y-81348142D02*
X161477321Y-81948142D01*
X161091607Y-81348142D02*
X161091607Y-81819571D01*
X161134464Y-81905285D01*
X161220178Y-81948142D01*
X161348750Y-81948142D01*
X161434464Y-81905285D01*
X161477321Y-81862428D01*
X162034464Y-81948142D02*
X161948750Y-81905285D01*
X161905892Y-81819571D01*
X161905892Y-81048142D01*
X162763035Y-81948142D02*
X162763035Y-81476714D01*
X162720178Y-81391000D01*
X162634464Y-81348142D01*
X162463035Y-81348142D01*
X162377321Y-81391000D01*
X162763035Y-81905285D02*
X162677321Y-81948142D01*
X162463035Y-81948142D01*
X162377321Y-81905285D01*
X162334464Y-81819571D01*
X162334464Y-81733857D01*
X162377321Y-81648142D01*
X162463035Y-81605285D01*
X162677321Y-81605285D01*
X162763035Y-81562428D01*
X163191607Y-81948142D02*
X163191607Y-81348142D01*
X163191607Y-81519571D02*
X163234464Y-81433857D01*
X163277321Y-81391000D01*
X163363035Y-81348142D01*
X163448750Y-81348142D01*
X164134464Y-81905285D02*
X164048750Y-81948142D01*
X163877321Y-81948142D01*
X163791607Y-81905285D01*
X163748750Y-81862428D01*
X163705892Y-81776714D01*
X163705892Y-81519571D01*
X163748750Y-81433857D01*
X163791607Y-81391000D01*
X163877321Y-81348142D01*
X164048750Y-81348142D01*
X164134464Y-81391000D01*
X164434464Y-81348142D02*
X164905892Y-81348142D01*
X164434464Y-81948142D01*
X164905892Y-81948142D01*
X165163035Y-81348142D02*
X165377321Y-81948142D01*
X165591607Y-81348142D02*
X165377321Y-81948142D01*
X165291607Y-82162428D01*
X165248750Y-82205285D01*
X165163035Y-82248142D01*
X165934464Y-81948142D02*
X165934464Y-81048142D01*
X166020178Y-81605285D02*
X166277321Y-81948142D01*
X166277321Y-81348142D02*
X165934464Y-81691000D01*
X154920178Y-83311428D02*
X154877321Y-83354285D01*
X154748750Y-83397142D01*
X154663035Y-83397142D01*
X154534464Y-83354285D01*
X154448750Y-83268571D01*
X154405892Y-83182857D01*
X154363035Y-83011428D01*
X154363035Y-82882857D01*
X154405892Y-82711428D01*
X154448750Y-82625714D01*
X154534464Y-82540000D01*
X154663035Y-82497142D01*
X154748750Y-82497142D01*
X154877321Y-82540000D01*
X154920178Y-82582857D01*
X155305892Y-83397142D02*
X155305892Y-82497142D01*
X155691607Y-83397142D02*
X155691607Y-82925714D01*
X155648750Y-82840000D01*
X155563035Y-82797142D01*
X155434464Y-82797142D01*
X155348750Y-82840000D01*
X155305892Y-82882857D01*
X156120178Y-83397142D02*
X156120178Y-82797142D01*
X156120178Y-82968571D02*
X156163035Y-82882857D01*
X156205892Y-82840000D01*
X156291607Y-82797142D01*
X156377321Y-82797142D01*
X156677321Y-83397142D02*
X156677321Y-82797142D01*
X156677321Y-82497142D02*
X156634464Y-82540000D01*
X156677321Y-82582857D01*
X156720178Y-82540000D01*
X156677321Y-82497142D01*
X156677321Y-82582857D01*
X157063035Y-83354285D02*
X157148750Y-83397142D01*
X157320178Y-83397142D01*
X157405892Y-83354285D01*
X157448750Y-83268571D01*
X157448750Y-83225714D01*
X157405892Y-83140000D01*
X157320178Y-83097142D01*
X157191607Y-83097142D01*
X157105892Y-83054285D01*
X157063035Y-82968571D01*
X157063035Y-82925714D01*
X157105892Y-82840000D01*
X157191607Y-82797142D01*
X157320178Y-82797142D01*
X157405892Y-82840000D01*
X157705892Y-82797142D02*
X158048750Y-82797142D01*
X157834464Y-82497142D02*
X157834464Y-83268571D01*
X157877321Y-83354285D01*
X157963035Y-83397142D01*
X158048750Y-83397142D01*
X158348750Y-83397142D02*
X158348750Y-82797142D01*
X158348750Y-82497142D02*
X158305892Y-82540000D01*
X158348750Y-82582857D01*
X158391607Y-82540000D01*
X158348750Y-82497142D01*
X158348750Y-82582857D01*
X159163035Y-83397142D02*
X159163035Y-82925714D01*
X159120178Y-82840000D01*
X159034464Y-82797142D01*
X158863035Y-82797142D01*
X158777321Y-82840000D01*
X159163035Y-83354285D02*
X159077321Y-83397142D01*
X158863035Y-83397142D01*
X158777321Y-83354285D01*
X158734464Y-83268571D01*
X158734464Y-83182857D01*
X158777321Y-83097142D01*
X158863035Y-83054285D01*
X159077321Y-83054285D01*
X159163035Y-83011428D01*
X159591607Y-82797142D02*
X159591607Y-83397142D01*
X159591607Y-82882857D02*
X159634464Y-82840000D01*
X159720178Y-82797142D01*
X159848750Y-82797142D01*
X159934464Y-82840000D01*
X159977321Y-82925714D01*
X159977321Y-83397142D01*
X161005892Y-82497142D02*
X161220178Y-83397142D01*
X161391607Y-82754285D01*
X161563035Y-83397142D01*
X161777321Y-82497142D01*
X162120178Y-83397142D02*
X162120178Y-82797142D01*
X162120178Y-82497142D02*
X162077321Y-82540000D01*
X162120178Y-82582857D01*
X162163035Y-82540000D01*
X162120178Y-82497142D01*
X162120178Y-82582857D01*
X162677321Y-83397142D02*
X162591607Y-83354285D01*
X162548750Y-83268571D01*
X162548750Y-82497142D01*
X163148750Y-83397142D02*
X163063035Y-83354285D01*
X163020178Y-83268571D01*
X163020178Y-82497142D01*
X163491607Y-83397142D02*
X163491607Y-82797142D01*
X163491607Y-82497142D02*
X163448750Y-82540000D01*
X163491607Y-82582857D01*
X163534464Y-82540000D01*
X163491607Y-82497142D01*
X163491607Y-82582857D01*
X164305892Y-83397142D02*
X164305892Y-82925714D01*
X164263035Y-82840000D01*
X164177321Y-82797142D01*
X164005892Y-82797142D01*
X163920178Y-82840000D01*
X164305892Y-83354285D02*
X164220178Y-83397142D01*
X164005892Y-83397142D01*
X163920178Y-83354285D01*
X163877321Y-83268571D01*
X163877321Y-83182857D01*
X163920178Y-83097142D01*
X164005892Y-83054285D01*
X164220178Y-83054285D01*
X164305892Y-83011428D01*
X164734464Y-83397142D02*
X164734464Y-82797142D01*
X164734464Y-82882857D02*
X164777321Y-82840000D01*
X164863035Y-82797142D01*
X164991607Y-82797142D01*
X165077321Y-82840000D01*
X165120178Y-82925714D01*
X165120178Y-83397142D01*
X165120178Y-82925714D02*
X165163035Y-82840000D01*
X165248750Y-82797142D01*
X165377321Y-82797142D01*
X165463035Y-82840000D01*
X165505892Y-82925714D01*
X165505892Y-83397142D01*
X165891607Y-83354285D02*
X165977321Y-83397142D01*
X166148750Y-83397142D01*
X166234464Y-83354285D01*
X166277321Y-83268571D01*
X166277321Y-83225714D01*
X166234464Y-83140000D01*
X166148750Y-83097142D01*
X166020178Y-83097142D01*
X165934464Y-83054285D01*
X165891607Y-82968571D01*
X165891607Y-82925714D01*
X165934464Y-82840000D01*
X166020178Y-82797142D01*
X166148750Y-82797142D01*
X166234464Y-82840000D01*
X145234464Y-84374714D02*
X145534464Y-84374714D01*
X145663035Y-84846142D02*
X145234464Y-84846142D01*
X145234464Y-83946142D01*
X145663035Y-83946142D01*
X146048750Y-84846142D02*
X146048750Y-83946142D01*
X146563035Y-84846142D01*
X146563035Y-83946142D01*
X147463035Y-83989000D02*
X147377321Y-83946142D01*
X147248750Y-83946142D01*
X147120178Y-83989000D01*
X147034464Y-84074714D01*
X146991607Y-84160428D01*
X146948750Y-84331857D01*
X146948750Y-84460428D01*
X146991607Y-84631857D01*
X147034464Y-84717571D01*
X147120178Y-84803285D01*
X147248750Y-84846142D01*
X147334464Y-84846142D01*
X147463035Y-84803285D01*
X147505892Y-84760428D01*
X147505892Y-84460428D01*
X147334464Y-84460428D01*
X148405892Y-84846142D02*
X148105892Y-84417571D01*
X147891607Y-84846142D02*
X147891607Y-83946142D01*
X148234464Y-83946142D01*
X148320178Y-83989000D01*
X148363035Y-84031857D01*
X148405892Y-84117571D01*
X148405892Y-84246142D01*
X148363035Y-84331857D01*
X148320178Y-84374714D01*
X148234464Y-84417571D01*
X147891607Y-84417571D01*
X149863035Y-84246142D02*
X149863035Y-84846142D01*
X149648750Y-83903285D02*
X149434464Y-84546142D01*
X149991607Y-84546142D01*
X150720178Y-83946142D02*
X150548750Y-83946142D01*
X150463035Y-83989000D01*
X150420178Y-84031857D01*
X150334464Y-84160428D01*
X150291607Y-84331857D01*
X150291607Y-84674714D01*
X150334464Y-84760428D01*
X150377321Y-84803285D01*
X150463035Y-84846142D01*
X150634464Y-84846142D01*
X150720178Y-84803285D01*
X150763035Y-84760428D01*
X150805892Y-84674714D01*
X150805892Y-84460428D01*
X150763035Y-84374714D01*
X150720178Y-84331857D01*
X150634464Y-84289000D01*
X150463035Y-84289000D01*
X150377321Y-84331857D01*
X150334464Y-84374714D01*
X150291607Y-84460428D01*
X151363035Y-83946142D02*
X151448750Y-83946142D01*
X151534464Y-83989000D01*
X151577321Y-84031857D01*
X151620178Y-84117571D01*
X151663035Y-84289000D01*
X151663035Y-84503285D01*
X151620178Y-84674714D01*
X151577321Y-84760428D01*
X151534464Y-84803285D01*
X151448750Y-84846142D01*
X151363035Y-84846142D01*
X151277321Y-84803285D01*
X151234464Y-84760428D01*
X151191607Y-84674714D01*
X151148750Y-84503285D01*
X151148750Y-84289000D01*
X151191607Y-84117571D01*
X151234464Y-84031857D01*
X151277321Y-83989000D01*
X151363035Y-83946142D01*
X152734464Y-84503285D02*
X153420178Y-84503285D01*
X154534464Y-84846142D02*
X154534464Y-83946142D01*
X154877321Y-83946142D01*
X154963035Y-83989000D01*
X155005892Y-84031857D01*
X155048750Y-84117571D01*
X155048750Y-84246142D01*
X155005892Y-84331857D01*
X154963035Y-84374714D01*
X154877321Y-84417571D01*
X154534464Y-84417571D01*
X155563035Y-84846142D02*
X155477321Y-84803285D01*
X155434464Y-84760428D01*
X155391607Y-84674714D01*
X155391607Y-84417571D01*
X155434464Y-84331857D01*
X155477321Y-84289000D01*
X155563035Y-84246142D01*
X155691607Y-84246142D01*
X155777321Y-84289000D01*
X155820178Y-84331857D01*
X155863035Y-84417571D01*
X155863035Y-84674714D01*
X155820178Y-84760428D01*
X155777321Y-84803285D01*
X155691607Y-84846142D01*
X155563035Y-84846142D01*
X156163035Y-84246142D02*
X156334464Y-84846142D01*
X156505892Y-84417571D01*
X156677321Y-84846142D01*
X156848750Y-84246142D01*
X157534464Y-84803285D02*
X157448750Y-84846142D01*
X157277321Y-84846142D01*
X157191607Y-84803285D01*
X157148750Y-84717571D01*
X157148750Y-84374714D01*
X157191607Y-84289000D01*
X157277321Y-84246142D01*
X157448750Y-84246142D01*
X157534464Y-84289000D01*
X157577321Y-84374714D01*
X157577321Y-84460428D01*
X157148750Y-84546142D01*
X157963035Y-84846142D02*
X157963035Y-84246142D01*
X157963035Y-84417571D02*
X158005892Y-84331857D01*
X158048750Y-84289000D01*
X158134464Y-84246142D01*
X158220178Y-84246142D01*
X159205892Y-84374714D02*
X159505892Y-84374714D01*
X159634464Y-84846142D02*
X159205892Y-84846142D01*
X159205892Y-83946142D01*
X159634464Y-83946142D01*
X160148750Y-84846142D02*
X160063035Y-84803285D01*
X160020178Y-84717571D01*
X160020178Y-83946142D01*
X160834464Y-84803285D02*
X160748750Y-84846142D01*
X160577321Y-84846142D01*
X160491607Y-84803285D01*
X160448750Y-84717571D01*
X160448750Y-84374714D01*
X160491607Y-84289000D01*
X160577321Y-84246142D01*
X160748750Y-84246142D01*
X160834464Y-84289000D01*
X160877321Y-84374714D01*
X160877321Y-84460428D01*
X160448750Y-84546142D01*
X161648750Y-84803285D02*
X161563035Y-84846142D01*
X161391607Y-84846142D01*
X161305892Y-84803285D01*
X161263035Y-84760428D01*
X161220178Y-84674714D01*
X161220178Y-84417571D01*
X161263035Y-84331857D01*
X161305892Y-84289000D01*
X161391607Y-84246142D01*
X161563035Y-84246142D01*
X161648750Y-84289000D01*
X161905892Y-84246142D02*
X162248750Y-84246142D01*
X162034464Y-83946142D02*
X162034464Y-84717571D01*
X162077321Y-84803285D01*
X162163035Y-84846142D01*
X162248750Y-84846142D01*
X162548750Y-84846142D02*
X162548750Y-84246142D01*
X162548750Y-84417571D02*
X162591607Y-84331857D01*
X162634464Y-84289000D01*
X162720178Y-84246142D01*
X162805892Y-84246142D01*
X163234464Y-84846142D02*
X163148750Y-84803285D01*
X163105892Y-84760428D01*
X163063035Y-84674714D01*
X163063035Y-84417571D01*
X163105892Y-84331857D01*
X163148750Y-84289000D01*
X163234464Y-84246142D01*
X163363035Y-84246142D01*
X163448750Y-84289000D01*
X163491607Y-84331857D01*
X163534464Y-84417571D01*
X163534464Y-84674714D01*
X163491607Y-84760428D01*
X163448750Y-84803285D01*
X163363035Y-84846142D01*
X163234464Y-84846142D01*
X163920178Y-84246142D02*
X163920178Y-84846142D01*
X163920178Y-84331857D02*
X163963035Y-84289000D01*
X164048750Y-84246142D01*
X164177321Y-84246142D01*
X164263035Y-84289000D01*
X164305892Y-84374714D01*
X164305892Y-84846142D01*
X164734464Y-84846142D02*
X164734464Y-84246142D01*
X164734464Y-83946142D02*
X164691607Y-83989000D01*
X164734464Y-84031857D01*
X164777321Y-83989000D01*
X164734464Y-83946142D01*
X164734464Y-84031857D01*
X165548750Y-84803285D02*
X165463035Y-84846142D01*
X165291607Y-84846142D01*
X165205892Y-84803285D01*
X165163035Y-84760428D01*
X165120178Y-84674714D01*
X165120178Y-84417571D01*
X165163035Y-84331857D01*
X165205892Y-84289000D01*
X165291607Y-84246142D01*
X165463035Y-84246142D01*
X165548750Y-84289000D01*
X165891607Y-84803285D02*
X165977321Y-84846142D01*
X166148750Y-84846142D01*
X166234464Y-84803285D01*
X166277321Y-84717571D01*
X166277321Y-84674714D01*
X166234464Y-84589000D01*
X166148750Y-84546142D01*
X166020178Y-84546142D01*
X165934464Y-84503285D01*
X165891607Y-84417571D01*
X165891607Y-84374714D01*
X165934464Y-84289000D01*
X166020178Y-84246142D01*
X166148750Y-84246142D01*
X166234464Y-84289000D01*
D10*
%TO.C,SC1*%
X97604761Y-72561904D02*
X97652380Y-72419047D01*
X97652380Y-72180952D01*
X97604761Y-72085714D01*
X97557142Y-72038095D01*
X97461904Y-71990476D01*
X97366666Y-71990476D01*
X97271428Y-72038095D01*
X97223809Y-72085714D01*
X97176190Y-72180952D01*
X97128571Y-72371428D01*
X97080952Y-72466666D01*
X97033333Y-72514285D01*
X96938095Y-72561904D01*
X96842857Y-72561904D01*
X96747619Y-72514285D01*
X96700000Y-72466666D01*
X96652380Y-72371428D01*
X96652380Y-72133333D01*
X96700000Y-71990476D01*
X97557142Y-70990476D02*
X97604761Y-71038095D01*
X97652380Y-71180952D01*
X97652380Y-71276190D01*
X97604761Y-71419047D01*
X97509523Y-71514285D01*
X97414285Y-71561904D01*
X97223809Y-71609523D01*
X97080952Y-71609523D01*
X96890476Y-71561904D01*
X96795238Y-71514285D01*
X96700000Y-71419047D01*
X96652380Y-71276190D01*
X96652380Y-71180952D01*
X96700000Y-71038095D01*
X96747619Y-70990476D01*
X97652380Y-70038095D02*
X97652380Y-70609523D01*
X97652380Y-70323809D02*
X96652380Y-70323809D01*
X96795238Y-70419047D01*
X96890476Y-70514285D01*
X96938095Y-70609523D01*
%TO.C,D1*%
X136421904Y-65512380D02*
X136421904Y-64512380D01*
X136660000Y-64512380D01*
X136802857Y-64560000D01*
X136898095Y-64655238D01*
X136945714Y-64750476D01*
X136993333Y-64940952D01*
X136993333Y-65083809D01*
X136945714Y-65274285D01*
X136898095Y-65369523D01*
X136802857Y-65464761D01*
X136660000Y-65512380D01*
X136421904Y-65512380D01*
X137945714Y-65512380D02*
X137374285Y-65512380D01*
X137660000Y-65512380D02*
X137660000Y-64512380D01*
X137564761Y-64655238D01*
X137469523Y-64750476D01*
X137374285Y-64798095D01*
%TO.C,U1*%
X126238095Y-67172380D02*
X126238095Y-67981904D01*
X126285714Y-68077142D01*
X126333333Y-68124761D01*
X126428571Y-68172380D01*
X126619047Y-68172380D01*
X126714285Y-68124761D01*
X126761904Y-68077142D01*
X126809523Y-67981904D01*
X126809523Y-67172380D01*
X127809523Y-68172380D02*
X127238095Y-68172380D01*
X127523809Y-68172380D02*
X127523809Y-67172380D01*
X127428571Y-67315238D01*
X127333333Y-67410476D01*
X127238095Y-67458095D01*
%TO.C,R11*%
X149282380Y-53790357D02*
X148806190Y-54123690D01*
X149282380Y-54361785D02*
X148282380Y-54361785D01*
X148282380Y-53980833D01*
X148330000Y-53885595D01*
X148377619Y-53837976D01*
X148472857Y-53790357D01*
X148615714Y-53790357D01*
X148710952Y-53837976D01*
X148758571Y-53885595D01*
X148806190Y-53980833D01*
X148806190Y-54361785D01*
X149282380Y-52837976D02*
X149282380Y-53409404D01*
X149282380Y-53123690D02*
X148282380Y-53123690D01*
X148425238Y-53218928D01*
X148520476Y-53314166D01*
X148568095Y-53409404D01*
X149282380Y-51885595D02*
X149282380Y-52457023D01*
X149282380Y-52171309D02*
X148282380Y-52171309D01*
X148425238Y-52266547D01*
X148520476Y-52361785D01*
X148568095Y-52457023D01*
%TO.C,L1*%
X95533333Y-55852380D02*
X95057142Y-55852380D01*
X95057142Y-54852380D01*
X96390476Y-55852380D02*
X95819047Y-55852380D01*
X96104761Y-55852380D02*
X96104761Y-54852380D01*
X96009523Y-54995238D01*
X95914285Y-55090476D01*
X95819047Y-55138095D01*
%TO.C,R2*%
X119112380Y-71286666D02*
X118636190Y-71620000D01*
X119112380Y-71858095D02*
X118112380Y-71858095D01*
X118112380Y-71477142D01*
X118160000Y-71381904D01*
X118207619Y-71334285D01*
X118302857Y-71286666D01*
X118445714Y-71286666D01*
X118540952Y-71334285D01*
X118588571Y-71381904D01*
X118636190Y-71477142D01*
X118636190Y-71858095D01*
X118207619Y-70905714D02*
X118160000Y-70858095D01*
X118112380Y-70762857D01*
X118112380Y-70524761D01*
X118160000Y-70429523D01*
X118207619Y-70381904D01*
X118302857Y-70334285D01*
X118398095Y-70334285D01*
X118540952Y-70381904D01*
X119112380Y-70953333D01*
X119112380Y-70334285D01*
%TO.C,R3*%
X126562380Y-81446666D02*
X126086190Y-81780000D01*
X126562380Y-82018095D02*
X125562380Y-82018095D01*
X125562380Y-81637142D01*
X125610000Y-81541904D01*
X125657619Y-81494285D01*
X125752857Y-81446666D01*
X125895714Y-81446666D01*
X125990952Y-81494285D01*
X126038571Y-81541904D01*
X126086190Y-81637142D01*
X126086190Y-82018095D01*
X125562380Y-81113333D02*
X125562380Y-80494285D01*
X125943333Y-80827619D01*
X125943333Y-80684761D01*
X125990952Y-80589523D01*
X126038571Y-80541904D01*
X126133809Y-80494285D01*
X126371904Y-80494285D01*
X126467142Y-80541904D01*
X126514761Y-80589523D01*
X126562380Y-80684761D01*
X126562380Y-80970476D01*
X126514761Y-81065714D01*
X126467142Y-81113333D01*
%TO.C,C6*%
X126833333Y-59637142D02*
X126785714Y-59684761D01*
X126642857Y-59732380D01*
X126547619Y-59732380D01*
X126404761Y-59684761D01*
X126309523Y-59589523D01*
X126261904Y-59494285D01*
X126214285Y-59303809D01*
X126214285Y-59160952D01*
X126261904Y-58970476D01*
X126309523Y-58875238D01*
X126404761Y-58780000D01*
X126547619Y-58732380D01*
X126642857Y-58732380D01*
X126785714Y-58780000D01*
X126833333Y-58827619D01*
X127690476Y-58732380D02*
X127500000Y-58732380D01*
X127404761Y-58780000D01*
X127357142Y-58827619D01*
X127261904Y-58970476D01*
X127214285Y-59160952D01*
X127214285Y-59541904D01*
X127261904Y-59637142D01*
X127309523Y-59684761D01*
X127404761Y-59732380D01*
X127595238Y-59732380D01*
X127690476Y-59684761D01*
X127738095Y-59637142D01*
X127785714Y-59541904D01*
X127785714Y-59303809D01*
X127738095Y-59208571D01*
X127690476Y-59160952D01*
X127595238Y-59113333D01*
X127404761Y-59113333D01*
X127309523Y-59160952D01*
X127261904Y-59208571D01*
X127214285Y-59303809D01*
%TO.C,R4*%
X131642380Y-78906666D02*
X131166190Y-79240000D01*
X131642380Y-79478095D02*
X130642380Y-79478095D01*
X130642380Y-79097142D01*
X130690000Y-79001904D01*
X130737619Y-78954285D01*
X130832857Y-78906666D01*
X130975714Y-78906666D01*
X131070952Y-78954285D01*
X131118571Y-79001904D01*
X131166190Y-79097142D01*
X131166190Y-79478095D01*
X130975714Y-78049523D02*
X131642380Y-78049523D01*
X130594761Y-78287619D02*
X131309047Y-78525714D01*
X131309047Y-77906666D01*
%TO.C,C3*%
X113547142Y-78906666D02*
X113594761Y-78954285D01*
X113642380Y-79097142D01*
X113642380Y-79192380D01*
X113594761Y-79335238D01*
X113499523Y-79430476D01*
X113404285Y-79478095D01*
X113213809Y-79525714D01*
X113070952Y-79525714D01*
X112880476Y-79478095D01*
X112785238Y-79430476D01*
X112690000Y-79335238D01*
X112642380Y-79192380D01*
X112642380Y-79097142D01*
X112690000Y-78954285D01*
X112737619Y-78906666D01*
X112642380Y-78573333D02*
X112642380Y-77954285D01*
X113023333Y-78287619D01*
X113023333Y-78144761D01*
X113070952Y-78049523D01*
X113118571Y-78001904D01*
X113213809Y-77954285D01*
X113451904Y-77954285D01*
X113547142Y-78001904D01*
X113594761Y-78049523D01*
X113642380Y-78144761D01*
X113642380Y-78430476D01*
X113594761Y-78525714D01*
X113547142Y-78573333D01*
%TO.C,C2*%
X113797142Y-73826666D02*
X113844761Y-73874285D01*
X113892380Y-74017142D01*
X113892380Y-74112380D01*
X113844761Y-74255238D01*
X113749523Y-74350476D01*
X113654285Y-74398095D01*
X113463809Y-74445714D01*
X113320952Y-74445714D01*
X113130476Y-74398095D01*
X113035238Y-74350476D01*
X112940000Y-74255238D01*
X112892380Y-74112380D01*
X112892380Y-74017142D01*
X112940000Y-73874285D01*
X112987619Y-73826666D01*
X112987619Y-73445714D02*
X112940000Y-73398095D01*
X112892380Y-73302857D01*
X112892380Y-73064761D01*
X112940000Y-72969523D01*
X112987619Y-72921904D01*
X113082857Y-72874285D01*
X113178095Y-72874285D01*
X113320952Y-72921904D01*
X113892380Y-73493333D01*
X113892380Y-72874285D01*
%TO.C,R1*%
X113642380Y-68746666D02*
X113166190Y-69080000D01*
X113642380Y-69318095D02*
X112642380Y-69318095D01*
X112642380Y-68937142D01*
X112690000Y-68841904D01*
X112737619Y-68794285D01*
X112832857Y-68746666D01*
X112975714Y-68746666D01*
X113070952Y-68794285D01*
X113118571Y-68841904D01*
X113166190Y-68937142D01*
X113166190Y-69318095D01*
X113642380Y-67794285D02*
X113642380Y-68365714D01*
X113642380Y-68080000D02*
X112642380Y-68080000D01*
X112785238Y-68175238D01*
X112880476Y-68270476D01*
X112928095Y-68365714D01*
%TO.C,R6*%
X146882380Y-71286666D02*
X146406190Y-71620000D01*
X146882380Y-71858095D02*
X145882380Y-71858095D01*
X145882380Y-71477142D01*
X145930000Y-71381904D01*
X145977619Y-71334285D01*
X146072857Y-71286666D01*
X146215714Y-71286666D01*
X146310952Y-71334285D01*
X146358571Y-71381904D01*
X146406190Y-71477142D01*
X146406190Y-71858095D01*
X145882380Y-70429523D02*
X145882380Y-70620000D01*
X145930000Y-70715238D01*
X145977619Y-70762857D01*
X146120476Y-70858095D01*
X146310952Y-70905714D01*
X146691904Y-70905714D01*
X146787142Y-70858095D01*
X146834761Y-70810476D01*
X146882380Y-70715238D01*
X146882380Y-70524761D01*
X146834761Y-70429523D01*
X146787142Y-70381904D01*
X146691904Y-70334285D01*
X146453809Y-70334285D01*
X146358571Y-70381904D01*
X146310952Y-70429523D01*
X146263333Y-70524761D01*
X146263333Y-70715238D01*
X146310952Y-70810476D01*
X146358571Y-70858095D01*
X146453809Y-70905714D01*
%TO.C,R8*%
X144152380Y-57164166D02*
X143676190Y-57497500D01*
X144152380Y-57735595D02*
X143152380Y-57735595D01*
X143152380Y-57354642D01*
X143200000Y-57259404D01*
X143247619Y-57211785D01*
X143342857Y-57164166D01*
X143485714Y-57164166D01*
X143580952Y-57211785D01*
X143628571Y-57259404D01*
X143676190Y-57354642D01*
X143676190Y-57735595D01*
X143580952Y-56592738D02*
X143533333Y-56687976D01*
X143485714Y-56735595D01*
X143390476Y-56783214D01*
X143342857Y-56783214D01*
X143247619Y-56735595D01*
X143200000Y-56687976D01*
X143152380Y-56592738D01*
X143152380Y-56402261D01*
X143200000Y-56307023D01*
X143247619Y-56259404D01*
X143342857Y-56211785D01*
X143390476Y-56211785D01*
X143485714Y-56259404D01*
X143533333Y-56307023D01*
X143580952Y-56402261D01*
X143580952Y-56592738D01*
X143628571Y-56687976D01*
X143676190Y-56735595D01*
X143771428Y-56783214D01*
X143961904Y-56783214D01*
X144057142Y-56735595D01*
X144104761Y-56687976D01*
X144152380Y-56592738D01*
X144152380Y-56402261D01*
X144104761Y-56307023D01*
X144057142Y-56259404D01*
X143961904Y-56211785D01*
X143771428Y-56211785D01*
X143676190Y-56259404D01*
X143628571Y-56307023D01*
X143580952Y-56402261D01*
%TO.C,R9*%
X144142380Y-53224166D02*
X143666190Y-53557500D01*
X144142380Y-53795595D02*
X143142380Y-53795595D01*
X143142380Y-53414642D01*
X143190000Y-53319404D01*
X143237619Y-53271785D01*
X143332857Y-53224166D01*
X143475714Y-53224166D01*
X143570952Y-53271785D01*
X143618571Y-53319404D01*
X143666190Y-53414642D01*
X143666190Y-53795595D01*
X144142380Y-52747976D02*
X144142380Y-52557500D01*
X144094761Y-52462261D01*
X144047142Y-52414642D01*
X143904285Y-52319404D01*
X143713809Y-52271785D01*
X143332857Y-52271785D01*
X143237619Y-52319404D01*
X143190000Y-52367023D01*
X143142380Y-52462261D01*
X143142380Y-52652738D01*
X143190000Y-52747976D01*
X143237619Y-52795595D01*
X143332857Y-52843214D01*
X143570952Y-52843214D01*
X143666190Y-52795595D01*
X143713809Y-52747976D01*
X143761428Y-52652738D01*
X143761428Y-52462261D01*
X143713809Y-52367023D01*
X143666190Y-52319404D01*
X143570952Y-52271785D01*
%TO.C,C1*%
X109687142Y-81446666D02*
X109734761Y-81494285D01*
X109782380Y-81637142D01*
X109782380Y-81732380D01*
X109734761Y-81875238D01*
X109639523Y-81970476D01*
X109544285Y-82018095D01*
X109353809Y-82065714D01*
X109210952Y-82065714D01*
X109020476Y-82018095D01*
X108925238Y-81970476D01*
X108830000Y-81875238D01*
X108782380Y-81732380D01*
X108782380Y-81637142D01*
X108830000Y-81494285D01*
X108877619Y-81446666D01*
X109782380Y-80494285D02*
X109782380Y-81065714D01*
X109782380Y-80780000D02*
X108782380Y-80780000D01*
X108925238Y-80875238D01*
X109020476Y-80970476D01*
X109068095Y-81065714D01*
%TO.C,R7*%
X145248333Y-79827380D02*
X144915000Y-79351190D01*
X144676904Y-79827380D02*
X144676904Y-78827380D01*
X145057857Y-78827380D01*
X145153095Y-78875000D01*
X145200714Y-78922619D01*
X145248333Y-79017857D01*
X145248333Y-79160714D01*
X145200714Y-79255952D01*
X145153095Y-79303571D01*
X145057857Y-79351190D01*
X144676904Y-79351190D01*
X145581666Y-78827380D02*
X146248333Y-78827380D01*
X145819761Y-79827380D01*
%TO.C,Q1*%
X134207619Y-71215238D02*
X134160000Y-71310476D01*
X134064761Y-71405714D01*
X133921904Y-71548571D01*
X133874285Y-71643809D01*
X133874285Y-71739047D01*
X134112380Y-71691428D02*
X134064761Y-71786666D01*
X133969523Y-71881904D01*
X133779047Y-71929523D01*
X133445714Y-71929523D01*
X133255238Y-71881904D01*
X133160000Y-71786666D01*
X133112380Y-71691428D01*
X133112380Y-71500952D01*
X133160000Y-71405714D01*
X133255238Y-71310476D01*
X133445714Y-71262857D01*
X133779047Y-71262857D01*
X133969523Y-71310476D01*
X134064761Y-71405714D01*
X134112380Y-71500952D01*
X134112380Y-71691428D01*
X134112380Y-70310476D02*
X134112380Y-70881904D01*
X134112380Y-70596190D02*
X133112380Y-70596190D01*
X133255238Y-70691428D01*
X133350476Y-70786666D01*
X133398095Y-70881904D01*
%TO.C,R10*%
X149302380Y-57760357D02*
X148826190Y-58093690D01*
X149302380Y-58331785D02*
X148302380Y-58331785D01*
X148302380Y-57950833D01*
X148350000Y-57855595D01*
X148397619Y-57807976D01*
X148492857Y-57760357D01*
X148635714Y-57760357D01*
X148730952Y-57807976D01*
X148778571Y-57855595D01*
X148826190Y-57950833D01*
X148826190Y-58331785D01*
X149302380Y-56807976D02*
X149302380Y-57379404D01*
X149302380Y-57093690D02*
X148302380Y-57093690D01*
X148445238Y-57188928D01*
X148540476Y-57284166D01*
X148588095Y-57379404D01*
X148302380Y-56188928D02*
X148302380Y-56093690D01*
X148350000Y-55998452D01*
X148397619Y-55950833D01*
X148492857Y-55903214D01*
X148683333Y-55855595D01*
X148921428Y-55855595D01*
X149111904Y-55903214D01*
X149207142Y-55950833D01*
X149254761Y-55998452D01*
X149302380Y-56093690D01*
X149302380Y-56188928D01*
X149254761Y-56284166D01*
X149207142Y-56331785D01*
X149111904Y-56379404D01*
X148921428Y-56427023D01*
X148683333Y-56427023D01*
X148492857Y-56379404D01*
X148397619Y-56331785D01*
X148350000Y-56284166D01*
X148302380Y-56188928D01*
%TO.C,J1*%
X148382380Y-71453333D02*
X149096666Y-71453333D01*
X149239523Y-71500952D01*
X149334761Y-71596190D01*
X149382380Y-71739047D01*
X149382380Y-71834285D01*
X149382380Y-70453333D02*
X149382380Y-71024761D01*
X149382380Y-70739047D02*
X148382380Y-70739047D01*
X148525238Y-70834285D01*
X148620476Y-70929523D01*
X148668095Y-71024761D01*
%TO.C,C7*%
X146987142Y-63666666D02*
X147034761Y-63714285D01*
X147082380Y-63857142D01*
X147082380Y-63952380D01*
X147034761Y-64095238D01*
X146939523Y-64190476D01*
X146844285Y-64238095D01*
X146653809Y-64285714D01*
X146510952Y-64285714D01*
X146320476Y-64238095D01*
X146225238Y-64190476D01*
X146130000Y-64095238D01*
X146082380Y-63952380D01*
X146082380Y-63857142D01*
X146130000Y-63714285D01*
X146177619Y-63666666D01*
X146082380Y-63333333D02*
X146082380Y-62666666D01*
X147082380Y-63095238D01*
%TO.C,C5*%
X131577142Y-83074166D02*
X131624761Y-83121785D01*
X131672380Y-83264642D01*
X131672380Y-83359880D01*
X131624761Y-83502738D01*
X131529523Y-83597976D01*
X131434285Y-83645595D01*
X131243809Y-83693214D01*
X131100952Y-83693214D01*
X130910476Y-83645595D01*
X130815238Y-83597976D01*
X130720000Y-83502738D01*
X130672380Y-83359880D01*
X130672380Y-83264642D01*
X130720000Y-83121785D01*
X130767619Y-83074166D01*
X130672380Y-82169404D02*
X130672380Y-82645595D01*
X131148571Y-82693214D01*
X131100952Y-82645595D01*
X131053333Y-82550357D01*
X131053333Y-82312261D01*
X131100952Y-82217023D01*
X131148571Y-82169404D01*
X131243809Y-82121785D01*
X131481904Y-82121785D01*
X131577142Y-82169404D01*
X131624761Y-82217023D01*
X131672380Y-82312261D01*
X131672380Y-82550357D01*
X131624761Y-82645595D01*
X131577142Y-82693214D01*
%TO.C,C4*%
X118877142Y-81446666D02*
X118924761Y-81494285D01*
X118972380Y-81637142D01*
X118972380Y-81732380D01*
X118924761Y-81875238D01*
X118829523Y-81970476D01*
X118734285Y-82018095D01*
X118543809Y-82065714D01*
X118400952Y-82065714D01*
X118210476Y-82018095D01*
X118115238Y-81970476D01*
X118020000Y-81875238D01*
X117972380Y-81732380D01*
X117972380Y-81637142D01*
X118020000Y-81494285D01*
X118067619Y-81446666D01*
X118305714Y-80589523D02*
X118972380Y-80589523D01*
X117924761Y-80827619D02*
X118639047Y-81065714D01*
X118639047Y-80446666D01*
%TO.C,R5*%
X139432380Y-81446666D02*
X138956190Y-81780000D01*
X139432380Y-82018095D02*
X138432380Y-82018095D01*
X138432380Y-81637142D01*
X138480000Y-81541904D01*
X138527619Y-81494285D01*
X138622857Y-81446666D01*
X138765714Y-81446666D01*
X138860952Y-81494285D01*
X138908571Y-81541904D01*
X138956190Y-81637142D01*
X138956190Y-82018095D01*
X138432380Y-80541904D02*
X138432380Y-81018095D01*
X138908571Y-81065714D01*
X138860952Y-81018095D01*
X138813333Y-80922857D01*
X138813333Y-80684761D01*
X138860952Y-80589523D01*
X138908571Y-80541904D01*
X139003809Y-80494285D01*
X139241904Y-80494285D01*
X139337142Y-80541904D01*
X139384761Y-80589523D01*
X139432380Y-80684761D01*
X139432380Y-80922857D01*
X139384761Y-81018095D01*
X139337142Y-81065714D01*
D12*
%TO.C,SC1*%
X102200000Y-75840000D02*
X98200000Y-75840000D01*
X102200000Y-71300000D02*
X98200000Y-71300000D01*
X102200000Y-66760000D02*
X102200000Y-75840000D01*
X98200000Y-66760000D02*
X102200000Y-66760000D01*
X98200000Y-75840000D02*
X98200000Y-66760000D01*
%TO.C,D1*%
X141960000Y-57710000D02*
X141960000Y-64210000D01*
X141960000Y-57710000D02*
X133560000Y-57710000D01*
X141960000Y-64210000D02*
X133560000Y-64210000D01*
%TO.C,U1*%
X127000000Y-73680000D02*
X128950000Y-73680000D01*
X127000000Y-73680000D02*
X125050000Y-73680000D01*
X127000000Y-68560000D02*
X123550000Y-68560000D01*
X127000000Y-68560000D02*
X128950000Y-68560000D01*
%TO.C,R11*%
X149745000Y-53374564D02*
X149745000Y-52920436D01*
X151215000Y-53374564D02*
X151215000Y-52920436D01*
%TO.C,L1*%
X101300000Y-59050000D02*
X100500000Y-58250000D01*
X115300000Y-52550000D02*
X115300000Y-59050000D01*
X100500000Y-58250000D02*
X100500000Y-52550000D01*
X115300000Y-59050000D02*
X101300000Y-59050000D01*
X100500000Y-52550000D02*
X115300000Y-52550000D01*
%TO.C,R2*%
X115930000Y-70392936D02*
X115930000Y-71847064D01*
X117750000Y-70392936D02*
X117750000Y-71847064D01*
%TO.C,R3*%
X125195000Y-81052936D02*
X125195000Y-81507064D01*
X123725000Y-81052936D02*
X123725000Y-81507064D01*
%TO.C,C6*%
X126738748Y-60225000D02*
X127261252Y-60225000D01*
X126738748Y-61695000D02*
X127261252Y-61695000D01*
%TO.C,R4*%
X128805000Y-78512936D02*
X128805000Y-78967064D01*
X130275000Y-78512936D02*
X130275000Y-78967064D01*
%TO.C,C3*%
X111250000Y-78599420D02*
X111250000Y-78880580D01*
X112270000Y-78599420D02*
X112270000Y-78880580D01*
%TO.C,C2*%
X112495000Y-73398748D02*
X112495000Y-73921252D01*
X111025000Y-73398748D02*
X111025000Y-73921252D01*
%TO.C,R1*%
X111237500Y-68342742D02*
X111237500Y-68817258D01*
X112282500Y-68342742D02*
X112282500Y-68817258D01*
%TO.C,R6*%
X145515000Y-70892936D02*
X145515000Y-71347064D01*
X144045000Y-70892936D02*
X144045000Y-71347064D01*
%TO.C,R8*%
X146085000Y-57224564D02*
X146085000Y-56770436D01*
X144615000Y-57224564D02*
X144615000Y-56770436D01*
%TO.C,R9*%
X146075000Y-53284564D02*
X146075000Y-52830436D01*
X144605000Y-53284564D02*
X144605000Y-52830436D01*
%TO.C,C1*%
X108390000Y-80118748D02*
X108390000Y-82441252D01*
X104970000Y-80118748D02*
X104970000Y-82441252D01*
%TO.C,R7*%
X144045000Y-75972936D02*
X144045000Y-76427064D01*
X145515000Y-75972936D02*
X145515000Y-76427064D01*
%TO.C,Q1*%
X139495000Y-74180000D02*
X139845000Y-74180000D01*
X139845000Y-68060000D02*
X139845000Y-74180000D01*
X134775000Y-68060000D02*
X134475000Y-68060000D01*
X134475000Y-68060000D02*
X134475000Y-74180000D01*
X139545000Y-68060000D02*
X139845000Y-68060000D01*
%TO.C,R10*%
X149765000Y-57344564D02*
X149765000Y-56890436D01*
X151235000Y-57344564D02*
X151235000Y-56890436D01*
%TO.C,J1*%
X165220000Y-63810000D02*
X164700000Y-63810000D01*
X164700000Y-63810000D02*
X164700000Y-64460000D01*
X164700000Y-77780000D02*
X164700000Y-78430000D01*
X149740000Y-64460000D02*
X153070000Y-64460000D01*
X156590000Y-64460000D02*
X164700000Y-64460000D01*
X149740000Y-77780000D02*
X149740000Y-64460000D01*
X149520000Y-75520000D02*
X149520000Y-73720000D01*
X164700000Y-77780000D02*
X156590000Y-77780000D01*
X149740000Y-77780000D02*
X153070000Y-77780000D01*
X165220000Y-78430000D02*
X165220000Y-63810000D01*
X164700000Y-78430000D02*
X165220000Y-78430000D01*
%TO.C,C7*%
X145690000Y-62788748D02*
X145690000Y-64211252D01*
X143870000Y-62788748D02*
X143870000Y-64211252D01*
%TO.C,C5*%
X130275000Y-82646248D02*
X130275000Y-83168752D01*
X128805000Y-82646248D02*
X128805000Y-83168752D01*
%TO.C,C4*%
X117575000Y-81018748D02*
X117575000Y-81541252D01*
X116105000Y-81018748D02*
X116105000Y-81541252D01*
%TO.C,R5*%
X136250000Y-80552936D02*
X136250000Y-82007064D01*
X138070000Y-80552936D02*
X138070000Y-82007064D01*
%TD*%
M02*
