%TF.GenerationSoftware,KiCad,Pcbnew,(6.0.4)*%
%TF.CreationDate,2022-04-27T00:59:47-07:00*%
%TF.ProjectId,SolarChargerV2,536f6c61-7243-4686-9172-67657256322e,rev?*%
%TF.SameCoordinates,Original*%
%TF.FileFunction,Copper,L2,Bot*%
%TF.FilePolarity,Positive*%
%FSLAX46Y46*%
G04 Gerber Fmt 4.6, Leading zero omitted, Abs format (unit mm)*
G04 Created by KiCad (PCBNEW (6.0.4)) date 2022-04-27 00:59:47*
%MOMM*%
%LPD*%
G01*
G04 APERTURE LIST*
%TA.AperFunction,ComponentPad*%
%ADD10C,3.000000*%
%TD*%
%TA.AperFunction,ComponentPad*%
%ADD11R,1.500000X1.600000*%
%TD*%
%TA.AperFunction,ComponentPad*%
%ADD12C,1.600000*%
%TD*%
%TA.AperFunction,ViaPad*%
%ADD13C,0.800000*%
%TD*%
%TA.AperFunction,Conductor*%
%ADD14C,0.250000*%
%TD*%
G04 APERTURE END LIST*
D10*
%TO.P,SC1,1,+*%
%TO.N,Net-(C1-Pad1)*%
X104140000Y-68580000D03*
%TO.P,SC1,2,-*%
%TO.N,GND*%
X104140000Y-73660000D03*
%TD*%
D11*
%TO.P,J1,1,VBUS*%
%TO.N,Net-(C7-Pad1)*%
X152120000Y-74620000D03*
D12*
%TO.P,J1,2,D-*%
%TO.N,unconnected-(J1-Pad2)*%
X152120000Y-72120000D03*
%TO.P,J1,3,D+*%
%TO.N,unconnected-(J1-Pad3)*%
X152120000Y-70120000D03*
%TO.P,J1,4,GND*%
%TO.N,GND*%
X152120000Y-67620000D03*
D10*
%TO.P,J1,5,Shield*%
X154830000Y-64550000D03*
X154830000Y-77690000D03*
%TD*%
D13*
%TO.N,Net-(C4-Pad1)*%
X120015000Y-70485000D03*
X120015000Y-79375000D03*
%TO.N,Net-(C5-Pad1)*%
X140335000Y-78740000D03*
X140335000Y-73025000D03*
%TO.N,GND*%
X127000000Y-81915000D03*
X100965000Y-64365000D03*
X127000000Y-74205500D03*
X147320000Y-64770000D03*
X104140000Y-76835000D03*
X147320000Y-59690000D03*
X109855000Y-74930000D03*
X109855000Y-79375000D03*
X100965000Y-73660000D03*
X104140000Y-83820000D03*
X109855000Y-82550000D03*
%TO.N,Net-(C1-Pad1)*%
X103505000Y-62230000D03*
X107950000Y-79375000D03*
X107950000Y-68580000D03*
%TO.N,Net-(C2-Pad1)*%
X120015000Y-65405000D03*
X113030000Y-69215000D03*
X120015000Y-66675000D03*
X113030000Y-65405000D03*
%TO.N,Net-(R3-Pad1)*%
X123190000Y-74930000D03*
X131445000Y-70485000D03*
X131445000Y-74930000D03*
X123190000Y-80645000D03*
%TO.N,Net-(R4-Pad1)*%
X121920000Y-69215000D03*
X121920000Y-78105000D03*
%TO.N,Net-(C7-Pad1)*%
X142240000Y-62230000D03*
X147955000Y-70485000D03*
X142240000Y-69850000D03*
X147955000Y-74295000D03*
%TO.N,Net-(R6-Pad2)*%
X121195500Y-71755000D03*
X121195500Y-76835000D03*
%TO.N,Net-(U1-Pad6)*%
X133985000Y-71755000D03*
X133985000Y-75475500D03*
%TO.N,Net-(Q1-Pad5)*%
X132715000Y-69850000D03*
X132715000Y-57150000D03*
%TO.N,Net-(C6-Pad2)*%
X121285000Y-65405000D03*
X121285000Y-62865000D03*
%TD*%
D14*
%TO.N,Net-(C4-Pad1)*%
X120015000Y-79375000D02*
X120015000Y-70485000D01*
%TO.N,Net-(C5-Pad1)*%
X140335000Y-78740000D02*
X140335000Y-73025000D01*
%TO.N,GND*%
X147320000Y-64770000D02*
X147320000Y-59690000D01*
X104140000Y-83820000D02*
X104140000Y-76835000D01*
X127000000Y-74205500D02*
X127000000Y-81915000D01*
X109855000Y-82550000D02*
X109855000Y-79375000D01*
X100965000Y-64365000D02*
X100965000Y-73660000D01*
X109855000Y-74930000D02*
X109855000Y-79375000D01*
%TO.N,Net-(C1-Pad1)*%
X107950000Y-79375000D02*
X107950000Y-68580000D01*
X104140000Y-62865000D02*
X104140000Y-68580000D01*
X103505000Y-62230000D02*
X104140000Y-62865000D01*
%TO.N,Net-(C2-Pad1)*%
X113030000Y-69215000D02*
X113030000Y-65405000D01*
X120015000Y-65405000D02*
X120015000Y-66675000D01*
%TO.N,Net-(R3-Pad1)*%
X131445000Y-74930000D02*
X131445000Y-70485000D01*
X123190000Y-80645000D02*
X123190000Y-74930000D01*
%TO.N,Net-(R4-Pad1)*%
X121920000Y-69215000D02*
X121920000Y-78105000D01*
%TO.N,Net-(C7-Pad1)*%
X142240000Y-62230000D02*
X142240000Y-69850000D01*
X147955000Y-74295000D02*
X147955000Y-70485000D01*
%TO.N,Net-(R6-Pad2)*%
X121195500Y-71755000D02*
X121195500Y-76835000D01*
%TO.N,Net-(U1-Pad6)*%
X133985000Y-71755000D02*
X133985000Y-75475500D01*
%TO.N,Net-(Q1-Pad5)*%
X132715000Y-69850000D02*
X132715000Y-57150000D01*
%TO.N,Net-(C6-Pad2)*%
X121285000Y-62865000D02*
X121285000Y-65405000D01*
%TD*%
%TA.AperFunction,Conductor*%
%TO.N,GND*%
G36*
X167073621Y-51328502D02*
G01*
X167120114Y-51382158D01*
X167131500Y-51434500D01*
X167131500Y-90805500D01*
X167111498Y-90873621D01*
X167057842Y-90920114D01*
X167005500Y-90931500D01*
X94614500Y-90931500D01*
X94546379Y-90911498D01*
X94499886Y-90857842D01*
X94488500Y-90805500D01*
X94488500Y-79375000D01*
X107036496Y-79375000D01*
X107037186Y-79381565D01*
X107053187Y-79533803D01*
X107056458Y-79564928D01*
X107115473Y-79746556D01*
X107210960Y-79911944D01*
X107338747Y-80053866D01*
X107493248Y-80166118D01*
X107499276Y-80168802D01*
X107499278Y-80168803D01*
X107661681Y-80241109D01*
X107667712Y-80243794D01*
X107761113Y-80263647D01*
X107848056Y-80282128D01*
X107848061Y-80282128D01*
X107854513Y-80283500D01*
X108045487Y-80283500D01*
X108051939Y-80282128D01*
X108051944Y-80282128D01*
X108138887Y-80263647D01*
X108232288Y-80243794D01*
X108238319Y-80241109D01*
X108400722Y-80168803D01*
X108400724Y-80168802D01*
X108406752Y-80166118D01*
X108561253Y-80053866D01*
X108689040Y-79911944D01*
X108784527Y-79746556D01*
X108843542Y-79564928D01*
X108846814Y-79533803D01*
X108862814Y-79381565D01*
X108863504Y-79375000D01*
X119101496Y-79375000D01*
X119102186Y-79381565D01*
X119118187Y-79533803D01*
X119121458Y-79564928D01*
X119180473Y-79746556D01*
X119275960Y-79911944D01*
X119403747Y-80053866D01*
X119558248Y-80166118D01*
X119564276Y-80168802D01*
X119564278Y-80168803D01*
X119726681Y-80241109D01*
X119732712Y-80243794D01*
X119826113Y-80263647D01*
X119913056Y-80282128D01*
X119913061Y-80282128D01*
X119919513Y-80283500D01*
X120110487Y-80283500D01*
X120116939Y-80282128D01*
X120116944Y-80282128D01*
X120203887Y-80263647D01*
X120297288Y-80243794D01*
X120303319Y-80241109D01*
X120465722Y-80168803D01*
X120465724Y-80168802D01*
X120471752Y-80166118D01*
X120626253Y-80053866D01*
X120754040Y-79911944D01*
X120849527Y-79746556D01*
X120908542Y-79564928D01*
X120911814Y-79533803D01*
X120927814Y-79381565D01*
X120928504Y-79375000D01*
X120908542Y-79185072D01*
X120849527Y-79003444D01*
X120754040Y-78838056D01*
X120680863Y-78756785D01*
X120650147Y-78692779D01*
X120648500Y-78672476D01*
X120648500Y-77779960D01*
X120668502Y-77711839D01*
X120722158Y-77665346D01*
X120792432Y-77655242D01*
X120825748Y-77664853D01*
X120853454Y-77677188D01*
X120888890Y-77692965D01*
X120913212Y-77703794D01*
X120919667Y-77705166D01*
X120919676Y-77705169D01*
X120946478Y-77710866D01*
X121008951Y-77744594D01*
X121043272Y-77806744D01*
X121040113Y-77873046D01*
X121026458Y-77915072D01*
X121006496Y-78105000D01*
X121007186Y-78111565D01*
X121018055Y-78214974D01*
X121026458Y-78294928D01*
X121085473Y-78476556D01*
X121180960Y-78641944D01*
X121308747Y-78783866D01*
X121463248Y-78896118D01*
X121469276Y-78898802D01*
X121469278Y-78898803D01*
X121631681Y-78971109D01*
X121637712Y-78973794D01*
X121731113Y-78993647D01*
X121818056Y-79012128D01*
X121818061Y-79012128D01*
X121824513Y-79013500D01*
X122015487Y-79013500D01*
X122021939Y-79012128D01*
X122021944Y-79012128D01*
X122108887Y-78993647D01*
X122202288Y-78973794D01*
X122226656Y-78962945D01*
X122376752Y-78896118D01*
X122377677Y-78898196D01*
X122436488Y-78883924D01*
X122503581Y-78907141D01*
X122547472Y-78962945D01*
X122556500Y-79009782D01*
X122556500Y-79942476D01*
X122536498Y-80010597D01*
X122524142Y-80026779D01*
X122450960Y-80108056D01*
X122355473Y-80273444D01*
X122296458Y-80455072D01*
X122276496Y-80645000D01*
X122296458Y-80834928D01*
X122355473Y-81016556D01*
X122450960Y-81181944D01*
X122578747Y-81323866D01*
X122733248Y-81436118D01*
X122739276Y-81438802D01*
X122739278Y-81438803D01*
X122901681Y-81511109D01*
X122907712Y-81513794D01*
X123001112Y-81533647D01*
X123088056Y-81552128D01*
X123088061Y-81552128D01*
X123094513Y-81553500D01*
X123285487Y-81553500D01*
X123291939Y-81552128D01*
X123291944Y-81552128D01*
X123378888Y-81533647D01*
X123472288Y-81513794D01*
X123478319Y-81511109D01*
X123640722Y-81438803D01*
X123640724Y-81438802D01*
X123646752Y-81436118D01*
X123801253Y-81323866D01*
X123929040Y-81181944D01*
X124024527Y-81016556D01*
X124083542Y-80834928D01*
X124103504Y-80645000D01*
X124083542Y-80455072D01*
X124024527Y-80273444D01*
X123929040Y-80108056D01*
X123855863Y-80026785D01*
X123825147Y-79962779D01*
X123823500Y-79942476D01*
X123823500Y-78740000D01*
X139421496Y-78740000D01*
X139422186Y-78746565D01*
X139438187Y-78898803D01*
X139441458Y-78929928D01*
X139500473Y-79111556D01*
X139595960Y-79276944D01*
X139723747Y-79418866D01*
X139878248Y-79531118D01*
X139884276Y-79533802D01*
X139884278Y-79533803D01*
X140046681Y-79606109D01*
X140052712Y-79608794D01*
X140146113Y-79628647D01*
X140233056Y-79647128D01*
X140233061Y-79647128D01*
X140239513Y-79648500D01*
X140430487Y-79648500D01*
X140436939Y-79647128D01*
X140436944Y-79647128D01*
X140523887Y-79628647D01*
X140617288Y-79608794D01*
X140623319Y-79606109D01*
X140785722Y-79533803D01*
X140785724Y-79533802D01*
X140791752Y-79531118D01*
X140946253Y-79418866D01*
X141071600Y-79279654D01*
X153605618Y-79279654D01*
X153612673Y-79289627D01*
X153643679Y-79315551D01*
X153650598Y-79320579D01*
X153875272Y-79461515D01*
X153882807Y-79465556D01*
X154124520Y-79574694D01*
X154132551Y-79577680D01*
X154386832Y-79653002D01*
X154395184Y-79654869D01*
X154657340Y-79694984D01*
X154665874Y-79695700D01*
X154931045Y-79699867D01*
X154939596Y-79699418D01*
X155202883Y-79667557D01*
X155211284Y-79665955D01*
X155467824Y-79598653D01*
X155475926Y-79595926D01*
X155720949Y-79494434D01*
X155728617Y-79490628D01*
X155957598Y-79356822D01*
X155964679Y-79352009D01*
X156044655Y-79289301D01*
X156053125Y-79277442D01*
X156046608Y-79265818D01*
X154842812Y-78062022D01*
X154828868Y-78054408D01*
X154827035Y-78054539D01*
X154820420Y-78058790D01*
X153612910Y-79266300D01*
X153605618Y-79279654D01*
X141071600Y-79279654D01*
X141074040Y-79276944D01*
X141169527Y-79111556D01*
X141228542Y-78929928D01*
X141231814Y-78898803D01*
X141247814Y-78746565D01*
X141248504Y-78740000D01*
X141228542Y-78550072D01*
X141169527Y-78368444D01*
X141074040Y-78203056D01*
X141000863Y-78121785D01*
X140970147Y-78057779D01*
X140968500Y-78037476D01*
X140968500Y-77673204D01*
X152817665Y-77673204D01*
X152832932Y-77937969D01*
X152834005Y-77946470D01*
X152885065Y-78206722D01*
X152887276Y-78214974D01*
X152973184Y-78465894D01*
X152976499Y-78473779D01*
X153095664Y-78710713D01*
X153100020Y-78718079D01*
X153229347Y-78906250D01*
X153239601Y-78914594D01*
X153253342Y-78907448D01*
X154457978Y-77702812D01*
X154464356Y-77691132D01*
X155194408Y-77691132D01*
X155194539Y-77692965D01*
X155198790Y-77699580D01*
X156405730Y-78906520D01*
X156417939Y-78913187D01*
X156429439Y-78904497D01*
X156526831Y-78771913D01*
X156531418Y-78764685D01*
X156657962Y-78531621D01*
X156661530Y-78523827D01*
X156755271Y-78275750D01*
X156757748Y-78267544D01*
X156816954Y-78009038D01*
X156818294Y-78000577D01*
X156842031Y-77734616D01*
X156842277Y-77729677D01*
X156842666Y-77692485D01*
X156842523Y-77687519D01*
X156824362Y-77421123D01*
X156823201Y-77412649D01*
X156769419Y-77152944D01*
X156767120Y-77144709D01*
X156678588Y-76894705D01*
X156675191Y-76886854D01*
X156553550Y-76651178D01*
X156549122Y-76643866D01*
X156430031Y-76474417D01*
X156419509Y-76466037D01*
X156406121Y-76473089D01*
X155202022Y-77677188D01*
X155194408Y-77691132D01*
X154464356Y-77691132D01*
X154465592Y-77688868D01*
X154465461Y-77687035D01*
X154461210Y-77680420D01*
X153253814Y-76473024D01*
X153241804Y-76466466D01*
X153230064Y-76475434D01*
X153121935Y-76625911D01*
X153117418Y-76633196D01*
X152993325Y-76867567D01*
X152989839Y-76875395D01*
X152898700Y-77124446D01*
X152896311Y-77132670D01*
X152839812Y-77391795D01*
X152838563Y-77400250D01*
X152817754Y-77664653D01*
X152817665Y-77673204D01*
X140968500Y-77673204D01*
X140968500Y-76102500D01*
X153606584Y-76102500D01*
X153612980Y-76113770D01*
X154817188Y-77317978D01*
X154831132Y-77325592D01*
X154832965Y-77325461D01*
X154839580Y-77321210D01*
X156046604Y-76114186D01*
X156053795Y-76101017D01*
X156046473Y-76090780D01*
X155999233Y-76052115D01*
X155992261Y-76047160D01*
X155766122Y-75908582D01*
X155758552Y-75904624D01*
X155515704Y-75798022D01*
X155507644Y-75795120D01*
X155252592Y-75722467D01*
X155244214Y-75720685D01*
X154981656Y-75683318D01*
X154973111Y-75682691D01*
X154707908Y-75681302D01*
X154699374Y-75681839D01*
X154436433Y-75716456D01*
X154428035Y-75718149D01*
X154172238Y-75788127D01*
X154164143Y-75790946D01*
X153920199Y-75894997D01*
X153912577Y-75898881D01*
X153685013Y-76035075D01*
X153677981Y-76039962D01*
X153615053Y-76090377D01*
X153606584Y-76102500D01*
X140968500Y-76102500D01*
X140968500Y-74295000D01*
X147041496Y-74295000D01*
X147061458Y-74484928D01*
X147120473Y-74666556D01*
X147123776Y-74672278D01*
X147123777Y-74672279D01*
X147132899Y-74688079D01*
X147215960Y-74831944D01*
X147343747Y-74973866D01*
X147498248Y-75086118D01*
X147504276Y-75088802D01*
X147504278Y-75088803D01*
X147666681Y-75161109D01*
X147672712Y-75163794D01*
X147766113Y-75183647D01*
X147853056Y-75202128D01*
X147853061Y-75202128D01*
X147859513Y-75203500D01*
X148050487Y-75203500D01*
X148056939Y-75202128D01*
X148056944Y-75202128D01*
X148143887Y-75183647D01*
X148237288Y-75163794D01*
X148243319Y-75161109D01*
X148405722Y-75088803D01*
X148405724Y-75088802D01*
X148411752Y-75086118D01*
X148566253Y-74973866D01*
X148694040Y-74831944D01*
X148777101Y-74688079D01*
X148786223Y-74672279D01*
X148786224Y-74672278D01*
X148789527Y-74666556D01*
X148848542Y-74484928D01*
X148868504Y-74295000D01*
X148853377Y-74151076D01*
X148849232Y-74111635D01*
X148849232Y-74111633D01*
X148848542Y-74105072D01*
X148789527Y-73923444D01*
X148780593Y-73907969D01*
X148697341Y-73763774D01*
X148694040Y-73758056D01*
X148620863Y-73676785D01*
X148590147Y-73612779D01*
X148588500Y-73592476D01*
X148588500Y-72120000D01*
X150806502Y-72120000D01*
X150826457Y-72348087D01*
X150827881Y-72353400D01*
X150827881Y-72353402D01*
X150850341Y-72437221D01*
X150885716Y-72569243D01*
X150888039Y-72574224D01*
X150888039Y-72574225D01*
X150980151Y-72771762D01*
X150980154Y-72771767D01*
X150982477Y-72776749D01*
X151113802Y-72964300D01*
X151272642Y-73123140D01*
X151306668Y-73185452D01*
X151301603Y-73256267D01*
X151259056Y-73313103D01*
X151227777Y-73330216D01*
X151181362Y-73347617D01*
X151131705Y-73366232D01*
X151131704Y-73366233D01*
X151123295Y-73369385D01*
X151006739Y-73456739D01*
X150919385Y-73573295D01*
X150868255Y-73709684D01*
X150861500Y-73771866D01*
X150861500Y-75468134D01*
X150868255Y-75530316D01*
X150919385Y-75666705D01*
X151006739Y-75783261D01*
X151123295Y-75870615D01*
X151259684Y-75921745D01*
X151321866Y-75928500D01*
X152918134Y-75928500D01*
X152980316Y-75921745D01*
X153116705Y-75870615D01*
X153233261Y-75783261D01*
X153320615Y-75666705D01*
X153371745Y-75530316D01*
X153378500Y-75468134D01*
X153378500Y-73771866D01*
X153371745Y-73709684D01*
X153320615Y-73573295D01*
X153233261Y-73456739D01*
X153116705Y-73369385D01*
X153108296Y-73366233D01*
X153108295Y-73366232D01*
X153058638Y-73347617D01*
X153012223Y-73330217D01*
X152955459Y-73287576D01*
X152930759Y-73221015D01*
X152945966Y-73151666D01*
X152967358Y-73123140D01*
X153126198Y-72964300D01*
X153257523Y-72776749D01*
X153259846Y-72771767D01*
X153259849Y-72771762D01*
X153351961Y-72574225D01*
X153351961Y-72574224D01*
X153354284Y-72569243D01*
X153389660Y-72437221D01*
X153412119Y-72353402D01*
X153412119Y-72353400D01*
X153413543Y-72348087D01*
X153433498Y-72120000D01*
X153413543Y-71891913D01*
X153409971Y-71878582D01*
X153355707Y-71676067D01*
X153355706Y-71676065D01*
X153354284Y-71670757D01*
X153345860Y-71652691D01*
X153259849Y-71468238D01*
X153259846Y-71468233D01*
X153257523Y-71463251D01*
X153126198Y-71275700D01*
X153059593Y-71209095D01*
X153025567Y-71146783D01*
X153030632Y-71075968D01*
X153059593Y-71030905D01*
X153126198Y-70964300D01*
X153257523Y-70776749D01*
X153259846Y-70771767D01*
X153259849Y-70771762D01*
X153351961Y-70574225D01*
X153351961Y-70574224D01*
X153354284Y-70569243D01*
X153357422Y-70557534D01*
X153412119Y-70353402D01*
X153412119Y-70353400D01*
X153413543Y-70348087D01*
X153433498Y-70120000D01*
X153413543Y-69891913D01*
X153411023Y-69882509D01*
X153355707Y-69676067D01*
X153355706Y-69676065D01*
X153354284Y-69670757D01*
X153349302Y-69660072D01*
X153259849Y-69468238D01*
X153259846Y-69468233D01*
X153257523Y-69463251D01*
X153148922Y-69308153D01*
X153129357Y-69280211D01*
X153129355Y-69280208D01*
X153126198Y-69275700D01*
X152964300Y-69113802D01*
X152959792Y-69110645D01*
X152959789Y-69110643D01*
X152781253Y-68985631D01*
X152776749Y-68982477D01*
X152771765Y-68980153D01*
X152769472Y-68978829D01*
X152720479Y-68927447D01*
X152707043Y-68857733D01*
X152733429Y-68791822D01*
X152769472Y-68760591D01*
X152781002Y-68753934D01*
X152833048Y-68717491D01*
X152841424Y-68707012D01*
X152834356Y-68693566D01*
X152132812Y-67992022D01*
X152118868Y-67984408D01*
X152117035Y-67984539D01*
X152110420Y-67988790D01*
X151404923Y-68694287D01*
X151398493Y-68706062D01*
X151407789Y-68718077D01*
X151458998Y-68753934D01*
X151470528Y-68760591D01*
X151519521Y-68811973D01*
X151532958Y-68881687D01*
X151506571Y-68947598D01*
X151470528Y-68978829D01*
X151468235Y-68980153D01*
X151463251Y-68982477D01*
X151458747Y-68985631D01*
X151280211Y-69110643D01*
X151280208Y-69110645D01*
X151275700Y-69113802D01*
X151113802Y-69275700D01*
X151110645Y-69280208D01*
X151110643Y-69280211D01*
X151091078Y-69308153D01*
X150982477Y-69463251D01*
X150980154Y-69468233D01*
X150980151Y-69468238D01*
X150890698Y-69660072D01*
X150885716Y-69670757D01*
X150884294Y-69676065D01*
X150884293Y-69676067D01*
X150828977Y-69882509D01*
X150826457Y-69891913D01*
X150806502Y-70120000D01*
X150826457Y-70348087D01*
X150827881Y-70353400D01*
X150827881Y-70353402D01*
X150882579Y-70557534D01*
X150885716Y-70569243D01*
X150888039Y-70574224D01*
X150888039Y-70574225D01*
X150980151Y-70771762D01*
X150980154Y-70771767D01*
X150982477Y-70776749D01*
X151113802Y-70964300D01*
X151180407Y-71030905D01*
X151214433Y-71093217D01*
X151209368Y-71164032D01*
X151180407Y-71209095D01*
X151113802Y-71275700D01*
X150982477Y-71463251D01*
X150980154Y-71468233D01*
X150980151Y-71468238D01*
X150894140Y-71652691D01*
X150885716Y-71670757D01*
X150884294Y-71676065D01*
X150884293Y-71676067D01*
X150830029Y-71878582D01*
X150826457Y-71891913D01*
X150806502Y-72120000D01*
X148588500Y-72120000D01*
X148588500Y-71187524D01*
X148608502Y-71119403D01*
X148620858Y-71103221D01*
X148694040Y-71021944D01*
X148789527Y-70856556D01*
X148848542Y-70674928D01*
X148851814Y-70643803D01*
X148867814Y-70491565D01*
X148868504Y-70485000D01*
X148858198Y-70386944D01*
X148849232Y-70301635D01*
X148849232Y-70301633D01*
X148848542Y-70295072D01*
X148789527Y-70113444D01*
X148769494Y-70078745D01*
X148697341Y-69953774D01*
X148694040Y-69948056D01*
X148648744Y-69897749D01*
X148570675Y-69811045D01*
X148570674Y-69811044D01*
X148566253Y-69806134D01*
X148411752Y-69693882D01*
X148405724Y-69691198D01*
X148405722Y-69691197D01*
X148243319Y-69618891D01*
X148243318Y-69618891D01*
X148237288Y-69616206D01*
X148124721Y-69592279D01*
X148056944Y-69577872D01*
X148056939Y-69577872D01*
X148050487Y-69576500D01*
X147859513Y-69576500D01*
X147853061Y-69577872D01*
X147853056Y-69577872D01*
X147785279Y-69592279D01*
X147672712Y-69616206D01*
X147666682Y-69618891D01*
X147666681Y-69618891D01*
X147504278Y-69691197D01*
X147504276Y-69691198D01*
X147498248Y-69693882D01*
X147343747Y-69806134D01*
X147339326Y-69811044D01*
X147339325Y-69811045D01*
X147261257Y-69897749D01*
X147215960Y-69948056D01*
X147212659Y-69953774D01*
X147140507Y-70078745D01*
X147120473Y-70113444D01*
X147061458Y-70295072D01*
X147060768Y-70301633D01*
X147060768Y-70301635D01*
X147051802Y-70386944D01*
X147041496Y-70485000D01*
X147042186Y-70491565D01*
X147058187Y-70643803D01*
X147061458Y-70674928D01*
X147120473Y-70856556D01*
X147215960Y-71021944D01*
X147289137Y-71103215D01*
X147319853Y-71167221D01*
X147321500Y-71187524D01*
X147321500Y-73592476D01*
X147301498Y-73660597D01*
X147289142Y-73676779D01*
X147215960Y-73758056D01*
X147212659Y-73763774D01*
X147129408Y-73907969D01*
X147120473Y-73923444D01*
X147061458Y-74105072D01*
X147060768Y-74111633D01*
X147060768Y-74111635D01*
X147056623Y-74151076D01*
X147041496Y-74295000D01*
X140968500Y-74295000D01*
X140968500Y-73727524D01*
X140988502Y-73659403D01*
X141000858Y-73643221D01*
X141074040Y-73561944D01*
X141169527Y-73396556D01*
X141228542Y-73214928D01*
X141248504Y-73025000D01*
X141231657Y-72864705D01*
X141229232Y-72841635D01*
X141229232Y-72841633D01*
X141228542Y-72835072D01*
X141169527Y-72653444D01*
X141074040Y-72488056D01*
X140946253Y-72346134D01*
X140791752Y-72233882D01*
X140785724Y-72231198D01*
X140785722Y-72231197D01*
X140623319Y-72158891D01*
X140623318Y-72158891D01*
X140617288Y-72156206D01*
X140504721Y-72132279D01*
X140436944Y-72117872D01*
X140436939Y-72117872D01*
X140430487Y-72116500D01*
X140239513Y-72116500D01*
X140233061Y-72117872D01*
X140233056Y-72117872D01*
X140165279Y-72132279D01*
X140052712Y-72156206D01*
X140046682Y-72158891D01*
X140046681Y-72158891D01*
X139884278Y-72231197D01*
X139884276Y-72231198D01*
X139878248Y-72233882D01*
X139723747Y-72346134D01*
X139595960Y-72488056D01*
X139500473Y-72653444D01*
X139441458Y-72835072D01*
X139440768Y-72841633D01*
X139440768Y-72841635D01*
X139438343Y-72864705D01*
X139421496Y-73025000D01*
X139441458Y-73214928D01*
X139500473Y-73396556D01*
X139595960Y-73561944D01*
X139669137Y-73643215D01*
X139699853Y-73707221D01*
X139701500Y-73727524D01*
X139701500Y-78037476D01*
X139681498Y-78105597D01*
X139669142Y-78121779D01*
X139595960Y-78203056D01*
X139500473Y-78368444D01*
X139441458Y-78550072D01*
X139421496Y-78740000D01*
X123823500Y-78740000D01*
X123823500Y-75632524D01*
X123843502Y-75564403D01*
X123855858Y-75548221D01*
X123929040Y-75466944D01*
X124009940Y-75326822D01*
X124021223Y-75307279D01*
X124021224Y-75307278D01*
X124024527Y-75301556D01*
X124083542Y-75119928D01*
X124084562Y-75110229D01*
X124102814Y-74936565D01*
X124103504Y-74930000D01*
X130531496Y-74930000D01*
X130532186Y-74936565D01*
X130550439Y-75110229D01*
X130551458Y-75119928D01*
X130610473Y-75301556D01*
X130613776Y-75307278D01*
X130613777Y-75307279D01*
X130625060Y-75326822D01*
X130705960Y-75466944D01*
X130833747Y-75608866D01*
X130988248Y-75721118D01*
X130994276Y-75723802D01*
X130994278Y-75723803D01*
X131127824Y-75783261D01*
X131162712Y-75798794D01*
X131256112Y-75818647D01*
X131343056Y-75837128D01*
X131343061Y-75837128D01*
X131349513Y-75838500D01*
X131540487Y-75838500D01*
X131546939Y-75837128D01*
X131546944Y-75837128D01*
X131633888Y-75818647D01*
X131727288Y-75798794D01*
X131762176Y-75783261D01*
X131895722Y-75723803D01*
X131895724Y-75723802D01*
X131901752Y-75721118D01*
X132056253Y-75608866D01*
X132176336Y-75475500D01*
X133071496Y-75475500D01*
X133072186Y-75482065D01*
X133090709Y-75658297D01*
X133091458Y-75665428D01*
X133150473Y-75847056D01*
X133245960Y-76012444D01*
X133373747Y-76154366D01*
X133528248Y-76266618D01*
X133534276Y-76269302D01*
X133534278Y-76269303D01*
X133696681Y-76341609D01*
X133702712Y-76344294D01*
X133796112Y-76364147D01*
X133883056Y-76382628D01*
X133883061Y-76382628D01*
X133889513Y-76384000D01*
X134080487Y-76384000D01*
X134086939Y-76382628D01*
X134086944Y-76382628D01*
X134173888Y-76364147D01*
X134267288Y-76344294D01*
X134273319Y-76341609D01*
X134435722Y-76269303D01*
X134435724Y-76269302D01*
X134441752Y-76266618D01*
X134596253Y-76154366D01*
X134724040Y-76012444D01*
X134819527Y-75847056D01*
X134878542Y-75665428D01*
X134879292Y-75658297D01*
X134897814Y-75482065D01*
X134898504Y-75475500D01*
X134893881Y-75431515D01*
X134879232Y-75292135D01*
X134879232Y-75292133D01*
X134878542Y-75285572D01*
X134819527Y-75103944D01*
X134806995Y-75082237D01*
X134727341Y-74944274D01*
X134724040Y-74938556D01*
X134650863Y-74857285D01*
X134620147Y-74793279D01*
X134618500Y-74772976D01*
X134618500Y-72457524D01*
X134638502Y-72389403D01*
X134650858Y-72373221D01*
X134724040Y-72291944D01*
X134819527Y-72126556D01*
X134878542Y-71944928D01*
X134898504Y-71755000D01*
X134887751Y-71652691D01*
X134879232Y-71571635D01*
X134879232Y-71571633D01*
X134878542Y-71565072D01*
X134819527Y-71383444D01*
X134724040Y-71218056D01*
X134715972Y-71209095D01*
X134600675Y-71081045D01*
X134600674Y-71081044D01*
X134596253Y-71076134D01*
X134441752Y-70963882D01*
X134435724Y-70961198D01*
X134435722Y-70961197D01*
X134273319Y-70888891D01*
X134273318Y-70888891D01*
X134267288Y-70886206D01*
X134154712Y-70862277D01*
X134086944Y-70847872D01*
X134086939Y-70847872D01*
X134080487Y-70846500D01*
X133889513Y-70846500D01*
X133883061Y-70847872D01*
X133883056Y-70847872D01*
X133815288Y-70862277D01*
X133702712Y-70886206D01*
X133696682Y-70888891D01*
X133696681Y-70888891D01*
X133534278Y-70961197D01*
X133534276Y-70961198D01*
X133528248Y-70963882D01*
X133373747Y-71076134D01*
X133369326Y-71081044D01*
X133369325Y-71081045D01*
X133254029Y-71209095D01*
X133245960Y-71218056D01*
X133150473Y-71383444D01*
X133091458Y-71565072D01*
X133090768Y-71571633D01*
X133090768Y-71571635D01*
X133082249Y-71652691D01*
X133071496Y-71755000D01*
X133091458Y-71944928D01*
X133150473Y-72126556D01*
X133245960Y-72291944D01*
X133319137Y-72373215D01*
X133349853Y-72437221D01*
X133351500Y-72457524D01*
X133351500Y-74772976D01*
X133331498Y-74841097D01*
X133319142Y-74857279D01*
X133245960Y-74938556D01*
X133242659Y-74944274D01*
X133163006Y-75082237D01*
X133150473Y-75103944D01*
X133091458Y-75285572D01*
X133090768Y-75292133D01*
X133090768Y-75292135D01*
X133076119Y-75431515D01*
X133071496Y-75475500D01*
X132176336Y-75475500D01*
X132184040Y-75466944D01*
X132264940Y-75326822D01*
X132276223Y-75307279D01*
X132276224Y-75307278D01*
X132279527Y-75301556D01*
X132338542Y-75119928D01*
X132339562Y-75110229D01*
X132357814Y-74936565D01*
X132358504Y-74930000D01*
X132352855Y-74876250D01*
X132339232Y-74746635D01*
X132339232Y-74746633D01*
X132338542Y-74740072D01*
X132279527Y-74558444D01*
X132184040Y-74393056D01*
X132110863Y-74311785D01*
X132080147Y-74247779D01*
X132078500Y-74227476D01*
X132078500Y-71187524D01*
X132098502Y-71119403D01*
X132110858Y-71103221D01*
X132184040Y-71021944D01*
X132279527Y-70856556D01*
X132282795Y-70846500D01*
X132296235Y-70805135D01*
X132336309Y-70746530D01*
X132401706Y-70718893D01*
X132442265Y-70720825D01*
X132613056Y-70757128D01*
X132613061Y-70757128D01*
X132619513Y-70758500D01*
X132810487Y-70758500D01*
X132816939Y-70757128D01*
X132816944Y-70757128D01*
X132903887Y-70738647D01*
X132997288Y-70718794D01*
X133081706Y-70681209D01*
X133165722Y-70643803D01*
X133165724Y-70643802D01*
X133171752Y-70641118D01*
X133326253Y-70528866D01*
X133359839Y-70491565D01*
X133449621Y-70391852D01*
X133449622Y-70391851D01*
X133454040Y-70386944D01*
X133534700Y-70247237D01*
X133546223Y-70227279D01*
X133546224Y-70227278D01*
X133549527Y-70221556D01*
X133608542Y-70039928D01*
X133609600Y-70029867D01*
X133627814Y-69856565D01*
X133628504Y-69850000D01*
X141326496Y-69850000D01*
X141327186Y-69856565D01*
X141345401Y-70029867D01*
X141346458Y-70039928D01*
X141405473Y-70221556D01*
X141408776Y-70227278D01*
X141408777Y-70227279D01*
X141420300Y-70247237D01*
X141500960Y-70386944D01*
X141505378Y-70391851D01*
X141505379Y-70391852D01*
X141595161Y-70491565D01*
X141628747Y-70528866D01*
X141783248Y-70641118D01*
X141789276Y-70643802D01*
X141789278Y-70643803D01*
X141873294Y-70681209D01*
X141957712Y-70718794D01*
X142051113Y-70738647D01*
X142138056Y-70757128D01*
X142138061Y-70757128D01*
X142144513Y-70758500D01*
X142335487Y-70758500D01*
X142341939Y-70757128D01*
X142341944Y-70757128D01*
X142428887Y-70738647D01*
X142522288Y-70718794D01*
X142606706Y-70681209D01*
X142690722Y-70643803D01*
X142690724Y-70643802D01*
X142696752Y-70641118D01*
X142851253Y-70528866D01*
X142884839Y-70491565D01*
X142974621Y-70391852D01*
X142974622Y-70391851D01*
X142979040Y-70386944D01*
X143059700Y-70247237D01*
X143071223Y-70227279D01*
X143071224Y-70227278D01*
X143074527Y-70221556D01*
X143133542Y-70039928D01*
X143134600Y-70029867D01*
X143152814Y-69856565D01*
X143153504Y-69850000D01*
X143142597Y-69746226D01*
X143134232Y-69666635D01*
X143134232Y-69666633D01*
X143133542Y-69660072D01*
X143074527Y-69478444D01*
X142979040Y-69313056D01*
X142905863Y-69231785D01*
X142875147Y-69167779D01*
X142873500Y-69147476D01*
X142873500Y-67625475D01*
X150807483Y-67625475D01*
X150826472Y-67842519D01*
X150828375Y-67853312D01*
X150884764Y-68063761D01*
X150888510Y-68074053D01*
X150980586Y-68271511D01*
X150986069Y-68281006D01*
X151022509Y-68333048D01*
X151032988Y-68341424D01*
X151046434Y-68334356D01*
X151747978Y-67632812D01*
X151754356Y-67621132D01*
X152484408Y-67621132D01*
X152484539Y-67622965D01*
X152488790Y-67629580D01*
X153194287Y-68335077D01*
X153206062Y-68341507D01*
X153218077Y-68332211D01*
X153253931Y-68281006D01*
X153259414Y-68271511D01*
X153351490Y-68074053D01*
X153355236Y-68063761D01*
X153411625Y-67853312D01*
X153413528Y-67842519D01*
X153432517Y-67625475D01*
X153432517Y-67614525D01*
X153413528Y-67397481D01*
X153411625Y-67386688D01*
X153355236Y-67176239D01*
X153351490Y-67165947D01*
X153259414Y-66968489D01*
X153253931Y-66958994D01*
X153217491Y-66906952D01*
X153207012Y-66898576D01*
X153193566Y-66905644D01*
X152492022Y-67607188D01*
X152484408Y-67621132D01*
X151754356Y-67621132D01*
X151755592Y-67618868D01*
X151755461Y-67617035D01*
X151751210Y-67610420D01*
X151045713Y-66904923D01*
X151033938Y-66898493D01*
X151021923Y-66907789D01*
X150986069Y-66958994D01*
X150980586Y-66968489D01*
X150888510Y-67165947D01*
X150884764Y-67176239D01*
X150828375Y-67386688D01*
X150826472Y-67397481D01*
X150807483Y-67614525D01*
X150807483Y-67625475D01*
X142873500Y-67625475D01*
X142873500Y-66532988D01*
X151398576Y-66532988D01*
X151405644Y-66546434D01*
X152107188Y-67247978D01*
X152121132Y-67255592D01*
X152122965Y-67255461D01*
X152129580Y-67251210D01*
X152835077Y-66545713D01*
X152841507Y-66533938D01*
X152832211Y-66521923D01*
X152781006Y-66486069D01*
X152771511Y-66480586D01*
X152574053Y-66388510D01*
X152563761Y-66384764D01*
X152353312Y-66328375D01*
X152342519Y-66326472D01*
X152125475Y-66307483D01*
X152114525Y-66307483D01*
X151897481Y-66326472D01*
X151886688Y-66328375D01*
X151676239Y-66384764D01*
X151665947Y-66388510D01*
X151468489Y-66480586D01*
X151458994Y-66486069D01*
X151406952Y-66522509D01*
X151398576Y-66532988D01*
X142873500Y-66532988D01*
X142873500Y-66139654D01*
X153605618Y-66139654D01*
X153612673Y-66149627D01*
X153643679Y-66175551D01*
X153650598Y-66180579D01*
X153875272Y-66321515D01*
X153882807Y-66325556D01*
X154124520Y-66434694D01*
X154132551Y-66437680D01*
X154386832Y-66513002D01*
X154395184Y-66514869D01*
X154657340Y-66554984D01*
X154665874Y-66555700D01*
X154931045Y-66559867D01*
X154939596Y-66559418D01*
X155202883Y-66527557D01*
X155211284Y-66525955D01*
X155467824Y-66458653D01*
X155475926Y-66455926D01*
X155720949Y-66354434D01*
X155728617Y-66350628D01*
X155957598Y-66216822D01*
X155964679Y-66212009D01*
X156044655Y-66149301D01*
X156053125Y-66137442D01*
X156046608Y-66125818D01*
X154842812Y-64922022D01*
X154828868Y-64914408D01*
X154827035Y-64914539D01*
X154820420Y-64918790D01*
X153612910Y-66126300D01*
X153605618Y-66139654D01*
X142873500Y-66139654D01*
X142873500Y-64533204D01*
X152817665Y-64533204D01*
X152832932Y-64797969D01*
X152834005Y-64806470D01*
X152885065Y-65066722D01*
X152887276Y-65074974D01*
X152973184Y-65325894D01*
X152976499Y-65333779D01*
X153095664Y-65570713D01*
X153100020Y-65578079D01*
X153229347Y-65766250D01*
X153239601Y-65774594D01*
X153253342Y-65767448D01*
X154457978Y-64562812D01*
X154464356Y-64551132D01*
X155194408Y-64551132D01*
X155194539Y-64552965D01*
X155198790Y-64559580D01*
X156405730Y-65766520D01*
X156417939Y-65773187D01*
X156429439Y-65764497D01*
X156526831Y-65631913D01*
X156531418Y-65624685D01*
X156657962Y-65391621D01*
X156661530Y-65383827D01*
X156755271Y-65135750D01*
X156757748Y-65127544D01*
X156816954Y-64869038D01*
X156818294Y-64860577D01*
X156842031Y-64594616D01*
X156842277Y-64589677D01*
X156842666Y-64552485D01*
X156842523Y-64547519D01*
X156824362Y-64281123D01*
X156823201Y-64272649D01*
X156769419Y-64012944D01*
X156767120Y-64004709D01*
X156678588Y-63754705D01*
X156675191Y-63746854D01*
X156553550Y-63511178D01*
X156549122Y-63503866D01*
X156430031Y-63334417D01*
X156419509Y-63326037D01*
X156406121Y-63333089D01*
X155202022Y-64537188D01*
X155194408Y-64551132D01*
X154464356Y-64551132D01*
X154465592Y-64548868D01*
X154465461Y-64547035D01*
X154461210Y-64540420D01*
X153253814Y-63333024D01*
X153241804Y-63326466D01*
X153230064Y-63335434D01*
X153121935Y-63485911D01*
X153117418Y-63493196D01*
X152993325Y-63727567D01*
X152989839Y-63735395D01*
X152898700Y-63984446D01*
X152896311Y-63992670D01*
X152839812Y-64251795D01*
X152838563Y-64260250D01*
X152817754Y-64524653D01*
X152817665Y-64533204D01*
X142873500Y-64533204D01*
X142873500Y-62962500D01*
X153606584Y-62962500D01*
X153612980Y-62973770D01*
X154817188Y-64177978D01*
X154831132Y-64185592D01*
X154832965Y-64185461D01*
X154839580Y-64181210D01*
X156046604Y-62974186D01*
X156053795Y-62961017D01*
X156046473Y-62950780D01*
X155999233Y-62912115D01*
X155992261Y-62907160D01*
X155766122Y-62768582D01*
X155758552Y-62764624D01*
X155515704Y-62658022D01*
X155507644Y-62655120D01*
X155252592Y-62582467D01*
X155244214Y-62580685D01*
X154981656Y-62543318D01*
X154973111Y-62542691D01*
X154707908Y-62541302D01*
X154699374Y-62541839D01*
X154436433Y-62576456D01*
X154428035Y-62578149D01*
X154172238Y-62648127D01*
X154164143Y-62650946D01*
X153920199Y-62754997D01*
X153912577Y-62758881D01*
X153685013Y-62895075D01*
X153677981Y-62899962D01*
X153615053Y-62950377D01*
X153606584Y-62962500D01*
X142873500Y-62962500D01*
X142873500Y-62932524D01*
X142893502Y-62864403D01*
X142905858Y-62848221D01*
X142979040Y-62766944D01*
X143074527Y-62601556D01*
X143133542Y-62419928D01*
X143153504Y-62230000D01*
X143148485Y-62182251D01*
X143134232Y-62046635D01*
X143134232Y-62046633D01*
X143133542Y-62040072D01*
X143074527Y-61858444D01*
X142979040Y-61693056D01*
X142851253Y-61551134D01*
X142696752Y-61438882D01*
X142690724Y-61436198D01*
X142690722Y-61436197D01*
X142528319Y-61363891D01*
X142528318Y-61363891D01*
X142522288Y-61361206D01*
X142428887Y-61341353D01*
X142341944Y-61322872D01*
X142341939Y-61322872D01*
X142335487Y-61321500D01*
X142144513Y-61321500D01*
X142138061Y-61322872D01*
X142138056Y-61322872D01*
X142051113Y-61341353D01*
X141957712Y-61361206D01*
X141951682Y-61363891D01*
X141951681Y-61363891D01*
X141789278Y-61436197D01*
X141789276Y-61436198D01*
X141783248Y-61438882D01*
X141628747Y-61551134D01*
X141500960Y-61693056D01*
X141405473Y-61858444D01*
X141346458Y-62040072D01*
X141345768Y-62046633D01*
X141345768Y-62046635D01*
X141331515Y-62182251D01*
X141326496Y-62230000D01*
X141346458Y-62419928D01*
X141405473Y-62601556D01*
X141500960Y-62766944D01*
X141574137Y-62848215D01*
X141604853Y-62912221D01*
X141606500Y-62932524D01*
X141606500Y-69147476D01*
X141586498Y-69215597D01*
X141574142Y-69231779D01*
X141500960Y-69313056D01*
X141405473Y-69478444D01*
X141346458Y-69660072D01*
X141345768Y-69666633D01*
X141345768Y-69666635D01*
X141337403Y-69746226D01*
X141326496Y-69850000D01*
X133628504Y-69850000D01*
X133617597Y-69746226D01*
X133609232Y-69666635D01*
X133609232Y-69666633D01*
X133608542Y-69660072D01*
X133549527Y-69478444D01*
X133454040Y-69313056D01*
X133380863Y-69231785D01*
X133350147Y-69167779D01*
X133348500Y-69147476D01*
X133348500Y-57852524D01*
X133368502Y-57784403D01*
X133380858Y-57768221D01*
X133454040Y-57686944D01*
X133549527Y-57521556D01*
X133608542Y-57339928D01*
X133628504Y-57150000D01*
X133608542Y-56960072D01*
X133549527Y-56778444D01*
X133454040Y-56613056D01*
X133326253Y-56471134D01*
X133171752Y-56358882D01*
X133165724Y-56356198D01*
X133165722Y-56356197D01*
X133003319Y-56283891D01*
X133003318Y-56283891D01*
X132997288Y-56281206D01*
X132903887Y-56261353D01*
X132816944Y-56242872D01*
X132816939Y-56242872D01*
X132810487Y-56241500D01*
X132619513Y-56241500D01*
X132613061Y-56242872D01*
X132613056Y-56242872D01*
X132526113Y-56261353D01*
X132432712Y-56281206D01*
X132426682Y-56283891D01*
X132426681Y-56283891D01*
X132264278Y-56356197D01*
X132264276Y-56356198D01*
X132258248Y-56358882D01*
X132103747Y-56471134D01*
X131975960Y-56613056D01*
X131880473Y-56778444D01*
X131821458Y-56960072D01*
X131801496Y-57150000D01*
X131821458Y-57339928D01*
X131880473Y-57521556D01*
X131975960Y-57686944D01*
X132049137Y-57768215D01*
X132079853Y-57832221D01*
X132081500Y-57852524D01*
X132081500Y-69147476D01*
X132061498Y-69215597D01*
X132049142Y-69231779D01*
X131975960Y-69313056D01*
X131880473Y-69478444D01*
X131878433Y-69484724D01*
X131878432Y-69484725D01*
X131863765Y-69529865D01*
X131823691Y-69588470D01*
X131758294Y-69616107D01*
X131717735Y-69614175D01*
X131546944Y-69577872D01*
X131546939Y-69577872D01*
X131540487Y-69576500D01*
X131349513Y-69576500D01*
X131343061Y-69577872D01*
X131343056Y-69577872D01*
X131275279Y-69592279D01*
X131162712Y-69616206D01*
X131156682Y-69618891D01*
X131156681Y-69618891D01*
X130994278Y-69691197D01*
X130994276Y-69691198D01*
X130988248Y-69693882D01*
X130833747Y-69806134D01*
X130829326Y-69811044D01*
X130829325Y-69811045D01*
X130751257Y-69897749D01*
X130705960Y-69948056D01*
X130702659Y-69953774D01*
X130630507Y-70078745D01*
X130610473Y-70113444D01*
X130551458Y-70295072D01*
X130550768Y-70301633D01*
X130550768Y-70301635D01*
X130541802Y-70386944D01*
X130531496Y-70485000D01*
X130532186Y-70491565D01*
X130548187Y-70643803D01*
X130551458Y-70674928D01*
X130610473Y-70856556D01*
X130705960Y-71021944D01*
X130779137Y-71103215D01*
X130809853Y-71167221D01*
X130811500Y-71187524D01*
X130811500Y-74227476D01*
X130791498Y-74295597D01*
X130779142Y-74311779D01*
X130705960Y-74393056D01*
X130610473Y-74558444D01*
X130551458Y-74740072D01*
X130550768Y-74746633D01*
X130550768Y-74746635D01*
X130537145Y-74876250D01*
X130531496Y-74930000D01*
X124103504Y-74930000D01*
X124097855Y-74876250D01*
X124084232Y-74746635D01*
X124084232Y-74746633D01*
X124083542Y-74740072D01*
X124024527Y-74558444D01*
X123929040Y-74393056D01*
X123801253Y-74251134D01*
X123646752Y-74138882D01*
X123640724Y-74136198D01*
X123640722Y-74136197D01*
X123478319Y-74063891D01*
X123478318Y-74063891D01*
X123472288Y-74061206D01*
X123378887Y-74041353D01*
X123291944Y-74022872D01*
X123291939Y-74022872D01*
X123285487Y-74021500D01*
X123094513Y-74021500D01*
X123088061Y-74022872D01*
X123088056Y-74022872D01*
X123001113Y-74041353D01*
X122907712Y-74061206D01*
X122901682Y-74063891D01*
X122901681Y-74063891D01*
X122809187Y-74105072D01*
X122733248Y-74138882D01*
X122732323Y-74136804D01*
X122673512Y-74151076D01*
X122606419Y-74127859D01*
X122562528Y-74072055D01*
X122553500Y-74025218D01*
X122553500Y-69917524D01*
X122573502Y-69849403D01*
X122585858Y-69833221D01*
X122659040Y-69751944D01*
X122738581Y-69614175D01*
X122751223Y-69592279D01*
X122751224Y-69592278D01*
X122754527Y-69586556D01*
X122813542Y-69404928D01*
X122833504Y-69215000D01*
X122827921Y-69161877D01*
X122814232Y-69031635D01*
X122814232Y-69031633D01*
X122813542Y-69025072D01*
X122754527Y-68843444D01*
X122733199Y-68806502D01*
X122668411Y-68694287D01*
X122659040Y-68678056D01*
X122610933Y-68624627D01*
X122535675Y-68541045D01*
X122535674Y-68541044D01*
X122531253Y-68536134D01*
X122376752Y-68423882D01*
X122370724Y-68421198D01*
X122370722Y-68421197D01*
X122208319Y-68348891D01*
X122208318Y-68348891D01*
X122202288Y-68346206D01*
X122108888Y-68326353D01*
X122021944Y-68307872D01*
X122021939Y-68307872D01*
X122015487Y-68306500D01*
X121824513Y-68306500D01*
X121818061Y-68307872D01*
X121818056Y-68307872D01*
X121731112Y-68326353D01*
X121637712Y-68346206D01*
X121631682Y-68348891D01*
X121631681Y-68348891D01*
X121469278Y-68421197D01*
X121469276Y-68421198D01*
X121463248Y-68423882D01*
X121308747Y-68536134D01*
X121304326Y-68541044D01*
X121304325Y-68541045D01*
X121229068Y-68624627D01*
X121180960Y-68678056D01*
X121171589Y-68694287D01*
X121106802Y-68806502D01*
X121085473Y-68843444D01*
X121026458Y-69025072D01*
X121025768Y-69031633D01*
X121025768Y-69031635D01*
X121012079Y-69161877D01*
X121006496Y-69215000D01*
X121026458Y-69404928D01*
X121085473Y-69586556D01*
X121088776Y-69592278D01*
X121088777Y-69592279D01*
X121101419Y-69614175D01*
X121180960Y-69751944D01*
X121254137Y-69833215D01*
X121284853Y-69897221D01*
X121286500Y-69917524D01*
X121286500Y-70720500D01*
X121266498Y-70788621D01*
X121212842Y-70835114D01*
X121160500Y-70846500D01*
X121100013Y-70846500D01*
X121093561Y-70847872D01*
X121093556Y-70847872D01*
X121047924Y-70857572D01*
X120977133Y-70852170D01*
X120920501Y-70809353D01*
X120896007Y-70742716D01*
X120901894Y-70695390D01*
X120906502Y-70681209D01*
X120906504Y-70681202D01*
X120908542Y-70674928D01*
X120911814Y-70643803D01*
X120927814Y-70491565D01*
X120928504Y-70485000D01*
X120918198Y-70386944D01*
X120909232Y-70301635D01*
X120909232Y-70301633D01*
X120908542Y-70295072D01*
X120849527Y-70113444D01*
X120829494Y-70078745D01*
X120757341Y-69953774D01*
X120754040Y-69948056D01*
X120708744Y-69897749D01*
X120630675Y-69811045D01*
X120630674Y-69811044D01*
X120626253Y-69806134D01*
X120471752Y-69693882D01*
X120465724Y-69691198D01*
X120465722Y-69691197D01*
X120303319Y-69618891D01*
X120303318Y-69618891D01*
X120297288Y-69616206D01*
X120184721Y-69592279D01*
X120116944Y-69577872D01*
X120116939Y-69577872D01*
X120110487Y-69576500D01*
X119919513Y-69576500D01*
X119913061Y-69577872D01*
X119913056Y-69577872D01*
X119845279Y-69592279D01*
X119732712Y-69616206D01*
X119726682Y-69618891D01*
X119726681Y-69618891D01*
X119564278Y-69691197D01*
X119564276Y-69691198D01*
X119558248Y-69693882D01*
X119403747Y-69806134D01*
X119399326Y-69811044D01*
X119399325Y-69811045D01*
X119321257Y-69897749D01*
X119275960Y-69948056D01*
X119272659Y-69953774D01*
X119200507Y-70078745D01*
X119180473Y-70113444D01*
X119121458Y-70295072D01*
X119120768Y-70301633D01*
X119120768Y-70301635D01*
X119111802Y-70386944D01*
X119101496Y-70485000D01*
X119102186Y-70491565D01*
X119118187Y-70643803D01*
X119121458Y-70674928D01*
X119180473Y-70856556D01*
X119275960Y-71021944D01*
X119349137Y-71103215D01*
X119379853Y-71167221D01*
X119381500Y-71187524D01*
X119381500Y-78672476D01*
X119361498Y-78740597D01*
X119349142Y-78756779D01*
X119275960Y-78838056D01*
X119180473Y-79003444D01*
X119121458Y-79185072D01*
X119101496Y-79375000D01*
X108863504Y-79375000D01*
X108843542Y-79185072D01*
X108784527Y-79003444D01*
X108689040Y-78838056D01*
X108615863Y-78756785D01*
X108585147Y-78692779D01*
X108583500Y-78672476D01*
X108583500Y-69282524D01*
X108603327Y-69215000D01*
X112116496Y-69215000D01*
X112136458Y-69404928D01*
X112195473Y-69586556D01*
X112198776Y-69592278D01*
X112198777Y-69592279D01*
X112211419Y-69614175D01*
X112290960Y-69751944D01*
X112295375Y-69756847D01*
X112295379Y-69756852D01*
X112405750Y-69879431D01*
X112418747Y-69893866D01*
X112573248Y-70006118D01*
X112579276Y-70008802D01*
X112579278Y-70008803D01*
X112741681Y-70081109D01*
X112747712Y-70083794D01*
X112841112Y-70103647D01*
X112928056Y-70122128D01*
X112928061Y-70122128D01*
X112934513Y-70123500D01*
X113125487Y-70123500D01*
X113131939Y-70122128D01*
X113131944Y-70122128D01*
X113218888Y-70103647D01*
X113312288Y-70083794D01*
X113318319Y-70081109D01*
X113480722Y-70008803D01*
X113480724Y-70008802D01*
X113486752Y-70006118D01*
X113641253Y-69893866D01*
X113654250Y-69879431D01*
X113764621Y-69756852D01*
X113764625Y-69756847D01*
X113769040Y-69751944D01*
X113848581Y-69614175D01*
X113861223Y-69592279D01*
X113861224Y-69592278D01*
X113864527Y-69586556D01*
X113923542Y-69404928D01*
X113943504Y-69215000D01*
X113937921Y-69161877D01*
X113924232Y-69031635D01*
X113924232Y-69031633D01*
X113923542Y-69025072D01*
X113864527Y-68843444D01*
X113843199Y-68806502D01*
X113778411Y-68694287D01*
X113769040Y-68678056D01*
X113695863Y-68596785D01*
X113665147Y-68532779D01*
X113663500Y-68512476D01*
X113663500Y-66675000D01*
X119101496Y-66675000D01*
X119102186Y-66681565D01*
X119113010Y-66784546D01*
X119121458Y-66864928D01*
X119180473Y-67046556D01*
X119183776Y-67052278D01*
X119183777Y-67052279D01*
X119212022Y-67101200D01*
X119275960Y-67211944D01*
X119403747Y-67353866D01*
X119558248Y-67466118D01*
X119564276Y-67468802D01*
X119564278Y-67468803D01*
X119726681Y-67541109D01*
X119732712Y-67543794D01*
X119826112Y-67563647D01*
X119913056Y-67582128D01*
X119913061Y-67582128D01*
X119919513Y-67583500D01*
X120110487Y-67583500D01*
X120116939Y-67582128D01*
X120116944Y-67582128D01*
X120203888Y-67563647D01*
X120297288Y-67543794D01*
X120303319Y-67541109D01*
X120465722Y-67468803D01*
X120465724Y-67468802D01*
X120471752Y-67466118D01*
X120626253Y-67353866D01*
X120754040Y-67211944D01*
X120817978Y-67101200D01*
X120846223Y-67052279D01*
X120846224Y-67052278D01*
X120849527Y-67046556D01*
X120908542Y-66864928D01*
X120916991Y-66784546D01*
X120927814Y-66681565D01*
X120928504Y-66675000D01*
X120908542Y-66485072D01*
X120895254Y-66444176D01*
X120893226Y-66373209D01*
X120929889Y-66312411D01*
X120993601Y-66281085D01*
X121041284Y-66281993D01*
X121183056Y-66312128D01*
X121183061Y-66312128D01*
X121189513Y-66313500D01*
X121380487Y-66313500D01*
X121386939Y-66312128D01*
X121386944Y-66312128D01*
X121473888Y-66293647D01*
X121567288Y-66273794D01*
X121695250Y-66216822D01*
X121735722Y-66198803D01*
X121735724Y-66198802D01*
X121741752Y-66196118D01*
X121896253Y-66083866D01*
X122024040Y-65941944D01*
X122119527Y-65776556D01*
X122178542Y-65594928D01*
X122198504Y-65405000D01*
X122196279Y-65383827D01*
X122179232Y-65221635D01*
X122179232Y-65221633D01*
X122178542Y-65215072D01*
X122119527Y-65033444D01*
X122024040Y-64868056D01*
X121950863Y-64786785D01*
X121920147Y-64722779D01*
X121918500Y-64702476D01*
X121918500Y-63567524D01*
X121938502Y-63499403D01*
X121950858Y-63483221D01*
X122024040Y-63401944D01*
X122119527Y-63236556D01*
X122178542Y-63054928D01*
X122181814Y-63023803D01*
X122197814Y-62871565D01*
X122198504Y-62865000D01*
X122184960Y-62736133D01*
X122179232Y-62681635D01*
X122179232Y-62681633D01*
X122178542Y-62675072D01*
X122119527Y-62493444D01*
X122112033Y-62480463D01*
X122027341Y-62333774D01*
X122024040Y-62328056D01*
X121896253Y-62186134D01*
X121741752Y-62073882D01*
X121735724Y-62071198D01*
X121735722Y-62071197D01*
X121573319Y-61998891D01*
X121573318Y-61998891D01*
X121567288Y-61996206D01*
X121473888Y-61976353D01*
X121386944Y-61957872D01*
X121386939Y-61957872D01*
X121380487Y-61956500D01*
X121189513Y-61956500D01*
X121183061Y-61957872D01*
X121183056Y-61957872D01*
X121096112Y-61976353D01*
X121002712Y-61996206D01*
X120996682Y-61998891D01*
X120996681Y-61998891D01*
X120834278Y-62071197D01*
X120834276Y-62071198D01*
X120828248Y-62073882D01*
X120673747Y-62186134D01*
X120545960Y-62328056D01*
X120542659Y-62333774D01*
X120457968Y-62480463D01*
X120450473Y-62493444D01*
X120391458Y-62675072D01*
X120390768Y-62681633D01*
X120390768Y-62681635D01*
X120385040Y-62736133D01*
X120371496Y-62865000D01*
X120372186Y-62871565D01*
X120388187Y-63023803D01*
X120391458Y-63054928D01*
X120450473Y-63236556D01*
X120545960Y-63401944D01*
X120619137Y-63483215D01*
X120649853Y-63547221D01*
X120651500Y-63567524D01*
X120651500Y-64500218D01*
X120631498Y-64568339D01*
X120577842Y-64614832D01*
X120507568Y-64624936D01*
X120472270Y-64612718D01*
X120471752Y-64613882D01*
X120303319Y-64538891D01*
X120303318Y-64538891D01*
X120297288Y-64536206D01*
X120203888Y-64516353D01*
X120116944Y-64497872D01*
X120116939Y-64497872D01*
X120110487Y-64496500D01*
X119919513Y-64496500D01*
X119913061Y-64497872D01*
X119913056Y-64497872D01*
X119826112Y-64516353D01*
X119732712Y-64536206D01*
X119726682Y-64538891D01*
X119726681Y-64538891D01*
X119564278Y-64611197D01*
X119564276Y-64611198D01*
X119558248Y-64613882D01*
X119552907Y-64617762D01*
X119552906Y-64617763D01*
X119502843Y-64654136D01*
X119403747Y-64726134D01*
X119399326Y-64731044D01*
X119399325Y-64731045D01*
X119339067Y-64797969D01*
X119275960Y-64868056D01*
X119180473Y-65033444D01*
X119121458Y-65215072D01*
X119120768Y-65221633D01*
X119120768Y-65221635D01*
X119103721Y-65383827D01*
X119101496Y-65405000D01*
X119121458Y-65594928D01*
X119180473Y-65776556D01*
X119275960Y-65941944D01*
X119288338Y-65955691D01*
X119319054Y-66019697D01*
X119310290Y-66090150D01*
X119288339Y-66124307D01*
X119275960Y-66138056D01*
X119180473Y-66303444D01*
X119121458Y-66485072D01*
X119101496Y-66675000D01*
X113663500Y-66675000D01*
X113663500Y-66107524D01*
X113683502Y-66039403D01*
X113695858Y-66023221D01*
X113769040Y-65941944D01*
X113864527Y-65776556D01*
X113923542Y-65594928D01*
X113943504Y-65405000D01*
X113941279Y-65383827D01*
X113924232Y-65221635D01*
X113924232Y-65221633D01*
X113923542Y-65215072D01*
X113864527Y-65033444D01*
X113769040Y-64868056D01*
X113705934Y-64797969D01*
X113645675Y-64731045D01*
X113645674Y-64731044D01*
X113641253Y-64726134D01*
X113542157Y-64654136D01*
X113492094Y-64617763D01*
X113492093Y-64617762D01*
X113486752Y-64613882D01*
X113480724Y-64611198D01*
X113480722Y-64611197D01*
X113318319Y-64538891D01*
X113318318Y-64538891D01*
X113312288Y-64536206D01*
X113218888Y-64516353D01*
X113131944Y-64497872D01*
X113131939Y-64497872D01*
X113125487Y-64496500D01*
X112934513Y-64496500D01*
X112928061Y-64497872D01*
X112928056Y-64497872D01*
X112841112Y-64516353D01*
X112747712Y-64536206D01*
X112741682Y-64538891D01*
X112741681Y-64538891D01*
X112579278Y-64611197D01*
X112579276Y-64611198D01*
X112573248Y-64613882D01*
X112567907Y-64617762D01*
X112567906Y-64617763D01*
X112517843Y-64654136D01*
X112418747Y-64726134D01*
X112414326Y-64731044D01*
X112414325Y-64731045D01*
X112354067Y-64797969D01*
X112290960Y-64868056D01*
X112195473Y-65033444D01*
X112136458Y-65215072D01*
X112135768Y-65221633D01*
X112135768Y-65221635D01*
X112118721Y-65383827D01*
X112116496Y-65405000D01*
X112136458Y-65594928D01*
X112195473Y-65776556D01*
X112290960Y-65941944D01*
X112364137Y-66023215D01*
X112394853Y-66087221D01*
X112396500Y-66107524D01*
X112396500Y-68512476D01*
X112376498Y-68580597D01*
X112364142Y-68596779D01*
X112290960Y-68678056D01*
X112281589Y-68694287D01*
X112216802Y-68806502D01*
X112195473Y-68843444D01*
X112136458Y-69025072D01*
X112135768Y-69031633D01*
X112135768Y-69031635D01*
X112122079Y-69161877D01*
X112116496Y-69215000D01*
X108603327Y-69215000D01*
X108603502Y-69214403D01*
X108615858Y-69198221D01*
X108689040Y-69116944D01*
X108784527Y-68951556D01*
X108843542Y-68769928D01*
X108844524Y-68760591D01*
X108862814Y-68586565D01*
X108863504Y-68580000D01*
X108856407Y-68512476D01*
X108844232Y-68396635D01*
X108844232Y-68396633D01*
X108843542Y-68390072D01*
X108784527Y-68208444D01*
X108689040Y-68043056D01*
X108561253Y-67901134D01*
X108406752Y-67788882D01*
X108400724Y-67786198D01*
X108400722Y-67786197D01*
X108238319Y-67713891D01*
X108238318Y-67713891D01*
X108232288Y-67711206D01*
X108138888Y-67691353D01*
X108051944Y-67672872D01*
X108051939Y-67672872D01*
X108045487Y-67671500D01*
X107854513Y-67671500D01*
X107848061Y-67672872D01*
X107848056Y-67672872D01*
X107761112Y-67691353D01*
X107667712Y-67711206D01*
X107661682Y-67713891D01*
X107661681Y-67713891D01*
X107499278Y-67786197D01*
X107499276Y-67786198D01*
X107493248Y-67788882D01*
X107338747Y-67901134D01*
X107210960Y-68043056D01*
X107115473Y-68208444D01*
X107056458Y-68390072D01*
X107055768Y-68396633D01*
X107055768Y-68396635D01*
X107043593Y-68512476D01*
X107036496Y-68580000D01*
X107037186Y-68586565D01*
X107055477Y-68760591D01*
X107056458Y-68769928D01*
X107115473Y-68951556D01*
X107210960Y-69116944D01*
X107284137Y-69198215D01*
X107314853Y-69262221D01*
X107316500Y-69282524D01*
X107316500Y-78672476D01*
X107296498Y-78740597D01*
X107284142Y-78756779D01*
X107210960Y-78838056D01*
X107115473Y-79003444D01*
X107056458Y-79185072D01*
X107036496Y-79375000D01*
X94488500Y-79375000D01*
X94488500Y-75249654D01*
X102915618Y-75249654D01*
X102922673Y-75259627D01*
X102953679Y-75285551D01*
X102960598Y-75290579D01*
X103185272Y-75431515D01*
X103192807Y-75435556D01*
X103434520Y-75544694D01*
X103442551Y-75547680D01*
X103696832Y-75623002D01*
X103705184Y-75624869D01*
X103967340Y-75664984D01*
X103975874Y-75665700D01*
X104241045Y-75669867D01*
X104249596Y-75669418D01*
X104512883Y-75637557D01*
X104521284Y-75635955D01*
X104777824Y-75568653D01*
X104785926Y-75565926D01*
X105030949Y-75464434D01*
X105038617Y-75460628D01*
X105267598Y-75326822D01*
X105274679Y-75322009D01*
X105354655Y-75259301D01*
X105363125Y-75247442D01*
X105356608Y-75235818D01*
X104152812Y-74032022D01*
X104138868Y-74024408D01*
X104137035Y-74024539D01*
X104130420Y-74028790D01*
X102922910Y-75236300D01*
X102915618Y-75249654D01*
X94488500Y-75249654D01*
X94488500Y-73643204D01*
X102127665Y-73643204D01*
X102142932Y-73907969D01*
X102144005Y-73916470D01*
X102195065Y-74176722D01*
X102197276Y-74184974D01*
X102283184Y-74435894D01*
X102286499Y-74443779D01*
X102405664Y-74680713D01*
X102410020Y-74688079D01*
X102539347Y-74876250D01*
X102549601Y-74884594D01*
X102563342Y-74877448D01*
X103767978Y-73672812D01*
X103774356Y-73661132D01*
X104504408Y-73661132D01*
X104504539Y-73662965D01*
X104508790Y-73669580D01*
X105715730Y-74876520D01*
X105727939Y-74883187D01*
X105739439Y-74874497D01*
X105836831Y-74741913D01*
X105841418Y-74734685D01*
X105967962Y-74501621D01*
X105971530Y-74493827D01*
X106065271Y-74245750D01*
X106067748Y-74237544D01*
X106126954Y-73979038D01*
X106128294Y-73970577D01*
X106152031Y-73704616D01*
X106152277Y-73699677D01*
X106152666Y-73662485D01*
X106152523Y-73657519D01*
X106134362Y-73391123D01*
X106133201Y-73382649D01*
X106079419Y-73122944D01*
X106077120Y-73114709D01*
X105988588Y-72864705D01*
X105985191Y-72856854D01*
X105863550Y-72621178D01*
X105859122Y-72613866D01*
X105740031Y-72444417D01*
X105729509Y-72436037D01*
X105716121Y-72443089D01*
X104512022Y-73647188D01*
X104504408Y-73661132D01*
X103774356Y-73661132D01*
X103775592Y-73658868D01*
X103775461Y-73657035D01*
X103771210Y-73650420D01*
X102563814Y-72443024D01*
X102551804Y-72436466D01*
X102540064Y-72445434D01*
X102431935Y-72595911D01*
X102427418Y-72603196D01*
X102303325Y-72837567D01*
X102299839Y-72845395D01*
X102208700Y-73094446D01*
X102206311Y-73102670D01*
X102149812Y-73361795D01*
X102148563Y-73370250D01*
X102127754Y-73634653D01*
X102127665Y-73643204D01*
X94488500Y-73643204D01*
X94488500Y-72072500D01*
X102916584Y-72072500D01*
X102922980Y-72083770D01*
X104127188Y-73287978D01*
X104141132Y-73295592D01*
X104142965Y-73295461D01*
X104149580Y-73291210D01*
X105356604Y-72084186D01*
X105363795Y-72071017D01*
X105356473Y-72060780D01*
X105309233Y-72022115D01*
X105302261Y-72017160D01*
X105076122Y-71878582D01*
X105068552Y-71874624D01*
X104825704Y-71768022D01*
X104817644Y-71765120D01*
X104562592Y-71692467D01*
X104554214Y-71690685D01*
X104291656Y-71653318D01*
X104283111Y-71652691D01*
X104017908Y-71651302D01*
X104009374Y-71651839D01*
X103746433Y-71686456D01*
X103738035Y-71688149D01*
X103482238Y-71758127D01*
X103474143Y-71760946D01*
X103230199Y-71864997D01*
X103222577Y-71868881D01*
X102995013Y-72005075D01*
X102987981Y-72009962D01*
X102925053Y-72060377D01*
X102916584Y-72072500D01*
X94488500Y-72072500D01*
X94488500Y-68558918D01*
X102126917Y-68558918D01*
X102142682Y-68832320D01*
X102143507Y-68836525D01*
X102143508Y-68836533D01*
X102166075Y-68951556D01*
X102195405Y-69101053D01*
X102196792Y-69105103D01*
X102196793Y-69105108D01*
X102266311Y-69308153D01*
X102284112Y-69360144D01*
X102407160Y-69604799D01*
X102409586Y-69608328D01*
X102409589Y-69608334D01*
X102542866Y-69802251D01*
X102562274Y-69830490D01*
X102746582Y-70033043D01*
X102956675Y-70208707D01*
X102960316Y-70210991D01*
X103185024Y-70351951D01*
X103185028Y-70351953D01*
X103188664Y-70354234D01*
X103313461Y-70410582D01*
X103434345Y-70465164D01*
X103434349Y-70465166D01*
X103438257Y-70466930D01*
X103499261Y-70485000D01*
X103696723Y-70543491D01*
X103696727Y-70543492D01*
X103700836Y-70544709D01*
X103705070Y-70545357D01*
X103705075Y-70545358D01*
X103967298Y-70585483D01*
X103967300Y-70585483D01*
X103971540Y-70586132D01*
X104110912Y-70588322D01*
X104241071Y-70590367D01*
X104241077Y-70590367D01*
X104245362Y-70590434D01*
X104517235Y-70557534D01*
X104782127Y-70488041D01*
X104786087Y-70486401D01*
X104786092Y-70486399D01*
X105014347Y-70391852D01*
X105035136Y-70383241D01*
X105271582Y-70245073D01*
X105487089Y-70076094D01*
X105522137Y-70039928D01*
X105640754Y-69917524D01*
X105677669Y-69879431D01*
X105680202Y-69875983D01*
X105680206Y-69875978D01*
X105837257Y-69662178D01*
X105839795Y-69658723D01*
X105867154Y-69608334D01*
X105968418Y-69421830D01*
X105968419Y-69421828D01*
X105970468Y-69418054D01*
X106067269Y-69161877D01*
X106100039Y-69018794D01*
X106127449Y-68899117D01*
X106127450Y-68899113D01*
X106128407Y-68894933D01*
X106129590Y-68881687D01*
X106152531Y-68624627D01*
X106152531Y-68624625D01*
X106152751Y-68622161D01*
X106153193Y-68580000D01*
X106153024Y-68577519D01*
X106134859Y-68311055D01*
X106134858Y-68311049D01*
X106134567Y-68306778D01*
X106127264Y-68271511D01*
X106106799Y-68172695D01*
X106079032Y-68038612D01*
X105987617Y-67780465D01*
X105862013Y-67537112D01*
X105852040Y-67522921D01*
X105763879Y-67397481D01*
X105704545Y-67313057D01*
X105518125Y-67112445D01*
X105514810Y-67109731D01*
X105514806Y-67109728D01*
X105384069Y-67002721D01*
X105306205Y-66938990D01*
X105072704Y-66795901D01*
X105068768Y-66794173D01*
X104848854Y-66697637D01*
X104794519Y-66651941D01*
X104773500Y-66582264D01*
X104773500Y-62943768D01*
X104774027Y-62932585D01*
X104775702Y-62925092D01*
X104775298Y-62912221D01*
X104773562Y-62857002D01*
X104773500Y-62853044D01*
X104773500Y-62825144D01*
X104772996Y-62821153D01*
X104772063Y-62809311D01*
X104770923Y-62773036D01*
X104770674Y-62765111D01*
X104765021Y-62745652D01*
X104761012Y-62726293D01*
X104760846Y-62724983D01*
X104758474Y-62706203D01*
X104755558Y-62698837D01*
X104755556Y-62698831D01*
X104742200Y-62665098D01*
X104738355Y-62653868D01*
X104728230Y-62619017D01*
X104728230Y-62619016D01*
X104726019Y-62611407D01*
X104715705Y-62593966D01*
X104707008Y-62576213D01*
X104702472Y-62564758D01*
X104699552Y-62557383D01*
X104673563Y-62521612D01*
X104667047Y-62511692D01*
X104656255Y-62493444D01*
X104644542Y-62473638D01*
X104630221Y-62459317D01*
X104617380Y-62444283D01*
X104610132Y-62434307D01*
X104605472Y-62427893D01*
X104571401Y-62399707D01*
X104562622Y-62391718D01*
X104452122Y-62281218D01*
X104418096Y-62218906D01*
X104415907Y-62205293D01*
X104413894Y-62186134D01*
X104407348Y-62123856D01*
X104399232Y-62046635D01*
X104399232Y-62046633D01*
X104398542Y-62040072D01*
X104339527Y-61858444D01*
X104244040Y-61693056D01*
X104116253Y-61551134D01*
X103961752Y-61438882D01*
X103955724Y-61436198D01*
X103955722Y-61436197D01*
X103793319Y-61363891D01*
X103793318Y-61363891D01*
X103787288Y-61361206D01*
X103693887Y-61341353D01*
X103606944Y-61322872D01*
X103606939Y-61322872D01*
X103600487Y-61321500D01*
X103409513Y-61321500D01*
X103403061Y-61322872D01*
X103403056Y-61322872D01*
X103316113Y-61341353D01*
X103222712Y-61361206D01*
X103216682Y-61363891D01*
X103216681Y-61363891D01*
X103054278Y-61436197D01*
X103054276Y-61436198D01*
X103048248Y-61438882D01*
X102893747Y-61551134D01*
X102765960Y-61693056D01*
X102670473Y-61858444D01*
X102611458Y-62040072D01*
X102610768Y-62046633D01*
X102610768Y-62046635D01*
X102596515Y-62182251D01*
X102591496Y-62230000D01*
X102611458Y-62419928D01*
X102670473Y-62601556D01*
X102765960Y-62766944D01*
X102770375Y-62771847D01*
X102770379Y-62771852D01*
X102885730Y-62899962D01*
X102893747Y-62908866D01*
X103048248Y-63021118D01*
X103054276Y-63023802D01*
X103054278Y-63023803D01*
X103216681Y-63096109D01*
X103222712Y-63098794D01*
X103406698Y-63137902D01*
X103469170Y-63171629D01*
X103503492Y-63233779D01*
X103506500Y-63261148D01*
X103506500Y-66583362D01*
X103486498Y-66651483D01*
X103429935Y-66699259D01*
X103229982Y-66784546D01*
X103229978Y-66784548D01*
X103226030Y-66786232D01*
X103206125Y-66798145D01*
X102994725Y-66924664D01*
X102994721Y-66924667D01*
X102991043Y-66926868D01*
X102777318Y-67098094D01*
X102588808Y-67296742D01*
X102429002Y-67519136D01*
X102300857Y-67761161D01*
X102299385Y-67765184D01*
X102299383Y-67765188D01*
X102247836Y-67906045D01*
X102206743Y-68018337D01*
X102148404Y-68285907D01*
X102126917Y-68558918D01*
X94488500Y-68558918D01*
X94488500Y-51434500D01*
X94508502Y-51366379D01*
X94562158Y-51319886D01*
X94614500Y-51308500D01*
X167005500Y-51308500D01*
X167073621Y-51328502D01*
G37*
%TD.AperFunction*%
%TD*%
M02*
