%TF.GenerationSoftware,KiCad,Pcbnew,(6.0.4)*%
%TF.CreationDate,2022-04-27T00:59:47-07:00*%
%TF.ProjectId,SolarChargerV2,536f6c61-7243-4686-9172-67657256322e,rev?*%
%TF.SameCoordinates,Original*%
%TF.FileFunction,Legend,Bot*%
%TF.FilePolarity,Positive*%
%FSLAX46Y46*%
G04 Gerber Fmt 4.6, Leading zero omitted, Abs format (unit mm)*
G04 Created by KiCad (PCBNEW (6.0.4)) date 2022-04-27 00:59:47*
%MOMM*%
%LPD*%
G01*
G04 APERTURE LIST*
%ADD10C,0.150000*%
G04 APERTURE END LIST*
D10*
X88170714Y-75262857D02*
X88837380Y-75262857D01*
X87789761Y-75500952D02*
X88504047Y-75739047D01*
X88504047Y-75120000D01*
X87837380Y-74548571D02*
X87837380Y-74453333D01*
X87885000Y-74358095D01*
X87932619Y-74310476D01*
X88027857Y-74262857D01*
X88218333Y-74215238D01*
X88456428Y-74215238D01*
X88646904Y-74262857D01*
X88742142Y-74310476D01*
X88789761Y-74358095D01*
X88837380Y-74453333D01*
X88837380Y-74548571D01*
X88789761Y-74643809D01*
X88742142Y-74691428D01*
X88646904Y-74739047D01*
X88456428Y-74786666D01*
X88218333Y-74786666D01*
X88027857Y-74739047D01*
X87932619Y-74691428D01*
X87885000Y-74643809D01*
X87837380Y-74548571D01*
X88742142Y-73786666D02*
X88789761Y-73739047D01*
X88837380Y-73786666D01*
X88789761Y-73834285D01*
X88742142Y-73786666D01*
X88837380Y-73786666D01*
X87837380Y-72881904D02*
X87837380Y-73072380D01*
X87885000Y-73167619D01*
X87932619Y-73215238D01*
X88075476Y-73310476D01*
X88265952Y-73358095D01*
X88646904Y-73358095D01*
X88742142Y-73310476D01*
X88789761Y-73262857D01*
X88837380Y-73167619D01*
X88837380Y-72977142D01*
X88789761Y-72881904D01*
X88742142Y-72834285D01*
X88646904Y-72786666D01*
X88408809Y-72786666D01*
X88313571Y-72834285D01*
X88265952Y-72881904D01*
X88218333Y-72977142D01*
X88218333Y-73167619D01*
X88265952Y-73262857D01*
X88313571Y-73310476D01*
X88408809Y-73358095D01*
X88170714Y-71929523D02*
X88837380Y-71929523D01*
X87789761Y-72167619D02*
X88504047Y-72405714D01*
X88504047Y-71786666D01*
X87837380Y-71215238D02*
X87837380Y-71120000D01*
X87885000Y-71024761D01*
X87932619Y-70977142D01*
X88027857Y-70929523D01*
X88218333Y-70881904D01*
X88456428Y-70881904D01*
X88646904Y-70929523D01*
X88742142Y-70977142D01*
X88789761Y-71024761D01*
X88837380Y-71120000D01*
X88837380Y-71215238D01*
X88789761Y-71310476D01*
X88742142Y-71358095D01*
X88646904Y-71405714D01*
X88456428Y-71453333D01*
X88218333Y-71453333D01*
X88027857Y-71405714D01*
X87932619Y-71358095D01*
X87885000Y-71310476D01*
X87837380Y-71215238D01*
X87837380Y-70262857D02*
X87837380Y-70167619D01*
X87885000Y-70072380D01*
X87932619Y-70024761D01*
X88027857Y-69977142D01*
X88218333Y-69929523D01*
X88456428Y-69929523D01*
X88646904Y-69977142D01*
X88742142Y-70024761D01*
X88789761Y-70072380D01*
X88837380Y-70167619D01*
X88837380Y-70262857D01*
X88789761Y-70358095D01*
X88742142Y-70405714D01*
X88646904Y-70453333D01*
X88456428Y-70500952D01*
X88218333Y-70500952D01*
X88027857Y-70453333D01*
X87932619Y-70405714D01*
X87885000Y-70358095D01*
X87837380Y-70262857D01*
X88837380Y-68739047D02*
X88170714Y-68739047D01*
X88265952Y-68739047D02*
X88218333Y-68691428D01*
X88170714Y-68596190D01*
X88170714Y-68453333D01*
X88218333Y-68358095D01*
X88313571Y-68310476D01*
X88837380Y-68310476D01*
X88313571Y-68310476D02*
X88218333Y-68262857D01*
X88170714Y-68167619D01*
X88170714Y-68024761D01*
X88218333Y-67929523D01*
X88313571Y-67881904D01*
X88837380Y-67881904D01*
X88837380Y-67405714D02*
X88170714Y-67405714D01*
X88265952Y-67405714D02*
X88218333Y-67358095D01*
X88170714Y-67262857D01*
X88170714Y-67120000D01*
X88218333Y-67024761D01*
X88313571Y-66977142D01*
X88837380Y-66977142D01*
X88313571Y-66977142D02*
X88218333Y-66929523D01*
X88170714Y-66834285D01*
X88170714Y-66691428D01*
X88218333Y-66596190D01*
X88313571Y-66548571D01*
X88837380Y-66548571D01*
X93480000Y-91440000D02*
X88948580Y-91440000D01*
X93480000Y-50800000D02*
X88948580Y-50800000D01*
X89535000Y-91440000D02*
X89535000Y-50800000D01*
X89535000Y-91440000D02*
X89535000Y-50800000D01*
X89535000Y-91440000D02*
X90121421Y-90313496D01*
X89535000Y-91440000D02*
X88948579Y-90313496D01*
X89535000Y-50800000D02*
X88948579Y-51926504D01*
X89535000Y-50800000D02*
X90121421Y-51926504D01*
X126143333Y-45292380D02*
X126810000Y-45292380D01*
X126381428Y-46292380D01*
X127095714Y-45292380D02*
X127714761Y-45292380D01*
X127381428Y-45673333D01*
X127524285Y-45673333D01*
X127619523Y-45720952D01*
X127667142Y-45768571D01*
X127714761Y-45863809D01*
X127714761Y-46101904D01*
X127667142Y-46197142D01*
X127619523Y-46244761D01*
X127524285Y-46292380D01*
X127238571Y-46292380D01*
X127143333Y-46244761D01*
X127095714Y-46197142D01*
X128143333Y-46197142D02*
X128190952Y-46244761D01*
X128143333Y-46292380D01*
X128095714Y-46244761D01*
X128143333Y-46197142D01*
X128143333Y-46292380D01*
X129048095Y-45292380D02*
X128857619Y-45292380D01*
X128762380Y-45340000D01*
X128714761Y-45387619D01*
X128619523Y-45530476D01*
X128571904Y-45720952D01*
X128571904Y-46101904D01*
X128619523Y-46197142D01*
X128667142Y-46244761D01*
X128762380Y-46292380D01*
X128952857Y-46292380D01*
X129048095Y-46244761D01*
X129095714Y-46197142D01*
X129143333Y-46101904D01*
X129143333Y-45863809D01*
X129095714Y-45768571D01*
X129048095Y-45720952D01*
X128952857Y-45673333D01*
X128762380Y-45673333D01*
X128667142Y-45720952D01*
X128619523Y-45768571D01*
X128571904Y-45863809D01*
X130000476Y-45292380D02*
X129810000Y-45292380D01*
X129714761Y-45340000D01*
X129667142Y-45387619D01*
X129571904Y-45530476D01*
X129524285Y-45720952D01*
X129524285Y-46101904D01*
X129571904Y-46197142D01*
X129619523Y-46244761D01*
X129714761Y-46292380D01*
X129905238Y-46292380D01*
X130000476Y-46244761D01*
X130048095Y-46197142D01*
X130095714Y-46101904D01*
X130095714Y-45863809D01*
X130048095Y-45768571D01*
X130000476Y-45720952D01*
X129905238Y-45673333D01*
X129714761Y-45673333D01*
X129619523Y-45720952D01*
X129571904Y-45768571D01*
X129524285Y-45863809D01*
X130714761Y-45292380D02*
X130810000Y-45292380D01*
X130905238Y-45340000D01*
X130952857Y-45387619D01*
X131000476Y-45482857D01*
X131048095Y-45673333D01*
X131048095Y-45911428D01*
X131000476Y-46101904D01*
X130952857Y-46197142D01*
X130905238Y-46244761D01*
X130810000Y-46292380D01*
X130714761Y-46292380D01*
X130619523Y-46244761D01*
X130571904Y-46197142D01*
X130524285Y-46101904D01*
X130476666Y-45911428D01*
X130476666Y-45673333D01*
X130524285Y-45482857D01*
X130571904Y-45387619D01*
X130619523Y-45340000D01*
X130714761Y-45292380D01*
X131667142Y-45292380D02*
X131762380Y-45292380D01*
X131857619Y-45340000D01*
X131905238Y-45387619D01*
X131952857Y-45482857D01*
X132000476Y-45673333D01*
X132000476Y-45911428D01*
X131952857Y-46101904D01*
X131905238Y-46197142D01*
X131857619Y-46244761D01*
X131762380Y-46292380D01*
X131667142Y-46292380D01*
X131571904Y-46244761D01*
X131524285Y-46197142D01*
X131476666Y-46101904D01*
X131429047Y-45911428D01*
X131429047Y-45673333D01*
X131476666Y-45482857D01*
X131524285Y-45387619D01*
X131571904Y-45340000D01*
X131667142Y-45292380D01*
X133190952Y-46292380D02*
X133190952Y-45625714D01*
X133190952Y-45720952D02*
X133238571Y-45673333D01*
X133333809Y-45625714D01*
X133476666Y-45625714D01*
X133571904Y-45673333D01*
X133619523Y-45768571D01*
X133619523Y-46292380D01*
X133619523Y-45768571D02*
X133667142Y-45673333D01*
X133762380Y-45625714D01*
X133905238Y-45625714D01*
X134000476Y-45673333D01*
X134048095Y-45768571D01*
X134048095Y-46292380D01*
X134524285Y-46292380D02*
X134524285Y-45625714D01*
X134524285Y-45720952D02*
X134571904Y-45673333D01*
X134667142Y-45625714D01*
X134810000Y-45625714D01*
X134905238Y-45673333D01*
X134952857Y-45768571D01*
X134952857Y-46292380D01*
X134952857Y-45768571D02*
X135000476Y-45673333D01*
X135095714Y-45625714D01*
X135238571Y-45625714D01*
X135333809Y-45673333D01*
X135381428Y-45768571D01*
X135381428Y-46292380D01*
X93980000Y-50300000D02*
X93980000Y-46403580D01*
X167640000Y-50300000D02*
X167640000Y-46403580D01*
X93980000Y-46990000D02*
X167640000Y-46990000D01*
X93980000Y-46990000D02*
X167640000Y-46990000D01*
X93980000Y-46990000D02*
X95106504Y-47576421D01*
X93980000Y-46990000D02*
X95106504Y-46403579D01*
X167640000Y-46990000D02*
X166513496Y-46403579D01*
X167640000Y-46990000D02*
X166513496Y-47576421D01*
M02*
