%TF.GenerationSoftware,KiCad,Pcbnew,(6.0.4)*%
%TF.CreationDate,2022-04-27T00:59:47-07:00*%
%TF.ProjectId,SolarChargerV2,536f6c61-7243-4686-9172-67657256322e,rev?*%
%TF.SameCoordinates,Original*%
%TF.FileFunction,Soldermask,Top*%
%TF.FilePolarity,Negative*%
%FSLAX46Y46*%
G04 Gerber Fmt 4.6, Leading zero omitted, Abs format (unit mm)*
G04 Created by KiCad (PCBNEW (6.0.4)) date 2022-04-27 00:59:47*
%MOMM*%
%LPD*%
G01*
G04 APERTURE LIST*
G04 Aperture macros list*
%AMRoundRect*
0 Rectangle with rounded corners*
0 $1 Rounding radius*
0 $2 $3 $4 $5 $6 $7 $8 $9 X,Y pos of 4 corners*
0 Add a 4 corners polygon primitive as box body*
4,1,4,$2,$3,$4,$5,$6,$7,$8,$9,$2,$3,0*
0 Add four circle primitives for the rounded corners*
1,1,$1+$1,$2,$3*
1,1,$1+$1,$4,$5*
1,1,$1+$1,$6,$7*
1,1,$1+$1,$8,$9*
0 Add four rect primitives between the rounded corners*
20,1,$1+$1,$2,$3,$4,$5,0*
20,1,$1+$1,$4,$5,$6,$7,0*
20,1,$1+$1,$6,$7,$8,$9,0*
20,1,$1+$1,$8,$9,$2,$3,0*%
%AMFreePoly0*
4,1,17,2.675000,1.605000,1.875000,1.605000,1.875000,0.935000,2.675000,0.935000,2.675000,0.335000,1.875000,0.335000,1.875000,-0.335000,2.675000,-0.335000,2.675000,-0.935000,1.875000,-0.935000,1.875000,-1.605000,2.675000,-1.605000,2.675000,-2.205000,-1.875000,-2.205000,-1.875000,2.205000,2.675000,2.205000,2.675000,1.605000,2.675000,1.605000,$1*%
G04 Aperture macros list end*
%ADD10R,2.500000X3.300000*%
%ADD11C,3.000000*%
%ADD12RoundRect,0.150000X-0.825000X-0.150000X0.825000X-0.150000X0.825000X0.150000X-0.825000X0.150000X0*%
%ADD13R,3.850000X2.500000*%
%ADD14RoundRect,0.250000X-1.975000X1.350000X-1.975000X-1.350000X1.975000X-1.350000X1.975000X1.350000X0*%
%ADD15RoundRect,0.237500X-0.237500X0.250000X-0.237500X-0.250000X0.237500X-0.250000X0.237500X0.250000X0*%
%ADD16RoundRect,0.249999X-0.737501X-2.450001X0.737501X-2.450001X0.737501X2.450001X-0.737501X2.450001X0*%
%ADD17RoundRect,0.237500X-0.237500X0.300000X-0.237500X-0.300000X0.237500X-0.300000X0.237500X0.300000X0*%
%ADD18R,1.600000X2.200000*%
%ADD19RoundRect,0.250000X-0.450000X0.262500X-0.450000X-0.262500X0.450000X-0.262500X0.450000X0.262500X0*%
%ADD20FreePoly0,90.000000*%
%ADD21R,0.500000X0.850000*%
%ADD22R,1.500000X1.600000*%
%ADD23C,1.600000*%
%ADD24RoundRect,0.250000X-1.450000X0.537500X-1.450000X-0.537500X1.450000X-0.537500X1.450000X0.537500X0*%
G04 APERTURE END LIST*
D10*
%TO.C,D1*%
X140560000Y-60960000D03*
X133760000Y-60960000D03*
%TD*%
D11*
%TO.C,SC1*%
X104140000Y-68580000D03*
X104140000Y-73660000D03*
%TD*%
D12*
%TO.C,U1*%
X124525000Y-69215000D03*
X124525000Y-70485000D03*
X124525000Y-71755000D03*
X124525000Y-73025000D03*
X129475000Y-73025000D03*
X129475000Y-71755000D03*
X129475000Y-70485000D03*
X129475000Y-69215000D03*
%TD*%
D13*
%TO.C,L1*%
X107525000Y-61700000D03*
X107525000Y-58700000D03*
X117475000Y-58700000D03*
X117475000Y-61700000D03*
%TD*%
D14*
%TO.C,R2*%
X116840000Y-68520000D03*
X116840000Y-73720000D03*
%TD*%
D15*
%TO.C,R3*%
X124460000Y-80367500D03*
X124460000Y-82192500D03*
%TD*%
D16*
%TO.C,C6*%
X124362500Y-60960000D03*
X129637500Y-60960000D03*
%TD*%
D15*
%TO.C,R4*%
X129540000Y-77827500D03*
X129540000Y-79652500D03*
%TD*%
D17*
%TO.C,C3*%
X111760000Y-77877500D03*
X111760000Y-79602500D03*
%TD*%
%TO.C,C2*%
X111760000Y-72797500D03*
X111760000Y-74522500D03*
%TD*%
D15*
%TO.C,R1*%
X111760000Y-67667500D03*
X111760000Y-69492500D03*
%TD*%
%TO.C,R6*%
X144780000Y-70207500D03*
X144780000Y-72032500D03*
%TD*%
D18*
%TO.C,C1*%
X106680000Y-79780000D03*
X106680000Y-82780000D03*
%TD*%
D19*
%TO.C,R7*%
X144780000Y-75287500D03*
X144780000Y-77112500D03*
%TD*%
D20*
%TO.C,Q1*%
X137160000Y-70470000D03*
D21*
X135255000Y-74020000D03*
X136525000Y-74020000D03*
X137795000Y-74020000D03*
X139065000Y-74020000D03*
%TD*%
D22*
%TO.C,J1*%
X152120000Y-74620000D03*
D23*
X152120000Y-72120000D03*
X152120000Y-70120000D03*
X152120000Y-67620000D03*
D11*
X154830000Y-64550000D03*
X154830000Y-77690000D03*
%TD*%
D18*
%TO.C,C7*%
X144780000Y-62000000D03*
X144780000Y-65000000D03*
%TD*%
D17*
%TO.C,C5*%
X129540000Y-82045000D03*
X129540000Y-83770000D03*
%TD*%
D24*
%TO.C,C4*%
X116840000Y-79142500D03*
X116840000Y-83417500D03*
%TD*%
D14*
%TO.C,R5*%
X137160000Y-78680000D03*
X137160000Y-83880000D03*
%TD*%
M02*
