%TF.GenerationSoftware,KiCad,Pcbnew,(6.0.4)*%
%TF.CreationDate,2022-04-27T12:43:55-07:00*%
%TF.ProjectId,SolarChargerV2,536f6c61-7243-4686-9172-67657256322e,rev?*%
%TF.SameCoordinates,Original*%
%TF.FileFunction,Soldermask,Top*%
%TF.FilePolarity,Negative*%
%FSLAX46Y46*%
G04 Gerber Fmt 4.6, Leading zero omitted, Abs format (unit mm)*
G04 Created by KiCad (PCBNEW (6.0.4)) date 2022-04-27 12:43:55*
%MOMM*%
%LPD*%
G01*
G04 APERTURE LIST*
G04 Aperture macros list*
%AMRoundRect*
0 Rectangle with rounded corners*
0 $1 Rounding radius*
0 $2 $3 $4 $5 $6 $7 $8 $9 X,Y pos of 4 corners*
0 Add a 4 corners polygon primitive as box body*
4,1,4,$2,$3,$4,$5,$6,$7,$8,$9,$2,$3,0*
0 Add four circle primitives for the rounded corners*
1,1,$1+$1,$2,$3*
1,1,$1+$1,$4,$5*
1,1,$1+$1,$6,$7*
1,1,$1+$1,$8,$9*
0 Add four rect primitives between the rounded corners*
20,1,$1+$1,$2,$3,$4,$5,0*
20,1,$1+$1,$4,$5,$6,$7,0*
20,1,$1+$1,$6,$7,$8,$9,0*
20,1,$1+$1,$8,$9,$2,$3,0*%
%AMFreePoly0*
4,1,17,2.675000,1.605000,1.875000,1.605000,1.875000,0.935000,2.675000,0.935000,2.675000,0.335000,1.875000,0.335000,1.875000,-0.335000,2.675000,-0.335000,2.675000,-0.935000,1.875000,-0.935000,1.875000,-1.605000,2.675000,-1.605000,2.675000,-2.205000,-1.875000,-2.205000,-1.875000,2.205000,2.675000,2.205000,2.675000,1.605000,2.675000,1.605000,$1*%
G04 Aperture macros list end*
%ADD10RoundRect,0.140000X-0.170000X0.140000X-0.170000X-0.140000X0.170000X-0.140000X0.170000X0.140000X0*%
%ADD11RoundRect,0.225000X-0.250000X0.225000X-0.250000X-0.225000X0.250000X-0.225000X0.250000X0.225000X0*%
%ADD12RoundRect,0.250000X-0.250000X-0.475000X0.250000X-0.475000X0.250000X0.475000X-0.250000X0.475000X0*%
%ADD13RoundRect,0.250000X-0.650000X0.325000X-0.650000X-0.325000X0.650000X-0.325000X0.650000X0.325000X0*%
%ADD14RoundRect,0.249999X-1.450001X0.450001X-1.450001X-0.450001X1.450001X-0.450001X1.450001X0.450001X0*%
%ADD15RoundRect,0.135000X-0.185000X0.135000X-0.185000X-0.135000X0.185000X-0.135000X0.185000X0.135000X0*%
%ADD16RoundRect,0.200000X-0.275000X0.200000X-0.275000X-0.200000X0.275000X-0.200000X0.275000X0.200000X0*%
%ADD17RoundRect,0.250000X-0.625000X0.312500X-0.625000X-0.312500X0.625000X-0.312500X0.625000X0.312500X0*%
%ADD18R,3.850000X2.500000*%
%ADD19R,2.500000X3.300000*%
%ADD20C,3.000000*%
%ADD21RoundRect,0.150000X-0.825000X-0.150000X0.825000X-0.150000X0.825000X0.150000X-0.825000X0.150000X0*%
%ADD22RoundRect,0.250000X-0.450000X0.262500X-0.450000X-0.262500X0.450000X-0.262500X0.450000X0.262500X0*%
%ADD23FreePoly0,90.000000*%
%ADD24R,0.500000X0.850000*%
%ADD25R,1.500000X1.600000*%
%ADD26C,1.600000*%
G04 APERTURE END LIST*
D10*
%TO.C,C5*%
X129540000Y-82427500D03*
X129540000Y-83387500D03*
%TD*%
%TO.C,C3*%
X111760000Y-78260000D03*
X111760000Y-79220000D03*
%TD*%
%TO.C,C2*%
X111760000Y-73180000D03*
X111760000Y-74140000D03*
%TD*%
D11*
%TO.C,C4*%
X116840000Y-80505000D03*
X116840000Y-82055000D03*
%TD*%
D12*
%TO.C,C6*%
X126050000Y-60960000D03*
X127950000Y-60960000D03*
%TD*%
D13*
%TO.C,C7*%
X144780000Y-62025000D03*
X144780000Y-64975000D03*
%TD*%
D14*
%TO.C,C1*%
X106680000Y-79230000D03*
X106680000Y-83330000D03*
%TD*%
D15*
%TO.C,R6*%
X144780000Y-70610000D03*
X144780000Y-71630000D03*
%TD*%
D16*
%TO.C,R4*%
X129540000Y-77915000D03*
X129540000Y-79565000D03*
%TD*%
%TO.C,R3*%
X124460000Y-80455000D03*
X124460000Y-82105000D03*
%TD*%
%TO.C,R1*%
X111760000Y-67755000D03*
X111760000Y-69405000D03*
%TD*%
D17*
%TO.C,R5*%
X137160000Y-79817500D03*
X137160000Y-82742500D03*
%TD*%
%TO.C,R2*%
X116840000Y-69657500D03*
X116840000Y-72582500D03*
%TD*%
D18*
%TO.C,L1*%
X112875000Y-57300000D03*
X112875000Y-54300000D03*
X102925000Y-54300000D03*
X102925000Y-57300000D03*
%TD*%
D19*
%TO.C,D1*%
X140560000Y-60960000D03*
X133760000Y-60960000D03*
%TD*%
D20*
%TO.C,SC1*%
X100700000Y-66460000D03*
X100700000Y-71540000D03*
%TD*%
D21*
%TO.C,U1*%
X124525000Y-69215000D03*
X124525000Y-70485000D03*
X124525000Y-71755000D03*
X124525000Y-73025000D03*
X129475000Y-73025000D03*
X129475000Y-71755000D03*
X129475000Y-70485000D03*
X129475000Y-69215000D03*
%TD*%
D22*
%TO.C,R7*%
X144780000Y-75287500D03*
X144780000Y-77112500D03*
%TD*%
D23*
%TO.C,Q1*%
X137160000Y-70470000D03*
D24*
X135255000Y-74020000D03*
X136525000Y-74020000D03*
X137795000Y-74020000D03*
X139065000Y-74020000D03*
%TD*%
D25*
%TO.C,J1*%
X152120000Y-74620000D03*
D26*
X152120000Y-72120000D03*
X152120000Y-70120000D03*
X152120000Y-67620000D03*
D20*
X154830000Y-64550000D03*
X154830000Y-77690000D03*
%TD*%
M02*
