%TF.GenerationSoftware,KiCad,Pcbnew,(6.0.4)*%
%TF.CreationDate,2022-04-27T12:43:55-07:00*%
%TF.ProjectId,SolarChargerV2,536f6c61-7243-4686-9172-67657256322e,rev?*%
%TF.SameCoordinates,Original*%
%TF.FileFunction,AssemblyDrawing,Top*%
%FSLAX46Y46*%
G04 Gerber Fmt 4.6, Leading zero omitted, Abs format (unit mm)*
G04 Created by KiCad (PCBNEW (6.0.4)) date 2022-04-27 12:43:55*
%MOMM*%
%LPD*%
G01*
G04 APERTURE LIST*
%ADD10C,0.150000*%
%ADD11C,0.040000*%
%ADD12C,0.060000*%
%ADD13C,0.080000*%
%ADD14C,0.120000*%
%ADD15C,0.100000*%
G04 APERTURE END LIST*
D10*
%TO.C,C5*%
X128832380Y-83074166D02*
X128832380Y-83645595D01*
X128832380Y-83359880D02*
X127832380Y-83359880D01*
X127975238Y-83455119D01*
X128070476Y-83550357D01*
X128118095Y-83645595D01*
X128165714Y-82645595D02*
X128832380Y-82645595D01*
X128260952Y-82645595D02*
X128213333Y-82597976D01*
X128165714Y-82502738D01*
X128165714Y-82359880D01*
X128213333Y-82264642D01*
X128308571Y-82217023D01*
X128832380Y-82217023D01*
D11*
X129629285Y-82949166D02*
X129641190Y-82961071D01*
X129653095Y-82996785D01*
X129653095Y-83020595D01*
X129641190Y-83056309D01*
X129617380Y-83080119D01*
X129593571Y-83092023D01*
X129545952Y-83103928D01*
X129510238Y-83103928D01*
X129462619Y-83092023D01*
X129438809Y-83080119D01*
X129415000Y-83056309D01*
X129403095Y-83020595D01*
X129403095Y-82996785D01*
X129415000Y-82961071D01*
X129426904Y-82949166D01*
X129403095Y-82722976D02*
X129403095Y-82842023D01*
X129522142Y-82853928D01*
X129510238Y-82842023D01*
X129498333Y-82818214D01*
X129498333Y-82758690D01*
X129510238Y-82734880D01*
X129522142Y-82722976D01*
X129545952Y-82711071D01*
X129605476Y-82711071D01*
X129629285Y-82722976D01*
X129641190Y-82734880D01*
X129653095Y-82758690D01*
X129653095Y-82818214D01*
X129641190Y-82842023D01*
X129629285Y-82853928D01*
D10*
%TO.C,C3*%
X110480952Y-79763809D02*
X110433333Y-79859047D01*
X110385714Y-79906666D01*
X110290476Y-79954285D01*
X110242857Y-79954285D01*
X110147619Y-79906666D01*
X110100000Y-79859047D01*
X110052380Y-79763809D01*
X110052380Y-79573333D01*
X110100000Y-79478095D01*
X110147619Y-79430476D01*
X110242857Y-79382857D01*
X110290476Y-79382857D01*
X110385714Y-79430476D01*
X110433333Y-79478095D01*
X110480952Y-79573333D01*
X110480952Y-79763809D01*
X110528571Y-79859047D01*
X110576190Y-79906666D01*
X110671428Y-79954285D01*
X110861904Y-79954285D01*
X110957142Y-79906666D01*
X111004761Y-79859047D01*
X111052380Y-79763809D01*
X111052380Y-79573333D01*
X111004761Y-79478095D01*
X110957142Y-79430476D01*
X110861904Y-79382857D01*
X110671428Y-79382857D01*
X110576190Y-79430476D01*
X110528571Y-79478095D01*
X110480952Y-79573333D01*
X110147619Y-79001904D02*
X110100000Y-78954285D01*
X110052380Y-78859047D01*
X110052380Y-78620952D01*
X110100000Y-78525714D01*
X110147619Y-78478095D01*
X110242857Y-78430476D01*
X110338095Y-78430476D01*
X110480952Y-78478095D01*
X111052380Y-79049523D01*
X111052380Y-78430476D01*
X110385714Y-78001904D02*
X111052380Y-78001904D01*
X110480952Y-78001904D02*
X110433333Y-77954285D01*
X110385714Y-77859047D01*
X110385714Y-77716190D01*
X110433333Y-77620952D01*
X110528571Y-77573333D01*
X111052380Y-77573333D01*
D11*
X111849285Y-78781666D02*
X111861190Y-78793571D01*
X111873095Y-78829285D01*
X111873095Y-78853095D01*
X111861190Y-78888809D01*
X111837380Y-78912619D01*
X111813571Y-78924523D01*
X111765952Y-78936428D01*
X111730238Y-78936428D01*
X111682619Y-78924523D01*
X111658809Y-78912619D01*
X111635000Y-78888809D01*
X111623095Y-78853095D01*
X111623095Y-78829285D01*
X111635000Y-78793571D01*
X111646904Y-78781666D01*
X111623095Y-78698333D02*
X111623095Y-78543571D01*
X111718333Y-78626904D01*
X111718333Y-78591190D01*
X111730238Y-78567380D01*
X111742142Y-78555476D01*
X111765952Y-78543571D01*
X111825476Y-78543571D01*
X111849285Y-78555476D01*
X111861190Y-78567380D01*
X111873095Y-78591190D01*
X111873095Y-78662619D01*
X111861190Y-78686428D01*
X111849285Y-78698333D01*
D10*
%TO.C,C2*%
X111052380Y-74779047D02*
X111052380Y-75350476D01*
X111052380Y-75064761D02*
X110052380Y-75064761D01*
X110195238Y-75160000D01*
X110290476Y-75255238D01*
X110338095Y-75350476D01*
X110052380Y-74160000D02*
X110052380Y-74064761D01*
X110100000Y-73969523D01*
X110147619Y-73921904D01*
X110242857Y-73874285D01*
X110433333Y-73826666D01*
X110671428Y-73826666D01*
X110861904Y-73874285D01*
X110957142Y-73921904D01*
X111004761Y-73969523D01*
X111052380Y-74064761D01*
X111052380Y-74160000D01*
X111004761Y-74255238D01*
X110957142Y-74302857D01*
X110861904Y-74350476D01*
X110671428Y-74398095D01*
X110433333Y-74398095D01*
X110242857Y-74350476D01*
X110147619Y-74302857D01*
X110100000Y-74255238D01*
X110052380Y-74160000D01*
X110052380Y-73207619D02*
X110052380Y-73112380D01*
X110100000Y-73017142D01*
X110147619Y-72969523D01*
X110242857Y-72921904D01*
X110433333Y-72874285D01*
X110671428Y-72874285D01*
X110861904Y-72921904D01*
X110957142Y-72969523D01*
X111004761Y-73017142D01*
X111052380Y-73112380D01*
X111052380Y-73207619D01*
X111004761Y-73302857D01*
X110957142Y-73350476D01*
X110861904Y-73398095D01*
X110671428Y-73445714D01*
X110433333Y-73445714D01*
X110242857Y-73398095D01*
X110147619Y-73350476D01*
X110100000Y-73302857D01*
X110052380Y-73207619D01*
X110385714Y-72445714D02*
X111052380Y-72445714D01*
X110480952Y-72445714D02*
X110433333Y-72398095D01*
X110385714Y-72302857D01*
X110385714Y-72160000D01*
X110433333Y-72064761D01*
X110528571Y-72017142D01*
X111052380Y-72017142D01*
D11*
X111849285Y-73701666D02*
X111861190Y-73713571D01*
X111873095Y-73749285D01*
X111873095Y-73773095D01*
X111861190Y-73808809D01*
X111837380Y-73832619D01*
X111813571Y-73844523D01*
X111765952Y-73856428D01*
X111730238Y-73856428D01*
X111682619Y-73844523D01*
X111658809Y-73832619D01*
X111635000Y-73808809D01*
X111623095Y-73773095D01*
X111623095Y-73749285D01*
X111635000Y-73713571D01*
X111646904Y-73701666D01*
X111646904Y-73606428D02*
X111635000Y-73594523D01*
X111623095Y-73570714D01*
X111623095Y-73511190D01*
X111635000Y-73487380D01*
X111646904Y-73475476D01*
X111670714Y-73463571D01*
X111694523Y-73463571D01*
X111730238Y-73475476D01*
X111873095Y-73618333D01*
X111873095Y-73463571D01*
D10*
%TO.C,C4*%
X114957619Y-82970476D02*
X114910000Y-82922857D01*
X114862380Y-82827619D01*
X114862380Y-82589523D01*
X114910000Y-82494285D01*
X114957619Y-82446666D01*
X115052857Y-82399047D01*
X115148095Y-82399047D01*
X115290952Y-82446666D01*
X115862380Y-83018095D01*
X115862380Y-82399047D01*
X114862380Y-81780000D02*
X114862380Y-81684761D01*
X114910000Y-81589523D01*
X114957619Y-81541904D01*
X115052857Y-81494285D01*
X115243333Y-81446666D01*
X115481428Y-81446666D01*
X115671904Y-81494285D01*
X115767142Y-81541904D01*
X115814761Y-81589523D01*
X115862380Y-81684761D01*
X115862380Y-81780000D01*
X115814761Y-81875238D01*
X115767142Y-81922857D01*
X115671904Y-81970476D01*
X115481428Y-82018095D01*
X115243333Y-82018095D01*
X115052857Y-81970476D01*
X114957619Y-81922857D01*
X114910000Y-81875238D01*
X114862380Y-81780000D01*
X114862380Y-80827619D02*
X114862380Y-80732380D01*
X114910000Y-80637142D01*
X114957619Y-80589523D01*
X115052857Y-80541904D01*
X115243333Y-80494285D01*
X115481428Y-80494285D01*
X115671904Y-80541904D01*
X115767142Y-80589523D01*
X115814761Y-80637142D01*
X115862380Y-80732380D01*
X115862380Y-80827619D01*
X115814761Y-80922857D01*
X115767142Y-80970476D01*
X115671904Y-81018095D01*
X115481428Y-81065714D01*
X115243333Y-81065714D01*
X115052857Y-81018095D01*
X114957619Y-80970476D01*
X114910000Y-80922857D01*
X114862380Y-80827619D01*
X115195714Y-80065714D02*
X116195714Y-80065714D01*
X115243333Y-80065714D02*
X115195714Y-79970476D01*
X115195714Y-79780000D01*
X115243333Y-79684761D01*
X115290952Y-79637142D01*
X115386190Y-79589523D01*
X115671904Y-79589523D01*
X115767142Y-79637142D01*
X115814761Y-79684761D01*
X115862380Y-79780000D01*
X115862380Y-79970476D01*
X115814761Y-80065714D01*
D12*
X116982857Y-81346666D02*
X117001904Y-81365714D01*
X117020952Y-81422857D01*
X117020952Y-81460952D01*
X117001904Y-81518095D01*
X116963809Y-81556190D01*
X116925714Y-81575238D01*
X116849523Y-81594285D01*
X116792380Y-81594285D01*
X116716190Y-81575238D01*
X116678095Y-81556190D01*
X116640000Y-81518095D01*
X116620952Y-81460952D01*
X116620952Y-81422857D01*
X116640000Y-81365714D01*
X116659047Y-81346666D01*
X116754285Y-81003809D02*
X117020952Y-81003809D01*
X116601904Y-81099047D02*
X116887619Y-81194285D01*
X116887619Y-80946666D01*
D10*
%TO.C,C6*%
X126833333Y-63092380D02*
X126261904Y-63092380D01*
X126547619Y-63092380D02*
X126547619Y-62092380D01*
X126452380Y-62235238D01*
X126357142Y-62330476D01*
X126261904Y-62378095D01*
X127690476Y-62425714D02*
X127690476Y-63092380D01*
X127261904Y-62425714D02*
X127261904Y-62949523D01*
X127309523Y-63044761D01*
X127404761Y-63092380D01*
X127547619Y-63092380D01*
X127642857Y-63044761D01*
X127690476Y-62997142D01*
D13*
X126916666Y-61138571D02*
X126892857Y-61162380D01*
X126821428Y-61186190D01*
X126773809Y-61186190D01*
X126702380Y-61162380D01*
X126654761Y-61114761D01*
X126630952Y-61067142D01*
X126607142Y-60971904D01*
X126607142Y-60900476D01*
X126630952Y-60805238D01*
X126654761Y-60757619D01*
X126702380Y-60710000D01*
X126773809Y-60686190D01*
X126821428Y-60686190D01*
X126892857Y-60710000D01*
X126916666Y-60733809D01*
X127345238Y-60686190D02*
X127250000Y-60686190D01*
X127202380Y-60710000D01*
X127178571Y-60733809D01*
X127130952Y-60805238D01*
X127107142Y-60900476D01*
X127107142Y-61090952D01*
X127130952Y-61138571D01*
X127154761Y-61162380D01*
X127202380Y-61186190D01*
X127297619Y-61186190D01*
X127345238Y-61162380D01*
X127369047Y-61138571D01*
X127392857Y-61090952D01*
X127392857Y-60971904D01*
X127369047Y-60924285D01*
X127345238Y-60900476D01*
X127297619Y-60876666D01*
X127202380Y-60876666D01*
X127154761Y-60900476D01*
X127130952Y-60924285D01*
X127107142Y-60971904D01*
D10*
%TO.C,C7*%
X142715714Y-64238095D02*
X143382380Y-64238095D01*
X142334761Y-64476190D02*
X143049047Y-64714285D01*
X143049047Y-64095238D01*
X142382380Y-63809523D02*
X142382380Y-63142857D01*
X143382380Y-63571428D01*
X142715714Y-62333333D02*
X143382380Y-62333333D01*
X142715714Y-62761904D02*
X143239523Y-62761904D01*
X143334761Y-62714285D01*
X143382380Y-62619047D01*
X143382380Y-62476190D01*
X143334761Y-62380952D01*
X143287142Y-62333333D01*
D14*
X145065714Y-63633333D02*
X145103809Y-63671428D01*
X145141904Y-63785714D01*
X145141904Y-63861904D01*
X145103809Y-63976190D01*
X145027619Y-64052380D01*
X144951428Y-64090476D01*
X144799047Y-64128571D01*
X144684761Y-64128571D01*
X144532380Y-64090476D01*
X144456190Y-64052380D01*
X144380000Y-63976190D01*
X144341904Y-63861904D01*
X144341904Y-63785714D01*
X144380000Y-63671428D01*
X144418095Y-63633333D01*
X144341904Y-63366666D02*
X144341904Y-62833333D01*
X145141904Y-63176190D01*
D10*
%TO.C,C1*%
X104482380Y-81922857D02*
X104482380Y-82494285D01*
X104482380Y-82208571D02*
X103482380Y-82208571D01*
X103625238Y-82303809D01*
X103720476Y-82399047D01*
X103768095Y-82494285D01*
X103482380Y-81303809D02*
X103482380Y-81208571D01*
X103530000Y-81113333D01*
X103577619Y-81065714D01*
X103672857Y-81018095D01*
X103863333Y-80970476D01*
X104101428Y-80970476D01*
X104291904Y-81018095D01*
X104387142Y-81065714D01*
X104434761Y-81113333D01*
X104482380Y-81208571D01*
X104482380Y-81303809D01*
X104434761Y-81399047D01*
X104387142Y-81446666D01*
X104291904Y-81494285D01*
X104101428Y-81541904D01*
X103863333Y-81541904D01*
X103672857Y-81494285D01*
X103577619Y-81446666D01*
X103530000Y-81399047D01*
X103482380Y-81303809D01*
X103815714Y-80113333D02*
X104482380Y-80113333D01*
X103815714Y-80541904D02*
X104339523Y-80541904D01*
X104434761Y-80494285D01*
X104482380Y-80399047D01*
X104482380Y-80256190D01*
X104434761Y-80160952D01*
X104387142Y-80113333D01*
X107037142Y-81446666D02*
X107084761Y-81494285D01*
X107132380Y-81637142D01*
X107132380Y-81732380D01*
X107084761Y-81875238D01*
X106989523Y-81970476D01*
X106894285Y-82018095D01*
X106703809Y-82065714D01*
X106560952Y-82065714D01*
X106370476Y-82018095D01*
X106275238Y-81970476D01*
X106180000Y-81875238D01*
X106132380Y-81732380D01*
X106132380Y-81637142D01*
X106180000Y-81494285D01*
X106227619Y-81446666D01*
X107132380Y-80494285D02*
X107132380Y-81065714D01*
X107132380Y-80780000D02*
X106132380Y-80780000D01*
X106275238Y-80875238D01*
X106370476Y-80970476D01*
X106418095Y-81065714D01*
%TO.C,R6*%
X143157619Y-73000952D02*
X143110000Y-72953333D01*
X143062380Y-72858095D01*
X143062380Y-72620000D01*
X143110000Y-72524761D01*
X143157619Y-72477142D01*
X143252857Y-72429523D01*
X143348095Y-72429523D01*
X143490952Y-72477142D01*
X144062380Y-73048571D01*
X144062380Y-72429523D01*
X144062380Y-71953333D02*
X144062380Y-71762857D01*
X144014761Y-71667619D01*
X143967142Y-71620000D01*
X143824285Y-71524761D01*
X143633809Y-71477142D01*
X143252857Y-71477142D01*
X143157619Y-71524761D01*
X143110000Y-71572380D01*
X143062380Y-71667619D01*
X143062380Y-71858095D01*
X143110000Y-71953333D01*
X143157619Y-72000952D01*
X143252857Y-72048571D01*
X143490952Y-72048571D01*
X143586190Y-72000952D01*
X143633809Y-71953333D01*
X143681428Y-71858095D01*
X143681428Y-71667619D01*
X143633809Y-71572380D01*
X143586190Y-71524761D01*
X143490952Y-71477142D01*
X143967142Y-71048571D02*
X144014761Y-71000952D01*
X144062380Y-71048571D01*
X144014761Y-71096190D01*
X143967142Y-71048571D01*
X144062380Y-71048571D01*
X143395714Y-70143809D02*
X144062380Y-70143809D01*
X143014761Y-70381904D02*
X143729047Y-70620000D01*
X143729047Y-70000952D01*
X144062380Y-69620000D02*
X143062380Y-69620000D01*
X143681428Y-69524761D02*
X144062380Y-69239047D01*
X143395714Y-69239047D02*
X143776666Y-69620000D01*
D11*
X144897619Y-71163333D02*
X144773809Y-71250000D01*
X144897619Y-71311904D02*
X144637619Y-71311904D01*
X144637619Y-71212857D01*
X144650000Y-71188095D01*
X144662380Y-71175714D01*
X144687142Y-71163333D01*
X144724285Y-71163333D01*
X144749047Y-71175714D01*
X144761428Y-71188095D01*
X144773809Y-71212857D01*
X144773809Y-71311904D01*
X144637619Y-70940476D02*
X144637619Y-70990000D01*
X144650000Y-71014761D01*
X144662380Y-71027142D01*
X144699523Y-71051904D01*
X144749047Y-71064285D01*
X144848095Y-71064285D01*
X144872857Y-71051904D01*
X144885238Y-71039523D01*
X144897619Y-71014761D01*
X144897619Y-70965238D01*
X144885238Y-70940476D01*
X144872857Y-70928095D01*
X144848095Y-70915714D01*
X144786190Y-70915714D01*
X144761428Y-70928095D01*
X144749047Y-70940476D01*
X144736666Y-70965238D01*
X144736666Y-71014761D01*
X144749047Y-71039523D01*
X144761428Y-71051904D01*
X144786190Y-71064285D01*
D10*
%TO.C,R4*%
X128562380Y-79406666D02*
X128562380Y-79978095D01*
X128562380Y-79692380D02*
X127562380Y-79692380D01*
X127705238Y-79787619D01*
X127800476Y-79882857D01*
X127848095Y-79978095D01*
X127562380Y-78787619D02*
X127562380Y-78692380D01*
X127610000Y-78597142D01*
X127657619Y-78549523D01*
X127752857Y-78501904D01*
X127943333Y-78454285D01*
X128181428Y-78454285D01*
X128371904Y-78501904D01*
X128467142Y-78549523D01*
X128514761Y-78597142D01*
X128562380Y-78692380D01*
X128562380Y-78787619D01*
X128514761Y-78882857D01*
X128467142Y-78930476D01*
X128371904Y-78978095D01*
X128181428Y-79025714D01*
X127943333Y-79025714D01*
X127752857Y-78978095D01*
X127657619Y-78930476D01*
X127610000Y-78882857D01*
X127562380Y-78787619D01*
X127562380Y-77835238D02*
X127562380Y-77740000D01*
X127610000Y-77644761D01*
X127657619Y-77597142D01*
X127752857Y-77549523D01*
X127943333Y-77501904D01*
X128181428Y-77501904D01*
X128371904Y-77549523D01*
X128467142Y-77597142D01*
X128514761Y-77644761D01*
X128562380Y-77740000D01*
X128562380Y-77835238D01*
X128514761Y-77930476D01*
X128467142Y-77978095D01*
X128371904Y-78025714D01*
X128181428Y-78073333D01*
X127943333Y-78073333D01*
X127752857Y-78025714D01*
X127657619Y-77978095D01*
X127610000Y-77930476D01*
X127562380Y-77835238D01*
D12*
X129720952Y-78806666D02*
X129530476Y-78940000D01*
X129720952Y-79035238D02*
X129320952Y-79035238D01*
X129320952Y-78882857D01*
X129340000Y-78844761D01*
X129359047Y-78825714D01*
X129397142Y-78806666D01*
X129454285Y-78806666D01*
X129492380Y-78825714D01*
X129511428Y-78844761D01*
X129530476Y-78882857D01*
X129530476Y-79035238D01*
X129454285Y-78463809D02*
X129720952Y-78463809D01*
X129301904Y-78559047D02*
X129587619Y-78654285D01*
X129587619Y-78406666D01*
D10*
%TO.C,R3*%
X122482380Y-82637142D02*
X122482380Y-83113333D01*
X122958571Y-83160952D01*
X122910952Y-83113333D01*
X122863333Y-83018095D01*
X122863333Y-82780000D01*
X122910952Y-82684761D01*
X122958571Y-82637142D01*
X123053809Y-82589523D01*
X123291904Y-82589523D01*
X123387142Y-82637142D01*
X123434761Y-82684761D01*
X123482380Y-82780000D01*
X123482380Y-83018095D01*
X123434761Y-83113333D01*
X123387142Y-83160952D01*
X123482380Y-81637142D02*
X123482380Y-82208571D01*
X123482380Y-81922857D02*
X122482380Y-81922857D01*
X122625238Y-82018095D01*
X122720476Y-82113333D01*
X122768095Y-82208571D01*
X123387142Y-81208571D02*
X123434761Y-81160952D01*
X123482380Y-81208571D01*
X123434761Y-81256190D01*
X123387142Y-81208571D01*
X123482380Y-81208571D01*
X123482380Y-80208571D02*
X123482380Y-80780000D01*
X123482380Y-80494285D02*
X122482380Y-80494285D01*
X122625238Y-80589523D01*
X122720476Y-80684761D01*
X122768095Y-80780000D01*
X123482380Y-79780000D02*
X122482380Y-79780000D01*
X123101428Y-79684761D02*
X123482380Y-79399047D01*
X122815714Y-79399047D02*
X123196666Y-79780000D01*
D12*
X124640952Y-81346666D02*
X124450476Y-81480000D01*
X124640952Y-81575238D02*
X124240952Y-81575238D01*
X124240952Y-81422857D01*
X124260000Y-81384761D01*
X124279047Y-81365714D01*
X124317142Y-81346666D01*
X124374285Y-81346666D01*
X124412380Y-81365714D01*
X124431428Y-81384761D01*
X124450476Y-81422857D01*
X124450476Y-81575238D01*
X124240952Y-81213333D02*
X124240952Y-80965714D01*
X124393333Y-81099047D01*
X124393333Y-81041904D01*
X124412380Y-81003809D01*
X124431428Y-80984761D01*
X124469523Y-80965714D01*
X124564761Y-80965714D01*
X124602857Y-80984761D01*
X124621904Y-81003809D01*
X124640952Y-81041904D01*
X124640952Y-81156190D01*
X124621904Y-81194285D01*
X124602857Y-81213333D01*
D10*
%TO.C,R1*%
X109877619Y-69341904D02*
X109830000Y-69294285D01*
X109782380Y-69199047D01*
X109782380Y-68960952D01*
X109830000Y-68865714D01*
X109877619Y-68818095D01*
X109972857Y-68770476D01*
X110068095Y-68770476D01*
X110210952Y-68818095D01*
X110782380Y-69389523D01*
X110782380Y-68770476D01*
X109782380Y-68151428D02*
X109782380Y-68056190D01*
X109830000Y-67960952D01*
X109877619Y-67913333D01*
X109972857Y-67865714D01*
X110163333Y-67818095D01*
X110401428Y-67818095D01*
X110591904Y-67865714D01*
X110687142Y-67913333D01*
X110734761Y-67960952D01*
X110782380Y-68056190D01*
X110782380Y-68151428D01*
X110734761Y-68246666D01*
X110687142Y-68294285D01*
X110591904Y-68341904D01*
X110401428Y-68389523D01*
X110163333Y-68389523D01*
X109972857Y-68341904D01*
X109877619Y-68294285D01*
X109830000Y-68246666D01*
X109782380Y-68151428D01*
D12*
X111940952Y-68646666D02*
X111750476Y-68780000D01*
X111940952Y-68875238D02*
X111540952Y-68875238D01*
X111540952Y-68722857D01*
X111560000Y-68684761D01*
X111579047Y-68665714D01*
X111617142Y-68646666D01*
X111674285Y-68646666D01*
X111712380Y-68665714D01*
X111731428Y-68684761D01*
X111750476Y-68722857D01*
X111750476Y-68875238D01*
X111940952Y-68265714D02*
X111940952Y-68494285D01*
X111940952Y-68380000D02*
X111540952Y-68380000D01*
X111598095Y-68418095D01*
X111636190Y-68456190D01*
X111655238Y-68494285D01*
D10*
%TO.C,R5*%
X134887619Y-82708571D02*
X134840000Y-82660952D01*
X134792380Y-82565714D01*
X134792380Y-82327619D01*
X134840000Y-82232380D01*
X134887619Y-82184761D01*
X134982857Y-82137142D01*
X135078095Y-82137142D01*
X135220952Y-82184761D01*
X135792380Y-82756190D01*
X135792380Y-82137142D01*
X134792380Y-81232380D02*
X134792380Y-81708571D01*
X135268571Y-81756190D01*
X135220952Y-81708571D01*
X135173333Y-81613333D01*
X135173333Y-81375238D01*
X135220952Y-81280000D01*
X135268571Y-81232380D01*
X135363809Y-81184761D01*
X135601904Y-81184761D01*
X135697142Y-81232380D01*
X135744761Y-81280000D01*
X135792380Y-81375238D01*
X135792380Y-81613333D01*
X135744761Y-81708571D01*
X135697142Y-81756190D01*
X135792380Y-80756190D02*
X135125714Y-80756190D01*
X135220952Y-80756190D02*
X135173333Y-80708571D01*
X135125714Y-80613333D01*
X135125714Y-80470476D01*
X135173333Y-80375238D01*
X135268571Y-80327619D01*
X135792380Y-80327619D01*
X135268571Y-80327619D02*
X135173333Y-80280000D01*
X135125714Y-80184761D01*
X135125714Y-80041904D01*
X135173333Y-79946666D01*
X135268571Y-79899047D01*
X135792380Y-79899047D01*
D14*
X137521904Y-81413333D02*
X137140952Y-81680000D01*
X137521904Y-81870476D02*
X136721904Y-81870476D01*
X136721904Y-81565714D01*
X136760000Y-81489523D01*
X136798095Y-81451428D01*
X136874285Y-81413333D01*
X136988571Y-81413333D01*
X137064761Y-81451428D01*
X137102857Y-81489523D01*
X137140952Y-81565714D01*
X137140952Y-81870476D01*
X136721904Y-80689523D02*
X136721904Y-81070476D01*
X137102857Y-81108571D01*
X137064761Y-81070476D01*
X137026666Y-80994285D01*
X137026666Y-80803809D01*
X137064761Y-80727619D01*
X137102857Y-80689523D01*
X137179047Y-80651428D01*
X137369523Y-80651428D01*
X137445714Y-80689523D01*
X137483809Y-80727619D01*
X137521904Y-80803809D01*
X137521904Y-80994285D01*
X137483809Y-81070476D01*
X137445714Y-81108571D01*
D10*
%TO.C,R2*%
X114900952Y-72167619D02*
X114853333Y-72262857D01*
X114805714Y-72310476D01*
X114710476Y-72358095D01*
X114662857Y-72358095D01*
X114567619Y-72310476D01*
X114520000Y-72262857D01*
X114472380Y-72167619D01*
X114472380Y-71977142D01*
X114520000Y-71881904D01*
X114567619Y-71834285D01*
X114662857Y-71786666D01*
X114710476Y-71786666D01*
X114805714Y-71834285D01*
X114853333Y-71881904D01*
X114900952Y-71977142D01*
X114900952Y-72167619D01*
X114948571Y-72262857D01*
X114996190Y-72310476D01*
X115091428Y-72358095D01*
X115281904Y-72358095D01*
X115377142Y-72310476D01*
X115424761Y-72262857D01*
X115472380Y-72167619D01*
X115472380Y-71977142D01*
X115424761Y-71881904D01*
X115377142Y-71834285D01*
X115281904Y-71786666D01*
X115091428Y-71786666D01*
X114996190Y-71834285D01*
X114948571Y-71881904D01*
X114900952Y-71977142D01*
X114900952Y-71215238D02*
X114853333Y-71310476D01*
X114805714Y-71358095D01*
X114710476Y-71405714D01*
X114662857Y-71405714D01*
X114567619Y-71358095D01*
X114520000Y-71310476D01*
X114472380Y-71215238D01*
X114472380Y-71024761D01*
X114520000Y-70929523D01*
X114567619Y-70881904D01*
X114662857Y-70834285D01*
X114710476Y-70834285D01*
X114805714Y-70881904D01*
X114853333Y-70929523D01*
X114900952Y-71024761D01*
X114900952Y-71215238D01*
X114948571Y-71310476D01*
X114996190Y-71358095D01*
X115091428Y-71405714D01*
X115281904Y-71405714D01*
X115377142Y-71358095D01*
X115424761Y-71310476D01*
X115472380Y-71215238D01*
X115472380Y-71024761D01*
X115424761Y-70929523D01*
X115377142Y-70881904D01*
X115281904Y-70834285D01*
X115091428Y-70834285D01*
X114996190Y-70881904D01*
X114948571Y-70929523D01*
X114900952Y-71024761D01*
X114472380Y-70500952D02*
X114472380Y-69834285D01*
X115472380Y-70262857D01*
D14*
X117201904Y-71253333D02*
X116820952Y-71520000D01*
X117201904Y-71710476D02*
X116401904Y-71710476D01*
X116401904Y-71405714D01*
X116440000Y-71329523D01*
X116478095Y-71291428D01*
X116554285Y-71253333D01*
X116668571Y-71253333D01*
X116744761Y-71291428D01*
X116782857Y-71329523D01*
X116820952Y-71405714D01*
X116820952Y-71710476D01*
X116478095Y-70948571D02*
X116440000Y-70910476D01*
X116401904Y-70834285D01*
X116401904Y-70643809D01*
X116440000Y-70567619D01*
X116478095Y-70529523D01*
X116554285Y-70491428D01*
X116630476Y-70491428D01*
X116744761Y-70529523D01*
X117201904Y-70986666D01*
X117201904Y-70491428D01*
D10*
%TO.C,L1*%
X95257142Y-57652380D02*
X94685714Y-57652380D01*
X94971428Y-57652380D02*
X94971428Y-56652380D01*
X94876190Y-56795238D01*
X94780952Y-56890476D01*
X94685714Y-56938095D01*
X95876190Y-56652380D02*
X95971428Y-56652380D01*
X96066666Y-56700000D01*
X96114285Y-56747619D01*
X96161904Y-56842857D01*
X96209523Y-57033333D01*
X96209523Y-57271428D01*
X96161904Y-57461904D01*
X96114285Y-57557142D01*
X96066666Y-57604761D01*
X95971428Y-57652380D01*
X95876190Y-57652380D01*
X95780952Y-57604761D01*
X95733333Y-57557142D01*
X95685714Y-57461904D01*
X95638095Y-57271428D01*
X95638095Y-57033333D01*
X95685714Y-56842857D01*
X95733333Y-56747619D01*
X95780952Y-56700000D01*
X95876190Y-56652380D01*
X97066666Y-56985714D02*
X97066666Y-57652380D01*
X96638095Y-56985714D02*
X96638095Y-57509523D01*
X96685714Y-57604761D01*
X96780952Y-57652380D01*
X96923809Y-57652380D01*
X97019047Y-57604761D01*
X97066666Y-57557142D01*
%TO.C,D1*%
X135802857Y-56688571D02*
X135945714Y-56736190D01*
X135993333Y-56783809D01*
X136040952Y-56879047D01*
X136040952Y-57021904D01*
X135993333Y-57117142D01*
X135945714Y-57164761D01*
X135850476Y-57212380D01*
X135469523Y-57212380D01*
X135469523Y-56212380D01*
X135802857Y-56212380D01*
X135898095Y-56260000D01*
X135945714Y-56307619D01*
X135993333Y-56402857D01*
X135993333Y-56498095D01*
X135945714Y-56593333D01*
X135898095Y-56640952D01*
X135802857Y-56688571D01*
X135469523Y-56688571D01*
X136374285Y-56212380D02*
X136993333Y-56212380D01*
X136660000Y-56593333D01*
X136802857Y-56593333D01*
X136898095Y-56640952D01*
X136945714Y-56688571D01*
X136993333Y-56783809D01*
X136993333Y-57021904D01*
X136945714Y-57117142D01*
X136898095Y-57164761D01*
X136802857Y-57212380D01*
X136517142Y-57212380D01*
X136421904Y-57164761D01*
X136374285Y-57117142D01*
X137850476Y-56545714D02*
X137850476Y-57212380D01*
X137612380Y-56164761D02*
X137374285Y-56879047D01*
X137993333Y-56879047D01*
X138564761Y-56212380D02*
X138660000Y-56212380D01*
X138755238Y-56260000D01*
X138802857Y-56307619D01*
X138850476Y-56402857D01*
X138898095Y-56593333D01*
X138898095Y-56831428D01*
X138850476Y-57021904D01*
X138802857Y-57117142D01*
X138755238Y-57164761D01*
X138660000Y-57212380D01*
X138564761Y-57212380D01*
X138469523Y-57164761D01*
X138421904Y-57117142D01*
X138374285Y-57021904D01*
X138326666Y-56831428D01*
X138326666Y-56593333D01*
X138374285Y-56402857D01*
X138421904Y-56307619D01*
X138469523Y-56260000D01*
X138564761Y-56212380D01*
X136421904Y-63312380D02*
X136421904Y-62312380D01*
X136660000Y-62312380D01*
X136802857Y-62360000D01*
X136898095Y-62455238D01*
X136945714Y-62550476D01*
X136993333Y-62740952D01*
X136993333Y-62883809D01*
X136945714Y-63074285D01*
X136898095Y-63169523D01*
X136802857Y-63264761D01*
X136660000Y-63312380D01*
X136421904Y-63312380D01*
X137945714Y-63312380D02*
X137374285Y-63312380D01*
X137660000Y-63312380D02*
X137660000Y-62312380D01*
X137564761Y-62455238D01*
X137469523Y-62550476D01*
X137374285Y-62598095D01*
%TO.C,SC1*%
X94904761Y-78004761D02*
X95047619Y-78052380D01*
X95285714Y-78052380D01*
X95380952Y-78004761D01*
X95428571Y-77957142D01*
X95476190Y-77861904D01*
X95476190Y-77766666D01*
X95428571Y-77671428D01*
X95380952Y-77623809D01*
X95285714Y-77576190D01*
X95095238Y-77528571D01*
X95000000Y-77480952D01*
X94952380Y-77433333D01*
X94904761Y-77338095D01*
X94904761Y-77242857D01*
X94952380Y-77147619D01*
X95000000Y-77100000D01*
X95095238Y-77052380D01*
X95333333Y-77052380D01*
X95476190Y-77100000D01*
X96047619Y-78052380D02*
X95952380Y-78004761D01*
X95904761Y-77957142D01*
X95857142Y-77861904D01*
X95857142Y-77576190D01*
X95904761Y-77480952D01*
X95952380Y-77433333D01*
X96047619Y-77385714D01*
X96190476Y-77385714D01*
X96285714Y-77433333D01*
X96333333Y-77480952D01*
X96380952Y-77576190D01*
X96380952Y-77861904D01*
X96333333Y-77957142D01*
X96285714Y-78004761D01*
X96190476Y-78052380D01*
X96047619Y-78052380D01*
X96952380Y-78052380D02*
X96857142Y-78004761D01*
X96809523Y-77909523D01*
X96809523Y-77052380D01*
X97761904Y-78052380D02*
X97761904Y-77528571D01*
X97714285Y-77433333D01*
X97619047Y-77385714D01*
X97428571Y-77385714D01*
X97333333Y-77433333D01*
X97761904Y-78004761D02*
X97666666Y-78052380D01*
X97428571Y-78052380D01*
X97333333Y-78004761D01*
X97285714Y-77909523D01*
X97285714Y-77814285D01*
X97333333Y-77719047D01*
X97428571Y-77671428D01*
X97666666Y-77671428D01*
X97761904Y-77623809D01*
X98238095Y-78052380D02*
X98238095Y-77385714D01*
X98238095Y-77576190D02*
X98285714Y-77480952D01*
X98333333Y-77433333D01*
X98428571Y-77385714D01*
X98523809Y-77385714D01*
X98619047Y-78147619D02*
X99380952Y-78147619D01*
X100190476Y-77957142D02*
X100142857Y-78004761D01*
X100000000Y-78052380D01*
X99904761Y-78052380D01*
X99761904Y-78004761D01*
X99666666Y-77909523D01*
X99619047Y-77814285D01*
X99571428Y-77623809D01*
X99571428Y-77480952D01*
X99619047Y-77290476D01*
X99666666Y-77195238D01*
X99761904Y-77100000D01*
X99904761Y-77052380D01*
X100000000Y-77052380D01*
X100142857Y-77100000D01*
X100190476Y-77147619D01*
X101000000Y-78004761D02*
X100904761Y-78052380D01*
X100714285Y-78052380D01*
X100619047Y-78004761D01*
X100571428Y-77909523D01*
X100571428Y-77528571D01*
X100619047Y-77433333D01*
X100714285Y-77385714D01*
X100904761Y-77385714D01*
X101000000Y-77433333D01*
X101047619Y-77528571D01*
X101047619Y-77623809D01*
X100571428Y-77719047D01*
X101619047Y-78052380D02*
X101523809Y-78004761D01*
X101476190Y-77909523D01*
X101476190Y-77052380D01*
X102142857Y-78052380D02*
X102047619Y-78004761D01*
X102000000Y-77909523D01*
X102000000Y-77052380D01*
%TO.C,U1*%
X121404761Y-76652380D02*
X120928571Y-76652380D01*
X120928571Y-75652380D01*
X121738095Y-76652380D02*
X121738095Y-75652380D01*
X122071428Y-76366666D01*
X122404761Y-75652380D01*
X122404761Y-76652380D01*
X122785714Y-75652380D02*
X123404761Y-75652380D01*
X123071428Y-76033333D01*
X123214285Y-76033333D01*
X123309523Y-76080952D01*
X123357142Y-76128571D01*
X123404761Y-76223809D01*
X123404761Y-76461904D01*
X123357142Y-76557142D01*
X123309523Y-76604761D01*
X123214285Y-76652380D01*
X122928571Y-76652380D01*
X122833333Y-76604761D01*
X122785714Y-76557142D01*
X124261904Y-75985714D02*
X124261904Y-76652380D01*
X124023809Y-75604761D02*
X123785714Y-76319047D01*
X124404761Y-76319047D01*
X124690476Y-75652380D02*
X125357142Y-75652380D01*
X124928571Y-76652380D01*
X125880952Y-76080952D02*
X125785714Y-76033333D01*
X125738095Y-75985714D01*
X125690476Y-75890476D01*
X125690476Y-75842857D01*
X125738095Y-75747619D01*
X125785714Y-75700000D01*
X125880952Y-75652380D01*
X126071428Y-75652380D01*
X126166666Y-75700000D01*
X126214285Y-75747619D01*
X126261904Y-75842857D01*
X126261904Y-75890476D01*
X126214285Y-75985714D01*
X126166666Y-76033333D01*
X126071428Y-76080952D01*
X125880952Y-76080952D01*
X125785714Y-76128571D01*
X125738095Y-76176190D01*
X125690476Y-76271428D01*
X125690476Y-76461904D01*
X125738095Y-76557142D01*
X125785714Y-76604761D01*
X125880952Y-76652380D01*
X126071428Y-76652380D01*
X126166666Y-76604761D01*
X126214285Y-76557142D01*
X126261904Y-76461904D01*
X126261904Y-76271428D01*
X126214285Y-76176190D01*
X126166666Y-76128571D01*
X126071428Y-76080952D01*
X126690476Y-76652380D02*
X126690476Y-75652380D01*
X127023809Y-76366666D01*
X127357142Y-75652380D01*
X127357142Y-76652380D01*
X127785714Y-76366666D02*
X128261904Y-76366666D01*
X127690476Y-76652380D02*
X128023809Y-75652380D01*
X128357142Y-76652380D01*
X128452380Y-76747619D02*
X129214285Y-76747619D01*
X129452380Y-76652380D02*
X129452380Y-75652380D01*
X130023809Y-76652380D01*
X130023809Y-75652380D01*
X130690476Y-75652380D02*
X130880952Y-75652380D01*
X130976190Y-75700000D01*
X131071428Y-75795238D01*
X131119047Y-75985714D01*
X131119047Y-76319047D01*
X131071428Y-76509523D01*
X130976190Y-76604761D01*
X130880952Y-76652380D01*
X130690476Y-76652380D01*
X130595238Y-76604761D01*
X130500000Y-76509523D01*
X130452380Y-76319047D01*
X130452380Y-75985714D01*
X130500000Y-75795238D01*
X130595238Y-75700000D01*
X130690476Y-75652380D01*
X131547619Y-76652380D02*
X131547619Y-75652380D01*
X131928571Y-75652380D01*
X132023809Y-75700000D01*
X132071428Y-75747619D01*
X132119047Y-75842857D01*
X132119047Y-75985714D01*
X132071428Y-76080952D01*
X132023809Y-76128571D01*
X131928571Y-76176190D01*
X131547619Y-76176190D01*
X132880952Y-76128571D02*
X133023809Y-76176190D01*
X133071428Y-76223809D01*
X133119047Y-76319047D01*
X133119047Y-76461904D01*
X133071428Y-76557142D01*
X133023809Y-76604761D01*
X132928571Y-76652380D01*
X132547619Y-76652380D01*
X132547619Y-75652380D01*
X132880952Y-75652380D01*
X132976190Y-75700000D01*
X133023809Y-75747619D01*
X133071428Y-75842857D01*
X133071428Y-75938095D01*
X133023809Y-76033333D01*
X132976190Y-76080952D01*
X132880952Y-76128571D01*
X132547619Y-76128571D01*
X126253333Y-70583333D02*
X126253333Y-71376666D01*
X126300000Y-71470000D01*
X126346666Y-71516666D01*
X126440000Y-71563333D01*
X126626666Y-71563333D01*
X126720000Y-71516666D01*
X126766666Y-71470000D01*
X126813333Y-71376666D01*
X126813333Y-70583333D01*
X127793333Y-71563333D02*
X127233333Y-71563333D01*
X127513333Y-71563333D02*
X127513333Y-70583333D01*
X127420000Y-70723333D01*
X127326666Y-70816666D01*
X127233333Y-70863333D01*
%TO.C,R7*%
X144819761Y-81097380D02*
X144248333Y-81097380D01*
X144534047Y-81097380D02*
X144534047Y-80097380D01*
X144438809Y-80240238D01*
X144343571Y-80335476D01*
X144248333Y-80383095D01*
X145438809Y-80097380D02*
X145534047Y-80097380D01*
X145629285Y-80145000D01*
X145676904Y-80192619D01*
X145724523Y-80287857D01*
X145772142Y-80478333D01*
X145772142Y-80716428D01*
X145724523Y-80906904D01*
X145676904Y-81002142D01*
X145629285Y-81049761D01*
X145534047Y-81097380D01*
X145438809Y-81097380D01*
X145343571Y-81049761D01*
X145295952Y-81002142D01*
X145248333Y-80906904D01*
X145200714Y-80716428D01*
X145200714Y-80478333D01*
X145248333Y-80287857D01*
X145295952Y-80192619D01*
X145343571Y-80145000D01*
X145438809Y-80097380D01*
X146200714Y-81097380D02*
X146200714Y-80097380D01*
X146295952Y-80716428D02*
X146581666Y-81097380D01*
X146581666Y-80430714D02*
X146200714Y-80811666D01*
D13*
X145006190Y-76283333D02*
X144768095Y-76450000D01*
X145006190Y-76569047D02*
X144506190Y-76569047D01*
X144506190Y-76378571D01*
X144530000Y-76330952D01*
X144553809Y-76307142D01*
X144601428Y-76283333D01*
X144672857Y-76283333D01*
X144720476Y-76307142D01*
X144744285Y-76330952D01*
X144768095Y-76378571D01*
X144768095Y-76569047D01*
X144506190Y-76116666D02*
X144506190Y-75783333D01*
X145006190Y-75997619D01*
D10*
%TO.C,Q1*%
X132048809Y-67032142D02*
X132001190Y-67079761D01*
X131858333Y-67127380D01*
X131763095Y-67127380D01*
X131620238Y-67079761D01*
X131525000Y-66984523D01*
X131477380Y-66889285D01*
X131429761Y-66698809D01*
X131429761Y-66555952D01*
X131477380Y-66365476D01*
X131525000Y-66270238D01*
X131620238Y-66175000D01*
X131763095Y-66127380D01*
X131858333Y-66127380D01*
X132001190Y-66175000D01*
X132048809Y-66222619D01*
X132429761Y-67079761D02*
X132572619Y-67127380D01*
X132810714Y-67127380D01*
X132905952Y-67079761D01*
X132953571Y-67032142D01*
X133001190Y-66936904D01*
X133001190Y-66841666D01*
X132953571Y-66746428D01*
X132905952Y-66698809D01*
X132810714Y-66651190D01*
X132620238Y-66603571D01*
X132525000Y-66555952D01*
X132477380Y-66508333D01*
X132429761Y-66413095D01*
X132429761Y-66317857D01*
X132477380Y-66222619D01*
X132525000Y-66175000D01*
X132620238Y-66127380D01*
X132858333Y-66127380D01*
X133001190Y-66175000D01*
X133429761Y-67127380D02*
X133429761Y-66127380D01*
X133667857Y-66127380D01*
X133810714Y-66175000D01*
X133905952Y-66270238D01*
X133953571Y-66365476D01*
X134001190Y-66555952D01*
X134001190Y-66698809D01*
X133953571Y-66889285D01*
X133905952Y-66984523D01*
X133810714Y-67079761D01*
X133667857Y-67127380D01*
X133429761Y-67127380D01*
X134953571Y-67127380D02*
X134382142Y-67127380D01*
X134667857Y-67127380D02*
X134667857Y-66127380D01*
X134572619Y-66270238D01*
X134477380Y-66365476D01*
X134382142Y-66413095D01*
X135810714Y-66127380D02*
X135620238Y-66127380D01*
X135525000Y-66175000D01*
X135477380Y-66222619D01*
X135382142Y-66365476D01*
X135334523Y-66555952D01*
X135334523Y-66936904D01*
X135382142Y-67032142D01*
X135429761Y-67079761D01*
X135525000Y-67127380D01*
X135715476Y-67127380D01*
X135810714Y-67079761D01*
X135858333Y-67032142D01*
X135905952Y-66936904D01*
X135905952Y-66698809D01*
X135858333Y-66603571D01*
X135810714Y-66555952D01*
X135715476Y-66508333D01*
X135525000Y-66508333D01*
X135429761Y-66555952D01*
X135382142Y-66603571D01*
X135334523Y-66698809D01*
X136763095Y-66460714D02*
X136763095Y-67127380D01*
X136525000Y-66079761D02*
X136286904Y-66794047D01*
X136905952Y-66794047D01*
X137810714Y-67127380D02*
X137239285Y-67127380D01*
X137525000Y-67127380D02*
X137525000Y-66127380D01*
X137429761Y-66270238D01*
X137334523Y-66365476D01*
X137239285Y-66413095D01*
X138429761Y-66127380D02*
X138525000Y-66127380D01*
X138620238Y-66175000D01*
X138667857Y-66222619D01*
X138715476Y-66317857D01*
X138763095Y-66508333D01*
X138763095Y-66746428D01*
X138715476Y-66936904D01*
X138667857Y-67032142D01*
X138620238Y-67079761D01*
X138525000Y-67127380D01*
X138429761Y-67127380D01*
X138334523Y-67079761D01*
X138286904Y-67032142D01*
X138239285Y-66936904D01*
X138191666Y-66746428D01*
X138191666Y-66508333D01*
X138239285Y-66317857D01*
X138286904Y-66222619D01*
X138334523Y-66175000D01*
X138429761Y-66127380D01*
X139858333Y-67222619D02*
X139763095Y-67175000D01*
X139667857Y-67079761D01*
X139525000Y-66936904D01*
X139429761Y-66889285D01*
X139334523Y-66889285D01*
X139382142Y-67127380D02*
X139286904Y-67079761D01*
X139191666Y-66984523D01*
X139144047Y-66794047D01*
X139144047Y-66460714D01*
X139191666Y-66270238D01*
X139286904Y-66175000D01*
X139382142Y-66127380D01*
X139572619Y-66127380D01*
X139667857Y-66175000D01*
X139763095Y-66270238D01*
X139810714Y-66460714D01*
X139810714Y-66794047D01*
X139763095Y-66984523D01*
X139667857Y-67079761D01*
X139572619Y-67127380D01*
X139382142Y-67127380D01*
X140715476Y-66127380D02*
X140239285Y-66127380D01*
X140191666Y-66603571D01*
X140239285Y-66555952D01*
X140334523Y-66508333D01*
X140572619Y-66508333D01*
X140667857Y-66555952D01*
X140715476Y-66603571D01*
X140763095Y-66698809D01*
X140763095Y-66936904D01*
X140715476Y-67032142D01*
X140667857Y-67079761D01*
X140572619Y-67127380D01*
X140334523Y-67127380D01*
X140239285Y-67079761D01*
X140191666Y-67032142D01*
X141144047Y-66841666D02*
X141620238Y-66841666D01*
X141048809Y-67127380D02*
X141382142Y-66127380D01*
X141715476Y-67127380D01*
X137707619Y-71215238D02*
X137660000Y-71310476D01*
X137564761Y-71405714D01*
X137421904Y-71548571D01*
X137374285Y-71643809D01*
X137374285Y-71739047D01*
X137612380Y-71691428D02*
X137564761Y-71786666D01*
X137469523Y-71881904D01*
X137279047Y-71929523D01*
X136945714Y-71929523D01*
X136755238Y-71881904D01*
X136660000Y-71786666D01*
X136612380Y-71691428D01*
X136612380Y-71500952D01*
X136660000Y-71405714D01*
X136755238Y-71310476D01*
X136945714Y-71262857D01*
X137279047Y-71262857D01*
X137469523Y-71310476D01*
X137564761Y-71405714D01*
X137612380Y-71500952D01*
X137612380Y-71691428D01*
X137612380Y-70310476D02*
X137612380Y-70881904D01*
X137612380Y-70596190D02*
X136612380Y-70596190D01*
X136755238Y-70691428D01*
X136850476Y-70786666D01*
X136898095Y-70881904D01*
%TO.C,J1*%
X159853571Y-79462380D02*
X159853571Y-80271904D01*
X159901190Y-80367142D01*
X159948809Y-80414761D01*
X160044047Y-80462380D01*
X160234523Y-80462380D01*
X160329761Y-80414761D01*
X160377380Y-80367142D01*
X160425000Y-80271904D01*
X160425000Y-79462380D01*
X160853571Y-80414761D02*
X160996428Y-80462380D01*
X161234523Y-80462380D01*
X161329761Y-80414761D01*
X161377380Y-80367142D01*
X161425000Y-80271904D01*
X161425000Y-80176666D01*
X161377380Y-80081428D01*
X161329761Y-80033809D01*
X161234523Y-79986190D01*
X161044047Y-79938571D01*
X160948809Y-79890952D01*
X160901190Y-79843333D01*
X160853571Y-79748095D01*
X160853571Y-79652857D01*
X160901190Y-79557619D01*
X160948809Y-79510000D01*
X161044047Y-79462380D01*
X161282142Y-79462380D01*
X161425000Y-79510000D01*
X162186904Y-79938571D02*
X162329761Y-79986190D01*
X162377380Y-80033809D01*
X162425000Y-80129047D01*
X162425000Y-80271904D01*
X162377380Y-80367142D01*
X162329761Y-80414761D01*
X162234523Y-80462380D01*
X161853571Y-80462380D01*
X161853571Y-79462380D01*
X162186904Y-79462380D01*
X162282142Y-79510000D01*
X162329761Y-79557619D01*
X162377380Y-79652857D01*
X162377380Y-79748095D01*
X162329761Y-79843333D01*
X162282142Y-79890952D01*
X162186904Y-79938571D01*
X161853571Y-79938571D01*
X162615476Y-80557619D02*
X163377380Y-80557619D01*
X163567857Y-80176666D02*
X164044047Y-80176666D01*
X163472619Y-80462380D02*
X163805952Y-79462380D01*
X164139285Y-80462380D01*
X155272380Y-71453333D02*
X155986666Y-71453333D01*
X156129523Y-71500952D01*
X156224761Y-71596190D01*
X156272380Y-71739047D01*
X156272380Y-71834285D01*
X156272380Y-70453333D02*
X156272380Y-71024761D01*
X156272380Y-70739047D02*
X155272380Y-70739047D01*
X155415238Y-70834285D01*
X155510476Y-70929523D01*
X155558095Y-71024761D01*
D15*
%TO.C,C5*%
X129790000Y-82407500D02*
X129790000Y-83407500D01*
X129790000Y-83407500D02*
X129290000Y-83407500D01*
X129290000Y-83407500D02*
X129290000Y-82407500D01*
X129290000Y-82407500D02*
X129790000Y-82407500D01*
%TO.C,C3*%
X112010000Y-78240000D02*
X112010000Y-79240000D01*
X112010000Y-79240000D02*
X111510000Y-79240000D01*
X111510000Y-79240000D02*
X111510000Y-78240000D01*
X111510000Y-78240000D02*
X112010000Y-78240000D01*
%TO.C,C2*%
X112010000Y-73160000D02*
X112010000Y-74160000D01*
X112010000Y-74160000D02*
X111510000Y-74160000D01*
X111510000Y-74160000D02*
X111510000Y-73160000D01*
X111510000Y-73160000D02*
X112010000Y-73160000D01*
%TO.C,C4*%
X117240000Y-80480000D02*
X117240000Y-82080000D01*
X117240000Y-82080000D02*
X116440000Y-82080000D01*
X116440000Y-82080000D02*
X116440000Y-80480000D01*
X116440000Y-80480000D02*
X117240000Y-80480000D01*
%TO.C,C6*%
X126000000Y-60335000D02*
X128000000Y-60335000D01*
X126000000Y-61585000D02*
X126000000Y-60335000D01*
X128000000Y-61585000D02*
X126000000Y-61585000D01*
X128000000Y-60335000D02*
X128000000Y-61585000D01*
%TO.C,C7*%
X145580000Y-61900000D02*
X145580000Y-65100000D01*
X145580000Y-65100000D02*
X143980000Y-65100000D01*
X143980000Y-65100000D02*
X143980000Y-61900000D01*
X143980000Y-61900000D02*
X145580000Y-61900000D01*
%TO.C,C1*%
X105080000Y-79030000D02*
X108280000Y-79030000D01*
X108280000Y-79030000D02*
X108280000Y-83530000D01*
X108280000Y-83530000D02*
X105080000Y-83530000D01*
X105080000Y-83530000D02*
X105080000Y-79030000D01*
%TO.C,R6*%
X144510000Y-70595000D02*
X145050000Y-70595000D01*
X145050000Y-70595000D02*
X145050000Y-71645000D01*
X144510000Y-71645000D02*
X144510000Y-70595000D01*
X145050000Y-71645000D02*
X144510000Y-71645000D01*
%TO.C,R4*%
X129952500Y-79540000D02*
X129127500Y-79540000D01*
X129952500Y-77940000D02*
X129952500Y-79540000D01*
X129127500Y-79540000D02*
X129127500Y-77940000D01*
X129127500Y-77940000D02*
X129952500Y-77940000D01*
%TO.C,R3*%
X124872500Y-82080000D02*
X124047500Y-82080000D01*
X124872500Y-80480000D02*
X124872500Y-82080000D01*
X124047500Y-82080000D02*
X124047500Y-80480000D01*
X124047500Y-80480000D02*
X124872500Y-80480000D01*
%TO.C,R1*%
X112172500Y-69380000D02*
X111347500Y-69380000D01*
X112172500Y-67780000D02*
X112172500Y-69380000D01*
X111347500Y-69380000D02*
X111347500Y-67780000D01*
X111347500Y-67780000D02*
X112172500Y-67780000D01*
%TO.C,R5*%
X136360000Y-79680000D02*
X137960000Y-79680000D01*
X137960000Y-82880000D02*
X136360000Y-82880000D01*
X137960000Y-79680000D02*
X137960000Y-82880000D01*
X136360000Y-82880000D02*
X136360000Y-79680000D01*
%TO.C,R2*%
X116040000Y-69520000D02*
X117640000Y-69520000D01*
X117640000Y-72720000D02*
X116040000Y-72720000D01*
X117640000Y-69520000D02*
X117640000Y-72720000D01*
X116040000Y-72720000D02*
X116040000Y-69520000D01*
%TO.C,D1*%
X137809440Y-61759080D02*
X137809440Y-60158880D01*
X133610000Y-64060000D02*
X133610000Y-57860000D01*
X137809440Y-60958980D02*
X136658820Y-60209680D01*
X133610000Y-57860000D02*
X140710000Y-57860000D01*
X136658820Y-60209680D02*
X136658820Y-61759080D01*
X137809440Y-60958980D02*
X138711140Y-60958980D01*
X133610000Y-64060000D02*
X140710000Y-64060000D01*
X136658820Y-60958980D02*
X135660600Y-60958980D01*
X137809440Y-60958980D02*
X136658820Y-61759080D01*
X140710000Y-57860000D02*
X140710000Y-64060000D01*
%TO.C,U1*%
X125050000Y-69645000D02*
X126025000Y-68670000D01*
X128950000Y-68670000D02*
X128950000Y-73570000D01*
X125050000Y-73570000D02*
X125050000Y-69645000D01*
X128950000Y-73570000D02*
X125050000Y-73570000D01*
X126025000Y-68670000D02*
X128950000Y-68670000D01*
%TO.C,R7*%
X145405000Y-77200000D02*
X144155000Y-77200000D01*
X145405000Y-75200000D02*
X145405000Y-77200000D01*
X144155000Y-75200000D02*
X145405000Y-75200000D01*
X144155000Y-77200000D02*
X144155000Y-75200000D01*
%TO.C,Q1*%
X134585000Y-68170000D02*
X139735000Y-68170000D01*
X134585000Y-73070000D02*
X134585000Y-68170000D01*
X139735000Y-68170000D02*
X139735000Y-74070000D01*
X134585000Y-73070000D02*
X135585000Y-74070000D01*
X139735000Y-74070000D02*
X135585000Y-74070000D01*
%TO.C,J1*%
X165110000Y-78320000D02*
X165110000Y-63920000D01*
X164810000Y-77670000D02*
X149850000Y-77670000D01*
X149850000Y-64570000D02*
X164810000Y-64570000D01*
X149850000Y-77670000D02*
X149850000Y-64570000D01*
X150850000Y-74620000D02*
X149850000Y-73620000D01*
X149850000Y-75620000D02*
X150850000Y-74620000D01*
X164810000Y-78320000D02*
X165110000Y-78320000D01*
X165110000Y-63920000D02*
X164810000Y-63920000D01*
X164810000Y-63920000D02*
X164810000Y-64570000D01*
X161390000Y-77670000D02*
X161390000Y-64570000D01*
X164810000Y-77670000D02*
X164810000Y-78320000D01*
%TD*%
M02*
