%TF.GenerationSoftware,KiCad,Pcbnew,(6.0.4)*%
%TF.CreationDate,2022-04-27T12:43:55-07:00*%
%TF.ProjectId,SolarChargerV2,536f6c61-7243-4686-9172-67657256322e,rev?*%
%TF.SameCoordinates,Original*%
%TF.FileFunction,Legend,Top*%
%TF.FilePolarity,Positive*%
%FSLAX46Y46*%
G04 Gerber Fmt 4.6, Leading zero omitted, Abs format (unit mm)*
G04 Created by KiCad (PCBNEW (6.0.4)) date 2022-04-27 12:43:55*
%MOMM*%
%LPD*%
G01*
G04 APERTURE LIST*
%ADD10C,0.150000*%
%ADD11C,0.125000*%
%ADD12C,0.120000*%
G04 APERTURE END LIST*
D10*
X95223809Y-47204761D02*
X95366666Y-47252380D01*
X95604761Y-47252380D01*
X95700000Y-47204761D01*
X95747619Y-47157142D01*
X95795238Y-47061904D01*
X95795238Y-46966666D01*
X95747619Y-46871428D01*
X95700000Y-46823809D01*
X95604761Y-46776190D01*
X95414285Y-46728571D01*
X95319047Y-46680952D01*
X95271428Y-46633333D01*
X95223809Y-46538095D01*
X95223809Y-46442857D01*
X95271428Y-46347619D01*
X95319047Y-46300000D01*
X95414285Y-46252380D01*
X95652380Y-46252380D01*
X95795238Y-46300000D01*
X96366666Y-47252380D02*
X96271428Y-47204761D01*
X96223809Y-47157142D01*
X96176190Y-47061904D01*
X96176190Y-46776190D01*
X96223809Y-46680952D01*
X96271428Y-46633333D01*
X96366666Y-46585714D01*
X96509523Y-46585714D01*
X96604761Y-46633333D01*
X96652380Y-46680952D01*
X96700000Y-46776190D01*
X96700000Y-47061904D01*
X96652380Y-47157142D01*
X96604761Y-47204761D01*
X96509523Y-47252380D01*
X96366666Y-47252380D01*
X97271428Y-47252380D02*
X97176190Y-47204761D01*
X97128571Y-47109523D01*
X97128571Y-46252380D01*
X98080952Y-47252380D02*
X98080952Y-46728571D01*
X98033333Y-46633333D01*
X97938095Y-46585714D01*
X97747619Y-46585714D01*
X97652380Y-46633333D01*
X98080952Y-47204761D02*
X97985714Y-47252380D01*
X97747619Y-47252380D01*
X97652380Y-47204761D01*
X97604761Y-47109523D01*
X97604761Y-47014285D01*
X97652380Y-46919047D01*
X97747619Y-46871428D01*
X97985714Y-46871428D01*
X98080952Y-46823809D01*
X98557142Y-47252380D02*
X98557142Y-46585714D01*
X98557142Y-46776190D02*
X98604761Y-46680952D01*
X98652380Y-46633333D01*
X98747619Y-46585714D01*
X98842857Y-46585714D01*
X99938095Y-47252380D02*
X99938095Y-46252380D01*
X100319047Y-46252380D01*
X100414285Y-46300000D01*
X100461904Y-46347619D01*
X100509523Y-46442857D01*
X100509523Y-46585714D01*
X100461904Y-46680952D01*
X100414285Y-46728571D01*
X100319047Y-46776190D01*
X99938095Y-46776190D01*
X101080952Y-47252380D02*
X100985714Y-47204761D01*
X100938095Y-47157142D01*
X100890476Y-47061904D01*
X100890476Y-46776190D01*
X100938095Y-46680952D01*
X100985714Y-46633333D01*
X101080952Y-46585714D01*
X101223809Y-46585714D01*
X101319047Y-46633333D01*
X101366666Y-46680952D01*
X101414285Y-46776190D01*
X101414285Y-47061904D01*
X101366666Y-47157142D01*
X101319047Y-47204761D01*
X101223809Y-47252380D01*
X101080952Y-47252380D01*
X101747619Y-46585714D02*
X101938095Y-47252380D01*
X102128571Y-46776190D01*
X102319047Y-47252380D01*
X102509523Y-46585714D01*
X103271428Y-47204761D02*
X103176190Y-47252380D01*
X102985714Y-47252380D01*
X102890476Y-47204761D01*
X102842857Y-47109523D01*
X102842857Y-46728571D01*
X102890476Y-46633333D01*
X102985714Y-46585714D01*
X103176190Y-46585714D01*
X103271428Y-46633333D01*
X103319047Y-46728571D01*
X103319047Y-46823809D01*
X102842857Y-46919047D01*
X103747619Y-47252380D02*
X103747619Y-46585714D01*
X103747619Y-46776190D02*
X103795238Y-46680952D01*
X103842857Y-46633333D01*
X103938095Y-46585714D01*
X104033333Y-46585714D01*
X104747619Y-47204761D02*
X104652380Y-47252380D01*
X104461904Y-47252380D01*
X104366666Y-47204761D01*
X104319047Y-47109523D01*
X104319047Y-46728571D01*
X104366666Y-46633333D01*
X104461904Y-46585714D01*
X104652380Y-46585714D01*
X104747619Y-46633333D01*
X104795238Y-46728571D01*
X104795238Y-46823809D01*
X104319047Y-46919047D01*
X105652380Y-47252380D02*
X105652380Y-46252380D01*
X105652380Y-47204761D02*
X105557142Y-47252380D01*
X105366666Y-47252380D01*
X105271428Y-47204761D01*
X105223809Y-47157142D01*
X105176190Y-47061904D01*
X105176190Y-46776190D01*
X105223809Y-46680952D01*
X105271428Y-46633333D01*
X105366666Y-46585714D01*
X105557142Y-46585714D01*
X105652380Y-46633333D01*
X107366666Y-46252380D02*
X106890476Y-46252380D01*
X106842857Y-46728571D01*
X106890476Y-46680952D01*
X106985714Y-46633333D01*
X107223809Y-46633333D01*
X107319047Y-46680952D01*
X107366666Y-46728571D01*
X107414285Y-46823809D01*
X107414285Y-47061904D01*
X107366666Y-47157142D01*
X107319047Y-47204761D01*
X107223809Y-47252380D01*
X106985714Y-47252380D01*
X106890476Y-47204761D01*
X106842857Y-47157142D01*
X107700000Y-46252380D02*
X108033333Y-47252380D01*
X108366666Y-46252380D01*
X109461904Y-47252380D02*
X109461904Y-46252380D01*
X109842857Y-46252380D01*
X109938095Y-46300000D01*
X109985714Y-46347619D01*
X110033333Y-46442857D01*
X110033333Y-46585714D01*
X109985714Y-46680952D01*
X109938095Y-46728571D01*
X109842857Y-46776190D01*
X109461904Y-46776190D01*
X110461904Y-47252380D02*
X110461904Y-46252380D01*
X110890476Y-47252380D02*
X110890476Y-46728571D01*
X110842857Y-46633333D01*
X110747619Y-46585714D01*
X110604761Y-46585714D01*
X110509523Y-46633333D01*
X110461904Y-46680952D01*
X111509523Y-47252380D02*
X111414285Y-47204761D01*
X111366666Y-47157142D01*
X111319047Y-47061904D01*
X111319047Y-46776190D01*
X111366666Y-46680952D01*
X111414285Y-46633333D01*
X111509523Y-46585714D01*
X111652380Y-46585714D01*
X111747619Y-46633333D01*
X111795238Y-46680952D01*
X111842857Y-46776190D01*
X111842857Y-47061904D01*
X111795238Y-47157142D01*
X111747619Y-47204761D01*
X111652380Y-47252380D01*
X111509523Y-47252380D01*
X112271428Y-46585714D02*
X112271428Y-47252380D01*
X112271428Y-46680952D02*
X112319047Y-46633333D01*
X112414285Y-46585714D01*
X112557142Y-46585714D01*
X112652380Y-46633333D01*
X112700000Y-46728571D01*
X112700000Y-47252380D01*
X113557142Y-47204761D02*
X113461904Y-47252380D01*
X113271428Y-47252380D01*
X113176190Y-47204761D01*
X113128571Y-47109523D01*
X113128571Y-46728571D01*
X113176190Y-46633333D01*
X113271428Y-46585714D01*
X113461904Y-46585714D01*
X113557142Y-46633333D01*
X113604761Y-46728571D01*
X113604761Y-46823809D01*
X113128571Y-46919047D01*
X115366666Y-47157142D02*
X115319047Y-47204761D01*
X115176190Y-47252380D01*
X115080952Y-47252380D01*
X114938095Y-47204761D01*
X114842857Y-47109523D01*
X114795238Y-47014285D01*
X114747619Y-46823809D01*
X114747619Y-46680952D01*
X114795238Y-46490476D01*
X114842857Y-46395238D01*
X114938095Y-46300000D01*
X115080952Y-46252380D01*
X115176190Y-46252380D01*
X115319047Y-46300000D01*
X115366666Y-46347619D01*
X115795238Y-47252380D02*
X115795238Y-46252380D01*
X116223809Y-47252380D02*
X116223809Y-46728571D01*
X116176190Y-46633333D01*
X116080952Y-46585714D01*
X115938095Y-46585714D01*
X115842857Y-46633333D01*
X115795238Y-46680952D01*
X117128571Y-47252380D02*
X117128571Y-46728571D01*
X117080952Y-46633333D01*
X116985714Y-46585714D01*
X116795238Y-46585714D01*
X116699999Y-46633333D01*
X117128571Y-47204761D02*
X117033333Y-47252380D01*
X116795238Y-47252380D01*
X116699999Y-47204761D01*
X116652380Y-47109523D01*
X116652380Y-47014285D01*
X116699999Y-46919047D01*
X116795238Y-46871428D01*
X117033333Y-46871428D01*
X117128571Y-46823809D01*
X117604761Y-47252380D02*
X117604761Y-46585714D01*
X117604761Y-46776190D02*
X117652380Y-46680952D01*
X117699999Y-46633333D01*
X117795238Y-46585714D01*
X117890476Y-46585714D01*
X118652380Y-46585714D02*
X118652380Y-47395238D01*
X118604761Y-47490476D01*
X118557142Y-47538095D01*
X118461904Y-47585714D01*
X118319047Y-47585714D01*
X118223809Y-47538095D01*
X118652380Y-47204761D02*
X118557142Y-47252380D01*
X118366666Y-47252380D01*
X118271428Y-47204761D01*
X118223809Y-47157142D01*
X118176190Y-47061904D01*
X118176190Y-46776190D01*
X118223809Y-46680952D01*
X118271428Y-46633333D01*
X118366666Y-46585714D01*
X118557142Y-46585714D01*
X118652380Y-46633333D01*
X119509523Y-47204761D02*
X119414285Y-47252380D01*
X119223809Y-47252380D01*
X119128571Y-47204761D01*
X119080952Y-47109523D01*
X119080952Y-46728571D01*
X119128571Y-46633333D01*
X119223809Y-46585714D01*
X119414285Y-46585714D01*
X119509523Y-46633333D01*
X119557142Y-46728571D01*
X119557142Y-46823809D01*
X119080952Y-46919047D01*
X119985714Y-47252380D02*
X119985714Y-46585714D01*
X119985714Y-46776190D02*
X120033333Y-46680952D01*
X120080952Y-46633333D01*
X120176190Y-46585714D01*
X120271428Y-46585714D01*
D11*
X154168035Y-85053142D02*
X154168035Y-85696000D01*
X154125178Y-85824571D01*
X154039464Y-85910285D01*
X153910892Y-85953142D01*
X153825178Y-85953142D01*
X154725178Y-85953142D02*
X154639464Y-85910285D01*
X154596607Y-85867428D01*
X154553750Y-85781714D01*
X154553750Y-85524571D01*
X154596607Y-85438857D01*
X154639464Y-85396000D01*
X154725178Y-85353142D01*
X154853750Y-85353142D01*
X154939464Y-85396000D01*
X154982321Y-85438857D01*
X155025178Y-85524571D01*
X155025178Y-85781714D01*
X154982321Y-85867428D01*
X154939464Y-85910285D01*
X154853750Y-85953142D01*
X154725178Y-85953142D01*
X155368035Y-85910285D02*
X155453750Y-85953142D01*
X155625178Y-85953142D01*
X155710892Y-85910285D01*
X155753750Y-85824571D01*
X155753750Y-85781714D01*
X155710892Y-85696000D01*
X155625178Y-85653142D01*
X155496607Y-85653142D01*
X155410892Y-85610285D01*
X155368035Y-85524571D01*
X155368035Y-85481714D01*
X155410892Y-85396000D01*
X155496607Y-85353142D01*
X155625178Y-85353142D01*
X155710892Y-85396000D01*
X156139464Y-85953142D02*
X156139464Y-85053142D01*
X156525178Y-85953142D02*
X156525178Y-85481714D01*
X156482321Y-85396000D01*
X156396607Y-85353142D01*
X156268035Y-85353142D01*
X156182321Y-85396000D01*
X156139464Y-85438857D01*
X157339464Y-85353142D02*
X157339464Y-85953142D01*
X156953750Y-85353142D02*
X156953750Y-85824571D01*
X156996607Y-85910285D01*
X157082321Y-85953142D01*
X157210892Y-85953142D01*
X157296607Y-85910285D01*
X157339464Y-85867428D01*
X158153750Y-85953142D02*
X158153750Y-85481714D01*
X158110892Y-85396000D01*
X158025178Y-85353142D01*
X157853750Y-85353142D01*
X157768035Y-85396000D01*
X158153750Y-85910285D02*
X158068035Y-85953142D01*
X157853750Y-85953142D01*
X157768035Y-85910285D01*
X157725178Y-85824571D01*
X157725178Y-85738857D01*
X157768035Y-85653142D01*
X157853750Y-85610285D01*
X158068035Y-85610285D01*
X158153750Y-85567428D01*
X159268035Y-85953142D02*
X159268035Y-85053142D01*
X159568035Y-85696000D01*
X159868035Y-85053142D01*
X159868035Y-85953142D01*
X160682321Y-85353142D02*
X160682321Y-85953142D01*
X160296607Y-85353142D02*
X160296607Y-85824571D01*
X160339464Y-85910285D01*
X160425178Y-85953142D01*
X160553750Y-85953142D01*
X160639464Y-85910285D01*
X160682321Y-85867428D01*
X161239464Y-85953142D02*
X161153750Y-85910285D01*
X161110892Y-85824571D01*
X161110892Y-85053142D01*
X161968035Y-85953142D02*
X161968035Y-85481714D01*
X161925178Y-85396000D01*
X161839464Y-85353142D01*
X161668035Y-85353142D01*
X161582321Y-85396000D01*
X161968035Y-85910285D02*
X161882321Y-85953142D01*
X161668035Y-85953142D01*
X161582321Y-85910285D01*
X161539464Y-85824571D01*
X161539464Y-85738857D01*
X161582321Y-85653142D01*
X161668035Y-85610285D01*
X161882321Y-85610285D01*
X161968035Y-85567428D01*
X162396607Y-85953142D02*
X162396607Y-85353142D01*
X162396607Y-85524571D02*
X162439464Y-85438857D01*
X162482321Y-85396000D01*
X162568035Y-85353142D01*
X162653750Y-85353142D01*
X163339464Y-85910285D02*
X163253750Y-85953142D01*
X163082321Y-85953142D01*
X162996607Y-85910285D01*
X162953750Y-85867428D01*
X162910892Y-85781714D01*
X162910892Y-85524571D01*
X162953750Y-85438857D01*
X162996607Y-85396000D01*
X163082321Y-85353142D01*
X163253750Y-85353142D01*
X163339464Y-85396000D01*
X163639464Y-85353142D02*
X164110892Y-85353142D01*
X163639464Y-85953142D01*
X164110892Y-85953142D01*
X164368035Y-85353142D02*
X164582321Y-85953142D01*
X164796607Y-85353142D02*
X164582321Y-85953142D01*
X164496607Y-86167428D01*
X164453750Y-86210285D01*
X164368035Y-86253142D01*
X165139464Y-85953142D02*
X165139464Y-85053142D01*
X165225178Y-85610285D02*
X165482321Y-85953142D01*
X165482321Y-85353142D02*
X165139464Y-85696000D01*
X154125178Y-87316428D02*
X154082321Y-87359285D01*
X153953750Y-87402142D01*
X153868035Y-87402142D01*
X153739464Y-87359285D01*
X153653750Y-87273571D01*
X153610892Y-87187857D01*
X153568035Y-87016428D01*
X153568035Y-86887857D01*
X153610892Y-86716428D01*
X153653750Y-86630714D01*
X153739464Y-86545000D01*
X153868035Y-86502142D01*
X153953750Y-86502142D01*
X154082321Y-86545000D01*
X154125178Y-86587857D01*
X154510892Y-87402142D02*
X154510892Y-86502142D01*
X154896607Y-87402142D02*
X154896607Y-86930714D01*
X154853750Y-86845000D01*
X154768035Y-86802142D01*
X154639464Y-86802142D01*
X154553750Y-86845000D01*
X154510892Y-86887857D01*
X155325178Y-87402142D02*
X155325178Y-86802142D01*
X155325178Y-86973571D02*
X155368035Y-86887857D01*
X155410892Y-86845000D01*
X155496607Y-86802142D01*
X155582321Y-86802142D01*
X155882321Y-87402142D02*
X155882321Y-86802142D01*
X155882321Y-86502142D02*
X155839464Y-86545000D01*
X155882321Y-86587857D01*
X155925178Y-86545000D01*
X155882321Y-86502142D01*
X155882321Y-86587857D01*
X156268035Y-87359285D02*
X156353750Y-87402142D01*
X156525178Y-87402142D01*
X156610892Y-87359285D01*
X156653750Y-87273571D01*
X156653750Y-87230714D01*
X156610892Y-87145000D01*
X156525178Y-87102142D01*
X156396607Y-87102142D01*
X156310892Y-87059285D01*
X156268035Y-86973571D01*
X156268035Y-86930714D01*
X156310892Y-86845000D01*
X156396607Y-86802142D01*
X156525178Y-86802142D01*
X156610892Y-86845000D01*
X156910892Y-86802142D02*
X157253750Y-86802142D01*
X157039464Y-86502142D02*
X157039464Y-87273571D01*
X157082321Y-87359285D01*
X157168035Y-87402142D01*
X157253750Y-87402142D01*
X157553750Y-87402142D02*
X157553750Y-86802142D01*
X157553750Y-86502142D02*
X157510892Y-86545000D01*
X157553750Y-86587857D01*
X157596607Y-86545000D01*
X157553750Y-86502142D01*
X157553750Y-86587857D01*
X158368035Y-87402142D02*
X158368035Y-86930714D01*
X158325178Y-86845000D01*
X158239464Y-86802142D01*
X158068035Y-86802142D01*
X157982321Y-86845000D01*
X158368035Y-87359285D02*
X158282321Y-87402142D01*
X158068035Y-87402142D01*
X157982321Y-87359285D01*
X157939464Y-87273571D01*
X157939464Y-87187857D01*
X157982321Y-87102142D01*
X158068035Y-87059285D01*
X158282321Y-87059285D01*
X158368035Y-87016428D01*
X158796607Y-86802142D02*
X158796607Y-87402142D01*
X158796607Y-86887857D02*
X158839464Y-86845000D01*
X158925178Y-86802142D01*
X159053750Y-86802142D01*
X159139464Y-86845000D01*
X159182321Y-86930714D01*
X159182321Y-87402142D01*
X160210892Y-86502142D02*
X160425178Y-87402142D01*
X160596607Y-86759285D01*
X160768035Y-87402142D01*
X160982321Y-86502142D01*
X161325178Y-87402142D02*
X161325178Y-86802142D01*
X161325178Y-86502142D02*
X161282321Y-86545000D01*
X161325178Y-86587857D01*
X161368035Y-86545000D01*
X161325178Y-86502142D01*
X161325178Y-86587857D01*
X161882321Y-87402142D02*
X161796607Y-87359285D01*
X161753750Y-87273571D01*
X161753750Y-86502142D01*
X162353750Y-87402142D02*
X162268035Y-87359285D01*
X162225178Y-87273571D01*
X162225178Y-86502142D01*
X162696607Y-87402142D02*
X162696607Y-86802142D01*
X162696607Y-86502142D02*
X162653750Y-86545000D01*
X162696607Y-86587857D01*
X162739464Y-86545000D01*
X162696607Y-86502142D01*
X162696607Y-86587857D01*
X163510892Y-87402142D02*
X163510892Y-86930714D01*
X163468035Y-86845000D01*
X163382321Y-86802142D01*
X163210892Y-86802142D01*
X163125178Y-86845000D01*
X163510892Y-87359285D02*
X163425178Y-87402142D01*
X163210892Y-87402142D01*
X163125178Y-87359285D01*
X163082321Y-87273571D01*
X163082321Y-87187857D01*
X163125178Y-87102142D01*
X163210892Y-87059285D01*
X163425178Y-87059285D01*
X163510892Y-87016428D01*
X163939464Y-87402142D02*
X163939464Y-86802142D01*
X163939464Y-86887857D02*
X163982321Y-86845000D01*
X164068035Y-86802142D01*
X164196607Y-86802142D01*
X164282321Y-86845000D01*
X164325178Y-86930714D01*
X164325178Y-87402142D01*
X164325178Y-86930714D02*
X164368035Y-86845000D01*
X164453750Y-86802142D01*
X164582321Y-86802142D01*
X164668035Y-86845000D01*
X164710892Y-86930714D01*
X164710892Y-87402142D01*
X165096607Y-87359285D02*
X165182321Y-87402142D01*
X165353750Y-87402142D01*
X165439464Y-87359285D01*
X165482321Y-87273571D01*
X165482321Y-87230714D01*
X165439464Y-87145000D01*
X165353750Y-87102142D01*
X165225178Y-87102142D01*
X165139464Y-87059285D01*
X165096607Y-86973571D01*
X165096607Y-86930714D01*
X165139464Y-86845000D01*
X165225178Y-86802142D01*
X165353750Y-86802142D01*
X165439464Y-86845000D01*
X144439464Y-88379714D02*
X144739464Y-88379714D01*
X144868035Y-88851142D02*
X144439464Y-88851142D01*
X144439464Y-87951142D01*
X144868035Y-87951142D01*
X145253750Y-88851142D02*
X145253750Y-87951142D01*
X145768035Y-88851142D01*
X145768035Y-87951142D01*
X146668035Y-87994000D02*
X146582321Y-87951142D01*
X146453750Y-87951142D01*
X146325178Y-87994000D01*
X146239464Y-88079714D01*
X146196607Y-88165428D01*
X146153750Y-88336857D01*
X146153750Y-88465428D01*
X146196607Y-88636857D01*
X146239464Y-88722571D01*
X146325178Y-88808285D01*
X146453750Y-88851142D01*
X146539464Y-88851142D01*
X146668035Y-88808285D01*
X146710892Y-88765428D01*
X146710892Y-88465428D01*
X146539464Y-88465428D01*
X147610892Y-88851142D02*
X147310892Y-88422571D01*
X147096607Y-88851142D02*
X147096607Y-87951142D01*
X147439464Y-87951142D01*
X147525178Y-87994000D01*
X147568035Y-88036857D01*
X147610892Y-88122571D01*
X147610892Y-88251142D01*
X147568035Y-88336857D01*
X147525178Y-88379714D01*
X147439464Y-88422571D01*
X147096607Y-88422571D01*
X149068035Y-88251142D02*
X149068035Y-88851142D01*
X148853750Y-87908285D02*
X148639464Y-88551142D01*
X149196607Y-88551142D01*
X149925178Y-87951142D02*
X149753750Y-87951142D01*
X149668035Y-87994000D01*
X149625178Y-88036857D01*
X149539464Y-88165428D01*
X149496607Y-88336857D01*
X149496607Y-88679714D01*
X149539464Y-88765428D01*
X149582321Y-88808285D01*
X149668035Y-88851142D01*
X149839464Y-88851142D01*
X149925178Y-88808285D01*
X149968035Y-88765428D01*
X150010892Y-88679714D01*
X150010892Y-88465428D01*
X149968035Y-88379714D01*
X149925178Y-88336857D01*
X149839464Y-88294000D01*
X149668035Y-88294000D01*
X149582321Y-88336857D01*
X149539464Y-88379714D01*
X149496607Y-88465428D01*
X150568035Y-87951142D02*
X150653750Y-87951142D01*
X150739464Y-87994000D01*
X150782321Y-88036857D01*
X150825178Y-88122571D01*
X150868035Y-88294000D01*
X150868035Y-88508285D01*
X150825178Y-88679714D01*
X150782321Y-88765428D01*
X150739464Y-88808285D01*
X150653750Y-88851142D01*
X150568035Y-88851142D01*
X150482321Y-88808285D01*
X150439464Y-88765428D01*
X150396607Y-88679714D01*
X150353750Y-88508285D01*
X150353750Y-88294000D01*
X150396607Y-88122571D01*
X150439464Y-88036857D01*
X150482321Y-87994000D01*
X150568035Y-87951142D01*
X151939464Y-88508285D02*
X152625178Y-88508285D01*
X153739464Y-88851142D02*
X153739464Y-87951142D01*
X154082321Y-87951142D01*
X154168035Y-87994000D01*
X154210892Y-88036857D01*
X154253750Y-88122571D01*
X154253750Y-88251142D01*
X154210892Y-88336857D01*
X154168035Y-88379714D01*
X154082321Y-88422571D01*
X153739464Y-88422571D01*
X154768035Y-88851142D02*
X154682321Y-88808285D01*
X154639464Y-88765428D01*
X154596607Y-88679714D01*
X154596607Y-88422571D01*
X154639464Y-88336857D01*
X154682321Y-88294000D01*
X154768035Y-88251142D01*
X154896607Y-88251142D01*
X154982321Y-88294000D01*
X155025178Y-88336857D01*
X155068035Y-88422571D01*
X155068035Y-88679714D01*
X155025178Y-88765428D01*
X154982321Y-88808285D01*
X154896607Y-88851142D01*
X154768035Y-88851142D01*
X155368035Y-88251142D02*
X155539464Y-88851142D01*
X155710892Y-88422571D01*
X155882321Y-88851142D01*
X156053750Y-88251142D01*
X156739464Y-88808285D02*
X156653750Y-88851142D01*
X156482321Y-88851142D01*
X156396607Y-88808285D01*
X156353750Y-88722571D01*
X156353750Y-88379714D01*
X156396607Y-88294000D01*
X156482321Y-88251142D01*
X156653750Y-88251142D01*
X156739464Y-88294000D01*
X156782321Y-88379714D01*
X156782321Y-88465428D01*
X156353750Y-88551142D01*
X157168035Y-88851142D02*
X157168035Y-88251142D01*
X157168035Y-88422571D02*
X157210892Y-88336857D01*
X157253750Y-88294000D01*
X157339464Y-88251142D01*
X157425178Y-88251142D01*
X158410892Y-88379714D02*
X158710892Y-88379714D01*
X158839464Y-88851142D02*
X158410892Y-88851142D01*
X158410892Y-87951142D01*
X158839464Y-87951142D01*
X159353750Y-88851142D02*
X159268035Y-88808285D01*
X159225178Y-88722571D01*
X159225178Y-87951142D01*
X160039464Y-88808285D02*
X159953750Y-88851142D01*
X159782321Y-88851142D01*
X159696607Y-88808285D01*
X159653750Y-88722571D01*
X159653750Y-88379714D01*
X159696607Y-88294000D01*
X159782321Y-88251142D01*
X159953750Y-88251142D01*
X160039464Y-88294000D01*
X160082321Y-88379714D01*
X160082321Y-88465428D01*
X159653750Y-88551142D01*
X160853750Y-88808285D02*
X160768035Y-88851142D01*
X160596607Y-88851142D01*
X160510892Y-88808285D01*
X160468035Y-88765428D01*
X160425178Y-88679714D01*
X160425178Y-88422571D01*
X160468035Y-88336857D01*
X160510892Y-88294000D01*
X160596607Y-88251142D01*
X160768035Y-88251142D01*
X160853750Y-88294000D01*
X161110892Y-88251142D02*
X161453750Y-88251142D01*
X161239464Y-87951142D02*
X161239464Y-88722571D01*
X161282321Y-88808285D01*
X161368035Y-88851142D01*
X161453750Y-88851142D01*
X161753750Y-88851142D02*
X161753750Y-88251142D01*
X161753750Y-88422571D02*
X161796607Y-88336857D01*
X161839464Y-88294000D01*
X161925178Y-88251142D01*
X162010892Y-88251142D01*
X162439464Y-88851142D02*
X162353750Y-88808285D01*
X162310892Y-88765428D01*
X162268035Y-88679714D01*
X162268035Y-88422571D01*
X162310892Y-88336857D01*
X162353750Y-88294000D01*
X162439464Y-88251142D01*
X162568035Y-88251142D01*
X162653750Y-88294000D01*
X162696607Y-88336857D01*
X162739464Y-88422571D01*
X162739464Y-88679714D01*
X162696607Y-88765428D01*
X162653750Y-88808285D01*
X162568035Y-88851142D01*
X162439464Y-88851142D01*
X163125178Y-88251142D02*
X163125178Y-88851142D01*
X163125178Y-88336857D02*
X163168035Y-88294000D01*
X163253750Y-88251142D01*
X163382321Y-88251142D01*
X163468035Y-88294000D01*
X163510892Y-88379714D01*
X163510892Y-88851142D01*
X163939464Y-88851142D02*
X163939464Y-88251142D01*
X163939464Y-87951142D02*
X163896607Y-87994000D01*
X163939464Y-88036857D01*
X163982321Y-87994000D01*
X163939464Y-87951142D01*
X163939464Y-88036857D01*
X164753750Y-88808285D02*
X164668035Y-88851142D01*
X164496607Y-88851142D01*
X164410892Y-88808285D01*
X164368035Y-88765428D01*
X164325178Y-88679714D01*
X164325178Y-88422571D01*
X164368035Y-88336857D01*
X164410892Y-88294000D01*
X164496607Y-88251142D01*
X164668035Y-88251142D01*
X164753750Y-88294000D01*
X165096607Y-88808285D02*
X165182321Y-88851142D01*
X165353750Y-88851142D01*
X165439464Y-88808285D01*
X165482321Y-88722571D01*
X165482321Y-88679714D01*
X165439464Y-88594000D01*
X165353750Y-88551142D01*
X165225178Y-88551142D01*
X165139464Y-88508285D01*
X165096607Y-88422571D01*
X165096607Y-88379714D01*
X165139464Y-88294000D01*
X165225178Y-88251142D01*
X165353750Y-88251142D01*
X165439464Y-88294000D01*
D10*
%TO.C,C5*%
X131057142Y-83074166D02*
X131104761Y-83121785D01*
X131152380Y-83264642D01*
X131152380Y-83359880D01*
X131104761Y-83502738D01*
X131009523Y-83597976D01*
X130914285Y-83645595D01*
X130723809Y-83693214D01*
X130580952Y-83693214D01*
X130390476Y-83645595D01*
X130295238Y-83597976D01*
X130200000Y-83502738D01*
X130152380Y-83359880D01*
X130152380Y-83264642D01*
X130200000Y-83121785D01*
X130247619Y-83074166D01*
X130152380Y-82169404D02*
X130152380Y-82645595D01*
X130628571Y-82693214D01*
X130580952Y-82645595D01*
X130533333Y-82550357D01*
X130533333Y-82312261D01*
X130580952Y-82217023D01*
X130628571Y-82169404D01*
X130723809Y-82121785D01*
X130961904Y-82121785D01*
X131057142Y-82169404D01*
X131104761Y-82217023D01*
X131152380Y-82312261D01*
X131152380Y-82550357D01*
X131104761Y-82645595D01*
X131057142Y-82693214D01*
%TO.C,C3*%
X113277142Y-78906666D02*
X113324761Y-78954285D01*
X113372380Y-79097142D01*
X113372380Y-79192380D01*
X113324761Y-79335238D01*
X113229523Y-79430476D01*
X113134285Y-79478095D01*
X112943809Y-79525714D01*
X112800952Y-79525714D01*
X112610476Y-79478095D01*
X112515238Y-79430476D01*
X112420000Y-79335238D01*
X112372380Y-79192380D01*
X112372380Y-79097142D01*
X112420000Y-78954285D01*
X112467619Y-78906666D01*
X112372380Y-78573333D02*
X112372380Y-77954285D01*
X112753333Y-78287619D01*
X112753333Y-78144761D01*
X112800952Y-78049523D01*
X112848571Y-78001904D01*
X112943809Y-77954285D01*
X113181904Y-77954285D01*
X113277142Y-78001904D01*
X113324761Y-78049523D01*
X113372380Y-78144761D01*
X113372380Y-78430476D01*
X113324761Y-78525714D01*
X113277142Y-78573333D01*
%TO.C,C2*%
X113277142Y-73826666D02*
X113324761Y-73874285D01*
X113372380Y-74017142D01*
X113372380Y-74112380D01*
X113324761Y-74255238D01*
X113229523Y-74350476D01*
X113134285Y-74398095D01*
X112943809Y-74445714D01*
X112800952Y-74445714D01*
X112610476Y-74398095D01*
X112515238Y-74350476D01*
X112420000Y-74255238D01*
X112372380Y-74112380D01*
X112372380Y-74017142D01*
X112420000Y-73874285D01*
X112467619Y-73826666D01*
X112467619Y-73445714D02*
X112420000Y-73398095D01*
X112372380Y-73302857D01*
X112372380Y-73064761D01*
X112420000Y-72969523D01*
X112467619Y-72921904D01*
X112562857Y-72874285D01*
X112658095Y-72874285D01*
X112800952Y-72921904D01*
X113372380Y-73493333D01*
X113372380Y-72874285D01*
%TO.C,C4*%
X118627142Y-81446666D02*
X118674761Y-81494285D01*
X118722380Y-81637142D01*
X118722380Y-81732380D01*
X118674761Y-81875238D01*
X118579523Y-81970476D01*
X118484285Y-82018095D01*
X118293809Y-82065714D01*
X118150952Y-82065714D01*
X117960476Y-82018095D01*
X117865238Y-81970476D01*
X117770000Y-81875238D01*
X117722380Y-81732380D01*
X117722380Y-81637142D01*
X117770000Y-81494285D01*
X117817619Y-81446666D01*
X118055714Y-80589523D02*
X118722380Y-80589523D01*
X117674761Y-80827619D02*
X118389047Y-81065714D01*
X118389047Y-80446666D01*
%TO.C,C6*%
X126833333Y-59637142D02*
X126785714Y-59684761D01*
X126642857Y-59732380D01*
X126547619Y-59732380D01*
X126404761Y-59684761D01*
X126309523Y-59589523D01*
X126261904Y-59494285D01*
X126214285Y-59303809D01*
X126214285Y-59160952D01*
X126261904Y-58970476D01*
X126309523Y-58875238D01*
X126404761Y-58780000D01*
X126547619Y-58732380D01*
X126642857Y-58732380D01*
X126785714Y-58780000D01*
X126833333Y-58827619D01*
X127690476Y-58732380D02*
X127500000Y-58732380D01*
X127404761Y-58780000D01*
X127357142Y-58827619D01*
X127261904Y-58970476D01*
X127214285Y-59160952D01*
X127214285Y-59541904D01*
X127261904Y-59637142D01*
X127309523Y-59684761D01*
X127404761Y-59732380D01*
X127595238Y-59732380D01*
X127690476Y-59684761D01*
X127738095Y-59637142D01*
X127785714Y-59541904D01*
X127785714Y-59303809D01*
X127738095Y-59208571D01*
X127690476Y-59160952D01*
X127595238Y-59113333D01*
X127404761Y-59113333D01*
X127309523Y-59160952D01*
X127261904Y-59208571D01*
X127214285Y-59303809D01*
%TO.C,C7*%
X146987142Y-63666666D02*
X147034761Y-63714285D01*
X147082380Y-63857142D01*
X147082380Y-63952380D01*
X147034761Y-64095238D01*
X146939523Y-64190476D01*
X146844285Y-64238095D01*
X146653809Y-64285714D01*
X146510952Y-64285714D01*
X146320476Y-64238095D01*
X146225238Y-64190476D01*
X146130000Y-64095238D01*
X146082380Y-63952380D01*
X146082380Y-63857142D01*
X146130000Y-63714285D01*
X146177619Y-63666666D01*
X146082380Y-63333333D02*
X146082380Y-62666666D01*
X147082380Y-63095238D01*
%TO.C,C1*%
X109687142Y-81446666D02*
X109734761Y-81494285D01*
X109782380Y-81637142D01*
X109782380Y-81732380D01*
X109734761Y-81875238D01*
X109639523Y-81970476D01*
X109544285Y-82018095D01*
X109353809Y-82065714D01*
X109210952Y-82065714D01*
X109020476Y-82018095D01*
X108925238Y-81970476D01*
X108830000Y-81875238D01*
X108782380Y-81732380D01*
X108782380Y-81637142D01*
X108830000Y-81494285D01*
X108877619Y-81446666D01*
X109782380Y-80494285D02*
X109782380Y-81065714D01*
X109782380Y-80780000D02*
X108782380Y-80780000D01*
X108925238Y-80875238D01*
X109020476Y-80970476D01*
X109068095Y-81065714D01*
%TO.C,R6*%
X146402380Y-71286666D02*
X145926190Y-71620000D01*
X146402380Y-71858095D02*
X145402380Y-71858095D01*
X145402380Y-71477142D01*
X145450000Y-71381904D01*
X145497619Y-71334285D01*
X145592857Y-71286666D01*
X145735714Y-71286666D01*
X145830952Y-71334285D01*
X145878571Y-71381904D01*
X145926190Y-71477142D01*
X145926190Y-71858095D01*
X145402380Y-70429523D02*
X145402380Y-70620000D01*
X145450000Y-70715238D01*
X145497619Y-70762857D01*
X145640476Y-70858095D01*
X145830952Y-70905714D01*
X146211904Y-70905714D01*
X146307142Y-70858095D01*
X146354761Y-70810476D01*
X146402380Y-70715238D01*
X146402380Y-70524761D01*
X146354761Y-70429523D01*
X146307142Y-70381904D01*
X146211904Y-70334285D01*
X145973809Y-70334285D01*
X145878571Y-70381904D01*
X145830952Y-70429523D01*
X145783333Y-70524761D01*
X145783333Y-70715238D01*
X145830952Y-70810476D01*
X145878571Y-70858095D01*
X145973809Y-70905714D01*
%TO.C,R4*%
X131422380Y-78906666D02*
X130946190Y-79240000D01*
X131422380Y-79478095D02*
X130422380Y-79478095D01*
X130422380Y-79097142D01*
X130470000Y-79001904D01*
X130517619Y-78954285D01*
X130612857Y-78906666D01*
X130755714Y-78906666D01*
X130850952Y-78954285D01*
X130898571Y-79001904D01*
X130946190Y-79097142D01*
X130946190Y-79478095D01*
X130755714Y-78049523D02*
X131422380Y-78049523D01*
X130374761Y-78287619D02*
X131089047Y-78525714D01*
X131089047Y-77906666D01*
%TO.C,R3*%
X126342380Y-81446666D02*
X125866190Y-81780000D01*
X126342380Y-82018095D02*
X125342380Y-82018095D01*
X125342380Y-81637142D01*
X125390000Y-81541904D01*
X125437619Y-81494285D01*
X125532857Y-81446666D01*
X125675714Y-81446666D01*
X125770952Y-81494285D01*
X125818571Y-81541904D01*
X125866190Y-81637142D01*
X125866190Y-82018095D01*
X125342380Y-81113333D02*
X125342380Y-80494285D01*
X125723333Y-80827619D01*
X125723333Y-80684761D01*
X125770952Y-80589523D01*
X125818571Y-80541904D01*
X125913809Y-80494285D01*
X126151904Y-80494285D01*
X126247142Y-80541904D01*
X126294761Y-80589523D01*
X126342380Y-80684761D01*
X126342380Y-80970476D01*
X126294761Y-81065714D01*
X126247142Y-81113333D01*
%TO.C,R1*%
X113642380Y-68746666D02*
X113166190Y-69080000D01*
X113642380Y-69318095D02*
X112642380Y-69318095D01*
X112642380Y-68937142D01*
X112690000Y-68841904D01*
X112737619Y-68794285D01*
X112832857Y-68746666D01*
X112975714Y-68746666D01*
X113070952Y-68794285D01*
X113118571Y-68841904D01*
X113166190Y-68937142D01*
X113166190Y-69318095D01*
X113642380Y-67794285D02*
X113642380Y-68365714D01*
X113642380Y-68080000D02*
X112642380Y-68080000D01*
X112785238Y-68175238D01*
X112880476Y-68270476D01*
X112928095Y-68365714D01*
%TO.C,R5*%
X139432380Y-81446666D02*
X138956190Y-81780000D01*
X139432380Y-82018095D02*
X138432380Y-82018095D01*
X138432380Y-81637142D01*
X138480000Y-81541904D01*
X138527619Y-81494285D01*
X138622857Y-81446666D01*
X138765714Y-81446666D01*
X138860952Y-81494285D01*
X138908571Y-81541904D01*
X138956190Y-81637142D01*
X138956190Y-82018095D01*
X138432380Y-80541904D02*
X138432380Y-81018095D01*
X138908571Y-81065714D01*
X138860952Y-81018095D01*
X138813333Y-80922857D01*
X138813333Y-80684761D01*
X138860952Y-80589523D01*
X138908571Y-80541904D01*
X139003809Y-80494285D01*
X139241904Y-80494285D01*
X139337142Y-80541904D01*
X139384761Y-80589523D01*
X139432380Y-80684761D01*
X139432380Y-80922857D01*
X139384761Y-81018095D01*
X139337142Y-81065714D01*
%TO.C,R2*%
X119112380Y-71286666D02*
X118636190Y-71620000D01*
X119112380Y-71858095D02*
X118112380Y-71858095D01*
X118112380Y-71477142D01*
X118160000Y-71381904D01*
X118207619Y-71334285D01*
X118302857Y-71286666D01*
X118445714Y-71286666D01*
X118540952Y-71334285D01*
X118588571Y-71381904D01*
X118636190Y-71477142D01*
X118636190Y-71858095D01*
X118207619Y-70905714D02*
X118160000Y-70858095D01*
X118112380Y-70762857D01*
X118112380Y-70524761D01*
X118160000Y-70429523D01*
X118207619Y-70381904D01*
X118302857Y-70334285D01*
X118398095Y-70334285D01*
X118540952Y-70381904D01*
X119112380Y-70953333D01*
X119112380Y-70334285D01*
%TO.C,L1*%
X95533333Y-55852380D02*
X95057142Y-55852380D01*
X95057142Y-54852380D01*
X96390476Y-55852380D02*
X95819047Y-55852380D01*
X96104761Y-55852380D02*
X96104761Y-54852380D01*
X96009523Y-54995238D01*
X95914285Y-55090476D01*
X95819047Y-55138095D01*
%TO.C,D1*%
X136421904Y-65512380D02*
X136421904Y-64512380D01*
X136660000Y-64512380D01*
X136802857Y-64560000D01*
X136898095Y-64655238D01*
X136945714Y-64750476D01*
X136993333Y-64940952D01*
X136993333Y-65083809D01*
X136945714Y-65274285D01*
X136898095Y-65369523D01*
X136802857Y-65464761D01*
X136660000Y-65512380D01*
X136421904Y-65512380D01*
X137945714Y-65512380D02*
X137374285Y-65512380D01*
X137660000Y-65512380D02*
X137660000Y-64512380D01*
X137564761Y-64655238D01*
X137469523Y-64750476D01*
X137374285Y-64798095D01*
%TO.C,SC1*%
X98104761Y-70261904D02*
X98152380Y-70119047D01*
X98152380Y-69880952D01*
X98104761Y-69785714D01*
X98057142Y-69738095D01*
X97961904Y-69690476D01*
X97866666Y-69690476D01*
X97771428Y-69738095D01*
X97723809Y-69785714D01*
X97676190Y-69880952D01*
X97628571Y-70071428D01*
X97580952Y-70166666D01*
X97533333Y-70214285D01*
X97438095Y-70261904D01*
X97342857Y-70261904D01*
X97247619Y-70214285D01*
X97200000Y-70166666D01*
X97152380Y-70071428D01*
X97152380Y-69833333D01*
X97200000Y-69690476D01*
X98057142Y-68690476D02*
X98104761Y-68738095D01*
X98152380Y-68880952D01*
X98152380Y-68976190D01*
X98104761Y-69119047D01*
X98009523Y-69214285D01*
X97914285Y-69261904D01*
X97723809Y-69309523D01*
X97580952Y-69309523D01*
X97390476Y-69261904D01*
X97295238Y-69214285D01*
X97200000Y-69119047D01*
X97152380Y-68976190D01*
X97152380Y-68880952D01*
X97200000Y-68738095D01*
X97247619Y-68690476D01*
X98152380Y-67738095D02*
X98152380Y-68309523D01*
X98152380Y-68023809D02*
X97152380Y-68023809D01*
X97295238Y-68119047D01*
X97390476Y-68214285D01*
X97438095Y-68309523D01*
%TO.C,U1*%
X126238095Y-67172380D02*
X126238095Y-67981904D01*
X126285714Y-68077142D01*
X126333333Y-68124761D01*
X126428571Y-68172380D01*
X126619047Y-68172380D01*
X126714285Y-68124761D01*
X126761904Y-68077142D01*
X126809523Y-67981904D01*
X126809523Y-67172380D01*
X127809523Y-68172380D02*
X127238095Y-68172380D01*
X127523809Y-68172380D02*
X127523809Y-67172380D01*
X127428571Y-67315238D01*
X127333333Y-67410476D01*
X127238095Y-67458095D01*
%TO.C,R7*%
X145248333Y-79827380D02*
X144915000Y-79351190D01*
X144676904Y-79827380D02*
X144676904Y-78827380D01*
X145057857Y-78827380D01*
X145153095Y-78875000D01*
X145200714Y-78922619D01*
X145248333Y-79017857D01*
X145248333Y-79160714D01*
X145200714Y-79255952D01*
X145153095Y-79303571D01*
X145057857Y-79351190D01*
X144676904Y-79351190D01*
X145581666Y-78827380D02*
X146248333Y-78827380D01*
X145819761Y-79827380D01*
%TO.C,Q1*%
X134207619Y-71215238D02*
X134160000Y-71310476D01*
X134064761Y-71405714D01*
X133921904Y-71548571D01*
X133874285Y-71643809D01*
X133874285Y-71739047D01*
X134112380Y-71691428D02*
X134064761Y-71786666D01*
X133969523Y-71881904D01*
X133779047Y-71929523D01*
X133445714Y-71929523D01*
X133255238Y-71881904D01*
X133160000Y-71786666D01*
X133112380Y-71691428D01*
X133112380Y-71500952D01*
X133160000Y-71405714D01*
X133255238Y-71310476D01*
X133445714Y-71262857D01*
X133779047Y-71262857D01*
X133969523Y-71310476D01*
X134064761Y-71405714D01*
X134112380Y-71500952D01*
X134112380Y-71691428D01*
X134112380Y-70310476D02*
X134112380Y-70881904D01*
X134112380Y-70596190D02*
X133112380Y-70596190D01*
X133255238Y-70691428D01*
X133350476Y-70786666D01*
X133398095Y-70881904D01*
%TO.C,J1*%
X148382380Y-71453333D02*
X149096666Y-71453333D01*
X149239523Y-71500952D01*
X149334761Y-71596190D01*
X149382380Y-71739047D01*
X149382380Y-71834285D01*
X149382380Y-70453333D02*
X149382380Y-71024761D01*
X149382380Y-70739047D02*
X148382380Y-70739047D01*
X148525238Y-70834285D01*
X148620476Y-70929523D01*
X148668095Y-71024761D01*
D12*
%TO.C,C5*%
X129180000Y-82799664D02*
X129180000Y-83015336D01*
X129900000Y-82799664D02*
X129900000Y-83015336D01*
%TO.C,C3*%
X111400000Y-78632164D02*
X111400000Y-78847836D01*
X112120000Y-78632164D02*
X112120000Y-78847836D01*
%TO.C,C2*%
X111400000Y-73552164D02*
X111400000Y-73767836D01*
X112120000Y-73552164D02*
X112120000Y-73767836D01*
%TO.C,C4*%
X116330000Y-81139420D02*
X116330000Y-81420580D01*
X117350000Y-81139420D02*
X117350000Y-81420580D01*
%TO.C,C6*%
X126738748Y-61695000D02*
X127261252Y-61695000D01*
X126738748Y-60225000D02*
X127261252Y-60225000D01*
%TO.C,C7*%
X145690000Y-62788748D02*
X145690000Y-64211252D01*
X143870000Y-62788748D02*
X143870000Y-64211252D01*
%TO.C,C1*%
X108390000Y-80118748D02*
X108390000Y-82441252D01*
X104970000Y-80118748D02*
X104970000Y-82441252D01*
%TO.C,R6*%
X145160000Y-70966359D02*
X145160000Y-71273641D01*
X144400000Y-70966359D02*
X144400000Y-71273641D01*
%TO.C,R4*%
X129017500Y-78502742D02*
X129017500Y-78977258D01*
X130062500Y-78502742D02*
X130062500Y-78977258D01*
%TO.C,R3*%
X123937500Y-81042742D02*
X123937500Y-81517258D01*
X124982500Y-81042742D02*
X124982500Y-81517258D01*
%TO.C,R1*%
X111237500Y-68342742D02*
X111237500Y-68817258D01*
X112282500Y-68342742D02*
X112282500Y-68817258D01*
%TO.C,R5*%
X136250000Y-80552936D02*
X136250000Y-82007064D01*
X138070000Y-80552936D02*
X138070000Y-82007064D01*
%TO.C,R2*%
X115930000Y-70392936D02*
X115930000Y-71847064D01*
X117750000Y-70392936D02*
X117750000Y-71847064D01*
%TO.C,L1*%
X100500000Y-52550000D02*
X115300000Y-52550000D01*
X115300000Y-59050000D02*
X101300000Y-59050000D01*
X100500000Y-58250000D02*
X100500000Y-52550000D01*
X115300000Y-52550000D02*
X115300000Y-59050000D01*
X101300000Y-59050000D02*
X100500000Y-58250000D01*
%TO.C,D1*%
X141960000Y-57710000D02*
X133560000Y-57710000D01*
X141960000Y-57710000D02*
X141960000Y-64210000D01*
X141960000Y-64210000D02*
X133560000Y-64210000D01*
%TO.C,SC1*%
X102700000Y-73540000D02*
X98700000Y-73540000D01*
X102700000Y-69000000D02*
X98700000Y-69000000D01*
X102700000Y-64460000D02*
X102700000Y-73540000D01*
X98700000Y-64460000D02*
X102700000Y-64460000D01*
X98700000Y-73540000D02*
X98700000Y-64460000D01*
%TO.C,U1*%
X127000000Y-73680000D02*
X128950000Y-73680000D01*
X127000000Y-73680000D02*
X125050000Y-73680000D01*
X127000000Y-68560000D02*
X123550000Y-68560000D01*
X127000000Y-68560000D02*
X128950000Y-68560000D01*
%TO.C,R7*%
X144045000Y-75972936D02*
X144045000Y-76427064D01*
X145515000Y-75972936D02*
X145515000Y-76427064D01*
%TO.C,Q1*%
X139495000Y-74180000D02*
X139845000Y-74180000D01*
X139845000Y-68060000D02*
X139845000Y-74180000D01*
X134775000Y-68060000D02*
X134475000Y-68060000D01*
X134475000Y-68060000D02*
X134475000Y-74180000D01*
X139545000Y-68060000D02*
X139845000Y-68060000D01*
%TO.C,J1*%
X165220000Y-63810000D02*
X164700000Y-63810000D01*
X164700000Y-63810000D02*
X164700000Y-64460000D01*
X164700000Y-77780000D02*
X164700000Y-78430000D01*
X149740000Y-64460000D02*
X153070000Y-64460000D01*
X156590000Y-64460000D02*
X164700000Y-64460000D01*
X149740000Y-77780000D02*
X149740000Y-64460000D01*
X149520000Y-75520000D02*
X149520000Y-73720000D01*
X164700000Y-77780000D02*
X156590000Y-77780000D01*
X149740000Y-77780000D02*
X153070000Y-77780000D01*
X165220000Y-78430000D02*
X165220000Y-63810000D01*
X164700000Y-78430000D02*
X165220000Y-78430000D01*
%TD*%
M02*
