%TF.GenerationSoftware,KiCad,Pcbnew,(6.0.4)*%
%TF.CreationDate,2022-04-26T23:43:02-07:00*%
%TF.ProjectId,SolarChargerV2,536f6c61-7243-4686-9172-67657256322e,rev?*%
%TF.SameCoordinates,Original*%
%TF.FileFunction,AssemblyDrawing,Top*%
%FSLAX46Y46*%
G04 Gerber Fmt 4.6, Leading zero omitted, Abs format (unit mm)*
G04 Created by KiCad (PCBNEW (6.0.4)) date 2022-04-26 23:43:02*
%MOMM*%
%LPD*%
G01*
G04 APERTURE LIST*
%ADD10C,0.150000*%
%ADD11C,0.060000*%
%ADD12C,0.090000*%
%ADD13C,0.080000*%
%ADD14C,0.100000*%
G04 APERTURE END LIST*
D10*
%TO.C,SC1*%
X96099761Y-77239761D02*
X96242619Y-77287380D01*
X96480714Y-77287380D01*
X96575952Y-77239761D01*
X96623571Y-77192142D01*
X96671190Y-77096904D01*
X96671190Y-77001666D01*
X96623571Y-76906428D01*
X96575952Y-76858809D01*
X96480714Y-76811190D01*
X96290238Y-76763571D01*
X96195000Y-76715952D01*
X96147380Y-76668333D01*
X96099761Y-76573095D01*
X96099761Y-76477857D01*
X96147380Y-76382619D01*
X96195000Y-76335000D01*
X96290238Y-76287380D01*
X96528333Y-76287380D01*
X96671190Y-76335000D01*
X97242619Y-77287380D02*
X97147380Y-77239761D01*
X97099761Y-77192142D01*
X97052142Y-77096904D01*
X97052142Y-76811190D01*
X97099761Y-76715952D01*
X97147380Y-76668333D01*
X97242619Y-76620714D01*
X97385476Y-76620714D01*
X97480714Y-76668333D01*
X97528333Y-76715952D01*
X97575952Y-76811190D01*
X97575952Y-77096904D01*
X97528333Y-77192142D01*
X97480714Y-77239761D01*
X97385476Y-77287380D01*
X97242619Y-77287380D01*
X98147380Y-77287380D02*
X98052142Y-77239761D01*
X98004523Y-77144523D01*
X98004523Y-76287380D01*
X98956904Y-77287380D02*
X98956904Y-76763571D01*
X98909285Y-76668333D01*
X98814047Y-76620714D01*
X98623571Y-76620714D01*
X98528333Y-76668333D01*
X98956904Y-77239761D02*
X98861666Y-77287380D01*
X98623571Y-77287380D01*
X98528333Y-77239761D01*
X98480714Y-77144523D01*
X98480714Y-77049285D01*
X98528333Y-76954047D01*
X98623571Y-76906428D01*
X98861666Y-76906428D01*
X98956904Y-76858809D01*
X99433095Y-77287380D02*
X99433095Y-76620714D01*
X99433095Y-76811190D02*
X99480714Y-76715952D01*
X99528333Y-76668333D01*
X99623571Y-76620714D01*
X99718809Y-76620714D01*
X99814047Y-77382619D02*
X100575952Y-77382619D01*
X101385476Y-77192142D02*
X101337857Y-77239761D01*
X101195000Y-77287380D01*
X101099761Y-77287380D01*
X100956904Y-77239761D01*
X100861666Y-77144523D01*
X100814047Y-77049285D01*
X100766428Y-76858809D01*
X100766428Y-76715952D01*
X100814047Y-76525476D01*
X100861666Y-76430238D01*
X100956904Y-76335000D01*
X101099761Y-76287380D01*
X101195000Y-76287380D01*
X101337857Y-76335000D01*
X101385476Y-76382619D01*
X102195000Y-77239761D02*
X102099761Y-77287380D01*
X101909285Y-77287380D01*
X101814047Y-77239761D01*
X101766428Y-77144523D01*
X101766428Y-76763571D01*
X101814047Y-76668333D01*
X101909285Y-76620714D01*
X102099761Y-76620714D01*
X102195000Y-76668333D01*
X102242619Y-76763571D01*
X102242619Y-76858809D01*
X101766428Y-76954047D01*
X102814047Y-77287380D02*
X102718809Y-77239761D01*
X102671190Y-77144523D01*
X102671190Y-76287380D01*
X103337857Y-77287380D02*
X103242619Y-77239761D01*
X103195000Y-77144523D01*
X103195000Y-76287380D01*
%TO.C,D1*%
X135802857Y-57788571D02*
X135945714Y-57836190D01*
X135993333Y-57883809D01*
X136040952Y-57979047D01*
X136040952Y-58121904D01*
X135993333Y-58217142D01*
X135945714Y-58264761D01*
X135850476Y-58312380D01*
X135469523Y-58312380D01*
X135469523Y-57312380D01*
X135802857Y-57312380D01*
X135898095Y-57360000D01*
X135945714Y-57407619D01*
X135993333Y-57502857D01*
X135993333Y-57598095D01*
X135945714Y-57693333D01*
X135898095Y-57740952D01*
X135802857Y-57788571D01*
X135469523Y-57788571D01*
X136421904Y-57407619D02*
X136469523Y-57360000D01*
X136564761Y-57312380D01*
X136802857Y-57312380D01*
X136898095Y-57360000D01*
X136945714Y-57407619D01*
X136993333Y-57502857D01*
X136993333Y-57598095D01*
X136945714Y-57740952D01*
X136374285Y-58312380D01*
X136993333Y-58312380D01*
X137326666Y-57312380D02*
X137945714Y-57312380D01*
X137612380Y-57693333D01*
X137755238Y-57693333D01*
X137850476Y-57740952D01*
X137898095Y-57788571D01*
X137945714Y-57883809D01*
X137945714Y-58121904D01*
X137898095Y-58217142D01*
X137850476Y-58264761D01*
X137755238Y-58312380D01*
X137469523Y-58312380D01*
X137374285Y-58264761D01*
X137326666Y-58217142D01*
X138564761Y-57312380D02*
X138660000Y-57312380D01*
X138755238Y-57360000D01*
X138802857Y-57407619D01*
X138850476Y-57502857D01*
X138898095Y-57693333D01*
X138898095Y-57931428D01*
X138850476Y-58121904D01*
X138802857Y-58217142D01*
X138755238Y-58264761D01*
X138660000Y-58312380D01*
X138564761Y-58312380D01*
X138469523Y-58264761D01*
X138421904Y-58217142D01*
X138374285Y-58121904D01*
X138326666Y-57931428D01*
X138326666Y-57693333D01*
X138374285Y-57502857D01*
X138421904Y-57407619D01*
X138469523Y-57360000D01*
X138564761Y-57312380D01*
X136421904Y-64412380D02*
X136421904Y-63412380D01*
X136660000Y-63412380D01*
X136802857Y-63460000D01*
X136898095Y-63555238D01*
X136945714Y-63650476D01*
X136993333Y-63840952D01*
X136993333Y-63983809D01*
X136945714Y-64174285D01*
X136898095Y-64269523D01*
X136802857Y-64364761D01*
X136660000Y-64412380D01*
X136421904Y-64412380D01*
X137945714Y-64412380D02*
X137374285Y-64412380D01*
X137660000Y-64412380D02*
X137660000Y-63412380D01*
X137564761Y-63555238D01*
X137469523Y-63650476D01*
X137374285Y-63698095D01*
%TO.C,U1*%
X121404761Y-76652380D02*
X120928571Y-76652380D01*
X120928571Y-75652380D01*
X121738095Y-76652380D02*
X121738095Y-75652380D01*
X122071428Y-76366666D01*
X122404761Y-75652380D01*
X122404761Y-76652380D01*
X122785714Y-75652380D02*
X123404761Y-75652380D01*
X123071428Y-76033333D01*
X123214285Y-76033333D01*
X123309523Y-76080952D01*
X123357142Y-76128571D01*
X123404761Y-76223809D01*
X123404761Y-76461904D01*
X123357142Y-76557142D01*
X123309523Y-76604761D01*
X123214285Y-76652380D01*
X122928571Y-76652380D01*
X122833333Y-76604761D01*
X122785714Y-76557142D01*
X124261904Y-75985714D02*
X124261904Y-76652380D01*
X124023809Y-75604761D02*
X123785714Y-76319047D01*
X124404761Y-76319047D01*
X124690476Y-75652380D02*
X125357142Y-75652380D01*
X124928571Y-76652380D01*
X125880952Y-76080952D02*
X125785714Y-76033333D01*
X125738095Y-75985714D01*
X125690476Y-75890476D01*
X125690476Y-75842857D01*
X125738095Y-75747619D01*
X125785714Y-75700000D01*
X125880952Y-75652380D01*
X126071428Y-75652380D01*
X126166666Y-75700000D01*
X126214285Y-75747619D01*
X126261904Y-75842857D01*
X126261904Y-75890476D01*
X126214285Y-75985714D01*
X126166666Y-76033333D01*
X126071428Y-76080952D01*
X125880952Y-76080952D01*
X125785714Y-76128571D01*
X125738095Y-76176190D01*
X125690476Y-76271428D01*
X125690476Y-76461904D01*
X125738095Y-76557142D01*
X125785714Y-76604761D01*
X125880952Y-76652380D01*
X126071428Y-76652380D01*
X126166666Y-76604761D01*
X126214285Y-76557142D01*
X126261904Y-76461904D01*
X126261904Y-76271428D01*
X126214285Y-76176190D01*
X126166666Y-76128571D01*
X126071428Y-76080952D01*
X126690476Y-76652380D02*
X126690476Y-75652380D01*
X127023809Y-76366666D01*
X127357142Y-75652380D01*
X127357142Y-76652380D01*
X127785714Y-76366666D02*
X128261904Y-76366666D01*
X127690476Y-76652380D02*
X128023809Y-75652380D01*
X128357142Y-76652380D01*
X128452380Y-76747619D02*
X129214285Y-76747619D01*
X129452380Y-76652380D02*
X129452380Y-75652380D01*
X130023809Y-76652380D01*
X130023809Y-75652380D01*
X130690476Y-75652380D02*
X130880952Y-75652380D01*
X130976190Y-75700000D01*
X131071428Y-75795238D01*
X131119047Y-75985714D01*
X131119047Y-76319047D01*
X131071428Y-76509523D01*
X130976190Y-76604761D01*
X130880952Y-76652380D01*
X130690476Y-76652380D01*
X130595238Y-76604761D01*
X130500000Y-76509523D01*
X130452380Y-76319047D01*
X130452380Y-75985714D01*
X130500000Y-75795238D01*
X130595238Y-75700000D01*
X130690476Y-75652380D01*
X131547619Y-76652380D02*
X131547619Y-75652380D01*
X131928571Y-75652380D01*
X132023809Y-75700000D01*
X132071428Y-75747619D01*
X132119047Y-75842857D01*
X132119047Y-75985714D01*
X132071428Y-76080952D01*
X132023809Y-76128571D01*
X131928571Y-76176190D01*
X131547619Y-76176190D01*
X132880952Y-76128571D02*
X133023809Y-76176190D01*
X133071428Y-76223809D01*
X133119047Y-76319047D01*
X133119047Y-76461904D01*
X133071428Y-76557142D01*
X133023809Y-76604761D01*
X132928571Y-76652380D01*
X132547619Y-76652380D01*
X132547619Y-75652380D01*
X132880952Y-75652380D01*
X132976190Y-75700000D01*
X133023809Y-75747619D01*
X133071428Y-75842857D01*
X133071428Y-75938095D01*
X133023809Y-76033333D01*
X132976190Y-76080952D01*
X132880952Y-76128571D01*
X132547619Y-76128571D01*
X126253333Y-70583333D02*
X126253333Y-71376666D01*
X126300000Y-71470000D01*
X126346666Y-71516666D01*
X126440000Y-71563333D01*
X126626666Y-71563333D01*
X126720000Y-71516666D01*
X126766666Y-71470000D01*
X126813333Y-71376666D01*
X126813333Y-70583333D01*
X127793333Y-71563333D02*
X127233333Y-71563333D01*
X127513333Y-71563333D02*
X127513333Y-70583333D01*
X127420000Y-70723333D01*
X127326666Y-70816666D01*
X127233333Y-70863333D01*
%TO.C,L1*%
X111857142Y-60652380D02*
X111285714Y-60652380D01*
X111571428Y-60652380D02*
X111571428Y-59652380D01*
X111476190Y-59795238D01*
X111380952Y-59890476D01*
X111285714Y-59938095D01*
X112476190Y-59652380D02*
X112571428Y-59652380D01*
X112666666Y-59700000D01*
X112714285Y-59747619D01*
X112761904Y-59842857D01*
X112809523Y-60033333D01*
X112809523Y-60271428D01*
X112761904Y-60461904D01*
X112714285Y-60557142D01*
X112666666Y-60604761D01*
X112571428Y-60652380D01*
X112476190Y-60652380D01*
X112380952Y-60604761D01*
X112333333Y-60557142D01*
X112285714Y-60461904D01*
X112238095Y-60271428D01*
X112238095Y-60033333D01*
X112285714Y-59842857D01*
X112333333Y-59747619D01*
X112380952Y-59700000D01*
X112476190Y-59652380D01*
X113666666Y-59985714D02*
X113666666Y-60652380D01*
X113238095Y-59985714D02*
X113238095Y-60509523D01*
X113285714Y-60604761D01*
X113380952Y-60652380D01*
X113523809Y-60652380D01*
X113619047Y-60604761D01*
X113666666Y-60557142D01*
%TO.C,R2*%
X114112380Y-72262857D02*
X114112380Y-72072380D01*
X114064761Y-71977142D01*
X114017142Y-71929523D01*
X113874285Y-71834285D01*
X113683809Y-71786666D01*
X113302857Y-71786666D01*
X113207619Y-71834285D01*
X113160000Y-71881904D01*
X113112380Y-71977142D01*
X113112380Y-72167619D01*
X113160000Y-72262857D01*
X113207619Y-72310476D01*
X113302857Y-72358095D01*
X113540952Y-72358095D01*
X113636190Y-72310476D01*
X113683809Y-72262857D01*
X113731428Y-72167619D01*
X113731428Y-71977142D01*
X113683809Y-71881904D01*
X113636190Y-71834285D01*
X113540952Y-71786666D01*
X113112380Y-71167619D02*
X113112380Y-71072380D01*
X113160000Y-70977142D01*
X113207619Y-70929523D01*
X113302857Y-70881904D01*
X113493333Y-70834285D01*
X113731428Y-70834285D01*
X113921904Y-70881904D01*
X114017142Y-70929523D01*
X114064761Y-70977142D01*
X114112380Y-71072380D01*
X114112380Y-71167619D01*
X114064761Y-71262857D01*
X114017142Y-71310476D01*
X113921904Y-71358095D01*
X113731428Y-71405714D01*
X113493333Y-71405714D01*
X113302857Y-71358095D01*
X113207619Y-71310476D01*
X113160000Y-71262857D01*
X113112380Y-71167619D01*
X114112380Y-70358095D02*
X114112380Y-70167619D01*
X114064761Y-70072380D01*
X114017142Y-70024761D01*
X113874285Y-69929523D01*
X113683809Y-69881904D01*
X113302857Y-69881904D01*
X113207619Y-69929523D01*
X113160000Y-69977142D01*
X113112380Y-70072380D01*
X113112380Y-70262857D01*
X113160000Y-70358095D01*
X113207619Y-70405714D01*
X113302857Y-70453333D01*
X113540952Y-70453333D01*
X113636190Y-70405714D01*
X113683809Y-70358095D01*
X113731428Y-70262857D01*
X113731428Y-70072380D01*
X113683809Y-69977142D01*
X113636190Y-69929523D01*
X113540952Y-69881904D01*
X117292380Y-71286666D02*
X116816190Y-71620000D01*
X117292380Y-71858095D02*
X116292380Y-71858095D01*
X116292380Y-71477142D01*
X116340000Y-71381904D01*
X116387619Y-71334285D01*
X116482857Y-71286666D01*
X116625714Y-71286666D01*
X116720952Y-71334285D01*
X116768571Y-71381904D01*
X116816190Y-71477142D01*
X116816190Y-71858095D01*
X116387619Y-70905714D02*
X116340000Y-70858095D01*
X116292380Y-70762857D01*
X116292380Y-70524761D01*
X116340000Y-70429523D01*
X116387619Y-70381904D01*
X116482857Y-70334285D01*
X116578095Y-70334285D01*
X116720952Y-70381904D01*
X117292380Y-70953333D01*
X117292380Y-70334285D01*
%TO.C,R3*%
X123102857Y-85177380D02*
X122626666Y-85177380D01*
X122579047Y-85653571D01*
X122626666Y-85605952D01*
X122721904Y-85558333D01*
X122960000Y-85558333D01*
X123055238Y-85605952D01*
X123102857Y-85653571D01*
X123150476Y-85748809D01*
X123150476Y-85986904D01*
X123102857Y-86082142D01*
X123055238Y-86129761D01*
X122960000Y-86177380D01*
X122721904Y-86177380D01*
X122626666Y-86129761D01*
X122579047Y-86082142D01*
X124102857Y-86177380D02*
X123531428Y-86177380D01*
X123817142Y-86177380D02*
X123817142Y-85177380D01*
X123721904Y-85320238D01*
X123626666Y-85415476D01*
X123531428Y-85463095D01*
X124531428Y-86082142D02*
X124579047Y-86129761D01*
X124531428Y-86177380D01*
X124483809Y-86129761D01*
X124531428Y-86082142D01*
X124531428Y-86177380D01*
X125531428Y-86177380D02*
X124960000Y-86177380D01*
X125245714Y-86177380D02*
X125245714Y-85177380D01*
X125150476Y-85320238D01*
X125055238Y-85415476D01*
X124960000Y-85463095D01*
X125960000Y-86177380D02*
X125960000Y-85177380D01*
X126055238Y-85796428D02*
X126340952Y-86177380D01*
X126340952Y-85510714D02*
X125960000Y-85891666D01*
D11*
X124640952Y-81346666D02*
X124450476Y-81480000D01*
X124640952Y-81575238D02*
X124240952Y-81575238D01*
X124240952Y-81422857D01*
X124260000Y-81384761D01*
X124279047Y-81365714D01*
X124317142Y-81346666D01*
X124374285Y-81346666D01*
X124412380Y-81365714D01*
X124431428Y-81384761D01*
X124450476Y-81422857D01*
X124450476Y-81575238D01*
X124240952Y-81213333D02*
X124240952Y-80965714D01*
X124393333Y-81099047D01*
X124393333Y-81041904D01*
X124412380Y-81003809D01*
X124431428Y-80984761D01*
X124469523Y-80965714D01*
X124564761Y-80965714D01*
X124602857Y-80984761D01*
X124621904Y-81003809D01*
X124640952Y-81041904D01*
X124640952Y-81156190D01*
X124621904Y-81194285D01*
X124602857Y-81213333D01*
D10*
%TO.C,C6*%
X126833333Y-54427380D02*
X126261904Y-54427380D01*
X126547619Y-54427380D02*
X126547619Y-53427380D01*
X126452380Y-53570238D01*
X126357142Y-53665476D01*
X126261904Y-53713095D01*
X127690476Y-53760714D02*
X127690476Y-54427380D01*
X127261904Y-53760714D02*
X127261904Y-54284523D01*
X127309523Y-54379761D01*
X127404761Y-54427380D01*
X127547619Y-54427380D01*
X127642857Y-54379761D01*
X127690476Y-54332142D01*
X126833333Y-61317142D02*
X126785714Y-61364761D01*
X126642857Y-61412380D01*
X126547619Y-61412380D01*
X126404761Y-61364761D01*
X126309523Y-61269523D01*
X126261904Y-61174285D01*
X126214285Y-60983809D01*
X126214285Y-60840952D01*
X126261904Y-60650476D01*
X126309523Y-60555238D01*
X126404761Y-60460000D01*
X126547619Y-60412380D01*
X126642857Y-60412380D01*
X126785714Y-60460000D01*
X126833333Y-60507619D01*
X127690476Y-60412380D02*
X127500000Y-60412380D01*
X127404761Y-60460000D01*
X127357142Y-60507619D01*
X127261904Y-60650476D01*
X127214285Y-60840952D01*
X127214285Y-61221904D01*
X127261904Y-61317142D01*
X127309523Y-61364761D01*
X127404761Y-61412380D01*
X127595238Y-61412380D01*
X127690476Y-61364761D01*
X127738095Y-61317142D01*
X127785714Y-61221904D01*
X127785714Y-60983809D01*
X127738095Y-60888571D01*
X127690476Y-60840952D01*
X127595238Y-60793333D01*
X127404761Y-60793333D01*
X127309523Y-60840952D01*
X127261904Y-60888571D01*
X127214285Y-60983809D01*
%TO.C,R4*%
X132048333Y-79992380D02*
X131476904Y-79992380D01*
X131762619Y-79992380D02*
X131762619Y-78992380D01*
X131667380Y-79135238D01*
X131572142Y-79230476D01*
X131476904Y-79278095D01*
X132667380Y-78992380D02*
X132762619Y-78992380D01*
X132857857Y-79040000D01*
X132905476Y-79087619D01*
X132953095Y-79182857D01*
X133000714Y-79373333D01*
X133000714Y-79611428D01*
X132953095Y-79801904D01*
X132905476Y-79897142D01*
X132857857Y-79944761D01*
X132762619Y-79992380D01*
X132667380Y-79992380D01*
X132572142Y-79944761D01*
X132524523Y-79897142D01*
X132476904Y-79801904D01*
X132429285Y-79611428D01*
X132429285Y-79373333D01*
X132476904Y-79182857D01*
X132524523Y-79087619D01*
X132572142Y-79040000D01*
X132667380Y-78992380D01*
X133619761Y-78992380D02*
X133715000Y-78992380D01*
X133810238Y-79040000D01*
X133857857Y-79087619D01*
X133905476Y-79182857D01*
X133953095Y-79373333D01*
X133953095Y-79611428D01*
X133905476Y-79801904D01*
X133857857Y-79897142D01*
X133810238Y-79944761D01*
X133715000Y-79992380D01*
X133619761Y-79992380D01*
X133524523Y-79944761D01*
X133476904Y-79897142D01*
X133429285Y-79801904D01*
X133381666Y-79611428D01*
X133381666Y-79373333D01*
X133429285Y-79182857D01*
X133476904Y-79087619D01*
X133524523Y-79040000D01*
X133619761Y-78992380D01*
D11*
X129720952Y-78806666D02*
X129530476Y-78940000D01*
X129720952Y-79035238D02*
X129320952Y-79035238D01*
X129320952Y-78882857D01*
X129340000Y-78844761D01*
X129359047Y-78825714D01*
X129397142Y-78806666D01*
X129454285Y-78806666D01*
X129492380Y-78825714D01*
X129511428Y-78844761D01*
X129530476Y-78882857D01*
X129530476Y-79035238D01*
X129454285Y-78463809D02*
X129720952Y-78463809D01*
X129301904Y-78559047D02*
X129587619Y-78654285D01*
X129587619Y-78406666D01*
D10*
%TO.C,C3*%
X113276190Y-76715952D02*
X113180952Y-76668333D01*
X113133333Y-76620714D01*
X113085714Y-76525476D01*
X113085714Y-76477857D01*
X113133333Y-76382619D01*
X113180952Y-76335000D01*
X113276190Y-76287380D01*
X113466666Y-76287380D01*
X113561904Y-76335000D01*
X113609523Y-76382619D01*
X113657142Y-76477857D01*
X113657142Y-76525476D01*
X113609523Y-76620714D01*
X113561904Y-76668333D01*
X113466666Y-76715952D01*
X113276190Y-76715952D01*
X113180952Y-76763571D01*
X113133333Y-76811190D01*
X113085714Y-76906428D01*
X113085714Y-77096904D01*
X113133333Y-77192142D01*
X113180952Y-77239761D01*
X113276190Y-77287380D01*
X113466666Y-77287380D01*
X113561904Y-77239761D01*
X113609523Y-77192142D01*
X113657142Y-77096904D01*
X113657142Y-76906428D01*
X113609523Y-76811190D01*
X113561904Y-76763571D01*
X113466666Y-76715952D01*
X114038095Y-76382619D02*
X114085714Y-76335000D01*
X114180952Y-76287380D01*
X114419047Y-76287380D01*
X114514285Y-76335000D01*
X114561904Y-76382619D01*
X114609523Y-76477857D01*
X114609523Y-76573095D01*
X114561904Y-76715952D01*
X113990476Y-77287380D01*
X114609523Y-77287380D01*
X115038095Y-76620714D02*
X115038095Y-77287380D01*
X115038095Y-76715952D02*
X115085714Y-76668333D01*
X115180952Y-76620714D01*
X115323809Y-76620714D01*
X115419047Y-76668333D01*
X115466666Y-76763571D01*
X115466666Y-77287380D01*
D11*
X111902857Y-78806666D02*
X111921904Y-78825714D01*
X111940952Y-78882857D01*
X111940952Y-78920952D01*
X111921904Y-78978095D01*
X111883809Y-79016190D01*
X111845714Y-79035238D01*
X111769523Y-79054285D01*
X111712380Y-79054285D01*
X111636190Y-79035238D01*
X111598095Y-79016190D01*
X111560000Y-78978095D01*
X111540952Y-78920952D01*
X111540952Y-78882857D01*
X111560000Y-78825714D01*
X111579047Y-78806666D01*
X111540952Y-78673333D02*
X111540952Y-78425714D01*
X111693333Y-78559047D01*
X111693333Y-78501904D01*
X111712380Y-78463809D01*
X111731428Y-78444761D01*
X111769523Y-78425714D01*
X111864761Y-78425714D01*
X111902857Y-78444761D01*
X111921904Y-78463809D01*
X111940952Y-78501904D01*
X111940952Y-78616190D01*
X111921904Y-78654285D01*
X111902857Y-78673333D01*
D10*
%TO.C,C2*%
X108735952Y-71572380D02*
X108164523Y-71572380D01*
X108450238Y-71572380D02*
X108450238Y-70572380D01*
X108355000Y-70715238D01*
X108259761Y-70810476D01*
X108164523Y-70858095D01*
X109355000Y-70572380D02*
X109450238Y-70572380D01*
X109545476Y-70620000D01*
X109593095Y-70667619D01*
X109640714Y-70762857D01*
X109688333Y-70953333D01*
X109688333Y-71191428D01*
X109640714Y-71381904D01*
X109593095Y-71477142D01*
X109545476Y-71524761D01*
X109450238Y-71572380D01*
X109355000Y-71572380D01*
X109259761Y-71524761D01*
X109212142Y-71477142D01*
X109164523Y-71381904D01*
X109116904Y-71191428D01*
X109116904Y-70953333D01*
X109164523Y-70762857D01*
X109212142Y-70667619D01*
X109259761Y-70620000D01*
X109355000Y-70572380D01*
X110307380Y-70572380D02*
X110402619Y-70572380D01*
X110497857Y-70620000D01*
X110545476Y-70667619D01*
X110593095Y-70762857D01*
X110640714Y-70953333D01*
X110640714Y-71191428D01*
X110593095Y-71381904D01*
X110545476Y-71477142D01*
X110497857Y-71524761D01*
X110402619Y-71572380D01*
X110307380Y-71572380D01*
X110212142Y-71524761D01*
X110164523Y-71477142D01*
X110116904Y-71381904D01*
X110069285Y-71191428D01*
X110069285Y-70953333D01*
X110116904Y-70762857D01*
X110164523Y-70667619D01*
X110212142Y-70620000D01*
X110307380Y-70572380D01*
X111069285Y-70905714D02*
X111069285Y-71572380D01*
X111069285Y-71000952D02*
X111116904Y-70953333D01*
X111212142Y-70905714D01*
X111355000Y-70905714D01*
X111450238Y-70953333D01*
X111497857Y-71048571D01*
X111497857Y-71572380D01*
D11*
X111902857Y-73726666D02*
X111921904Y-73745714D01*
X111940952Y-73802857D01*
X111940952Y-73840952D01*
X111921904Y-73898095D01*
X111883809Y-73936190D01*
X111845714Y-73955238D01*
X111769523Y-73974285D01*
X111712380Y-73974285D01*
X111636190Y-73955238D01*
X111598095Y-73936190D01*
X111560000Y-73898095D01*
X111540952Y-73840952D01*
X111540952Y-73802857D01*
X111560000Y-73745714D01*
X111579047Y-73726666D01*
X111579047Y-73574285D02*
X111560000Y-73555238D01*
X111540952Y-73517142D01*
X111540952Y-73421904D01*
X111560000Y-73383809D01*
X111579047Y-73364761D01*
X111617142Y-73345714D01*
X111655238Y-73345714D01*
X111712380Y-73364761D01*
X111940952Y-73593333D01*
X111940952Y-73345714D01*
D10*
%TO.C,R1*%
X108458095Y-64952619D02*
X108505714Y-64905000D01*
X108600952Y-64857380D01*
X108839047Y-64857380D01*
X108934285Y-64905000D01*
X108981904Y-64952619D01*
X109029523Y-65047857D01*
X109029523Y-65143095D01*
X108981904Y-65285952D01*
X108410476Y-65857380D01*
X109029523Y-65857380D01*
X109648571Y-64857380D02*
X109743809Y-64857380D01*
X109839047Y-64905000D01*
X109886666Y-64952619D01*
X109934285Y-65047857D01*
X109981904Y-65238333D01*
X109981904Y-65476428D01*
X109934285Y-65666904D01*
X109886666Y-65762142D01*
X109839047Y-65809761D01*
X109743809Y-65857380D01*
X109648571Y-65857380D01*
X109553333Y-65809761D01*
X109505714Y-65762142D01*
X109458095Y-65666904D01*
X109410476Y-65476428D01*
X109410476Y-65238333D01*
X109458095Y-65047857D01*
X109505714Y-64952619D01*
X109553333Y-64905000D01*
X109648571Y-64857380D01*
D11*
X111940952Y-68646666D02*
X111750476Y-68780000D01*
X111940952Y-68875238D02*
X111540952Y-68875238D01*
X111540952Y-68722857D01*
X111560000Y-68684761D01*
X111579047Y-68665714D01*
X111617142Y-68646666D01*
X111674285Y-68646666D01*
X111712380Y-68665714D01*
X111731428Y-68684761D01*
X111750476Y-68722857D01*
X111750476Y-68875238D01*
X111940952Y-68265714D02*
X111940952Y-68494285D01*
X111940952Y-68380000D02*
X111540952Y-68380000D01*
X111598095Y-68418095D01*
X111636190Y-68456190D01*
X111655238Y-68494285D01*
D10*
%TO.C,R6*%
X143534047Y-66857619D02*
X143581666Y-66810000D01*
X143676904Y-66762380D01*
X143915000Y-66762380D01*
X144010238Y-66810000D01*
X144057857Y-66857619D01*
X144105476Y-66952857D01*
X144105476Y-67048095D01*
X144057857Y-67190952D01*
X143486428Y-67762380D01*
X144105476Y-67762380D01*
X144581666Y-67762380D02*
X144772142Y-67762380D01*
X144867380Y-67714761D01*
X144915000Y-67667142D01*
X145010238Y-67524285D01*
X145057857Y-67333809D01*
X145057857Y-66952857D01*
X145010238Y-66857619D01*
X144962619Y-66810000D01*
X144867380Y-66762380D01*
X144676904Y-66762380D01*
X144581666Y-66810000D01*
X144534047Y-66857619D01*
X144486428Y-66952857D01*
X144486428Y-67190952D01*
X144534047Y-67286190D01*
X144581666Y-67333809D01*
X144676904Y-67381428D01*
X144867380Y-67381428D01*
X144962619Y-67333809D01*
X145010238Y-67286190D01*
X145057857Y-67190952D01*
X145486428Y-67667142D02*
X145534047Y-67714761D01*
X145486428Y-67762380D01*
X145438809Y-67714761D01*
X145486428Y-67667142D01*
X145486428Y-67762380D01*
X146391190Y-67095714D02*
X146391190Y-67762380D01*
X146153095Y-66714761D02*
X145915000Y-67429047D01*
X146534047Y-67429047D01*
X146915000Y-67762380D02*
X146915000Y-66762380D01*
X147010238Y-67381428D02*
X147295952Y-67762380D01*
X147295952Y-67095714D02*
X146915000Y-67476666D01*
D11*
X144960952Y-71186666D02*
X144770476Y-71320000D01*
X144960952Y-71415238D02*
X144560952Y-71415238D01*
X144560952Y-71262857D01*
X144580000Y-71224761D01*
X144599047Y-71205714D01*
X144637142Y-71186666D01*
X144694285Y-71186666D01*
X144732380Y-71205714D01*
X144751428Y-71224761D01*
X144770476Y-71262857D01*
X144770476Y-71415238D01*
X144560952Y-70843809D02*
X144560952Y-70920000D01*
X144580000Y-70958095D01*
X144599047Y-70977142D01*
X144656190Y-71015238D01*
X144732380Y-71034285D01*
X144884761Y-71034285D01*
X144922857Y-71015238D01*
X144941904Y-70996190D01*
X144960952Y-70958095D01*
X144960952Y-70881904D01*
X144941904Y-70843809D01*
X144922857Y-70824761D01*
X144884761Y-70805714D01*
X144789523Y-70805714D01*
X144751428Y-70824761D01*
X144732380Y-70843809D01*
X144713333Y-70881904D01*
X144713333Y-70958095D01*
X144732380Y-70996190D01*
X144751428Y-71015238D01*
X144789523Y-71034285D01*
D10*
%TO.C,C1*%
X106037142Y-86812380D02*
X105465714Y-86812380D01*
X105751428Y-86812380D02*
X105751428Y-85812380D01*
X105656190Y-85955238D01*
X105560952Y-86050476D01*
X105465714Y-86098095D01*
X106656190Y-85812380D02*
X106751428Y-85812380D01*
X106846666Y-85860000D01*
X106894285Y-85907619D01*
X106941904Y-86002857D01*
X106989523Y-86193333D01*
X106989523Y-86431428D01*
X106941904Y-86621904D01*
X106894285Y-86717142D01*
X106846666Y-86764761D01*
X106751428Y-86812380D01*
X106656190Y-86812380D01*
X106560952Y-86764761D01*
X106513333Y-86717142D01*
X106465714Y-86621904D01*
X106418095Y-86431428D01*
X106418095Y-86193333D01*
X106465714Y-86002857D01*
X106513333Y-85907619D01*
X106560952Y-85860000D01*
X106656190Y-85812380D01*
X107846666Y-86145714D02*
X107846666Y-86812380D01*
X107418095Y-86145714D02*
X107418095Y-86669523D01*
X107465714Y-86764761D01*
X107560952Y-86812380D01*
X107703809Y-86812380D01*
X107799047Y-86764761D01*
X107846666Y-86717142D01*
D12*
X106894285Y-81380000D02*
X106922857Y-81408571D01*
X106951428Y-81494285D01*
X106951428Y-81551428D01*
X106922857Y-81637142D01*
X106865714Y-81694285D01*
X106808571Y-81722857D01*
X106694285Y-81751428D01*
X106608571Y-81751428D01*
X106494285Y-81722857D01*
X106437142Y-81694285D01*
X106380000Y-81637142D01*
X106351428Y-81551428D01*
X106351428Y-81494285D01*
X106380000Y-81408571D01*
X106408571Y-81380000D01*
X106951428Y-80808571D02*
X106951428Y-81151428D01*
X106951428Y-80980000D02*
X106351428Y-80980000D01*
X106437142Y-81037142D01*
X106494285Y-81094285D01*
X106522857Y-81151428D01*
D10*
%TO.C,R7*%
X144819761Y-81097380D02*
X144248333Y-81097380D01*
X144534047Y-81097380D02*
X144534047Y-80097380D01*
X144438809Y-80240238D01*
X144343571Y-80335476D01*
X144248333Y-80383095D01*
X145438809Y-80097380D02*
X145534047Y-80097380D01*
X145629285Y-80145000D01*
X145676904Y-80192619D01*
X145724523Y-80287857D01*
X145772142Y-80478333D01*
X145772142Y-80716428D01*
X145724523Y-80906904D01*
X145676904Y-81002142D01*
X145629285Y-81049761D01*
X145534047Y-81097380D01*
X145438809Y-81097380D01*
X145343571Y-81049761D01*
X145295952Y-81002142D01*
X145248333Y-80906904D01*
X145200714Y-80716428D01*
X145200714Y-80478333D01*
X145248333Y-80287857D01*
X145295952Y-80192619D01*
X145343571Y-80145000D01*
X145438809Y-80097380D01*
X146200714Y-81097380D02*
X146200714Y-80097380D01*
X146295952Y-80716428D02*
X146581666Y-81097380D01*
X146581666Y-80430714D02*
X146200714Y-80811666D01*
D13*
X145006190Y-76283333D02*
X144768095Y-76450000D01*
X145006190Y-76569047D02*
X144506190Y-76569047D01*
X144506190Y-76378571D01*
X144530000Y-76330952D01*
X144553809Y-76307142D01*
X144601428Y-76283333D01*
X144672857Y-76283333D01*
X144720476Y-76307142D01*
X144744285Y-76330952D01*
X144768095Y-76378571D01*
X144768095Y-76569047D01*
X144506190Y-76116666D02*
X144506190Y-75783333D01*
X145006190Y-75997619D01*
D10*
%TO.C,Q1*%
X132048809Y-67032142D02*
X132001190Y-67079761D01*
X131858333Y-67127380D01*
X131763095Y-67127380D01*
X131620238Y-67079761D01*
X131525000Y-66984523D01*
X131477380Y-66889285D01*
X131429761Y-66698809D01*
X131429761Y-66555952D01*
X131477380Y-66365476D01*
X131525000Y-66270238D01*
X131620238Y-66175000D01*
X131763095Y-66127380D01*
X131858333Y-66127380D01*
X132001190Y-66175000D01*
X132048809Y-66222619D01*
X132429761Y-67079761D02*
X132572619Y-67127380D01*
X132810714Y-67127380D01*
X132905952Y-67079761D01*
X132953571Y-67032142D01*
X133001190Y-66936904D01*
X133001190Y-66841666D01*
X132953571Y-66746428D01*
X132905952Y-66698809D01*
X132810714Y-66651190D01*
X132620238Y-66603571D01*
X132525000Y-66555952D01*
X132477380Y-66508333D01*
X132429761Y-66413095D01*
X132429761Y-66317857D01*
X132477380Y-66222619D01*
X132525000Y-66175000D01*
X132620238Y-66127380D01*
X132858333Y-66127380D01*
X133001190Y-66175000D01*
X133429761Y-67127380D02*
X133429761Y-66127380D01*
X133667857Y-66127380D01*
X133810714Y-66175000D01*
X133905952Y-66270238D01*
X133953571Y-66365476D01*
X134001190Y-66555952D01*
X134001190Y-66698809D01*
X133953571Y-66889285D01*
X133905952Y-66984523D01*
X133810714Y-67079761D01*
X133667857Y-67127380D01*
X133429761Y-67127380D01*
X134953571Y-67127380D02*
X134382142Y-67127380D01*
X134667857Y-67127380D02*
X134667857Y-66127380D01*
X134572619Y-66270238D01*
X134477380Y-66365476D01*
X134382142Y-66413095D01*
X135286904Y-66127380D02*
X135953571Y-66127380D01*
X135525000Y-67127380D01*
X136810714Y-66127380D02*
X136334523Y-66127380D01*
X136286904Y-66603571D01*
X136334523Y-66555952D01*
X136429761Y-66508333D01*
X136667857Y-66508333D01*
X136763095Y-66555952D01*
X136810714Y-66603571D01*
X136858333Y-66698809D01*
X136858333Y-66936904D01*
X136810714Y-67032142D01*
X136763095Y-67079761D01*
X136667857Y-67127380D01*
X136429761Y-67127380D01*
X136334523Y-67079761D01*
X136286904Y-67032142D01*
X137763095Y-66127380D02*
X137286904Y-66127380D01*
X137239285Y-66603571D01*
X137286904Y-66555952D01*
X137382142Y-66508333D01*
X137620238Y-66508333D01*
X137715476Y-66555952D01*
X137763095Y-66603571D01*
X137810714Y-66698809D01*
X137810714Y-66936904D01*
X137763095Y-67032142D01*
X137715476Y-67079761D01*
X137620238Y-67127380D01*
X137382142Y-67127380D01*
X137286904Y-67079761D01*
X137239285Y-67032142D01*
X138144047Y-66127380D02*
X138763095Y-66127380D01*
X138429761Y-66508333D01*
X138572619Y-66508333D01*
X138667857Y-66555952D01*
X138715476Y-66603571D01*
X138763095Y-66698809D01*
X138763095Y-66936904D01*
X138715476Y-67032142D01*
X138667857Y-67079761D01*
X138572619Y-67127380D01*
X138286904Y-67127380D01*
X138191666Y-67079761D01*
X138144047Y-67032142D01*
X139858333Y-67222619D02*
X139763095Y-67175000D01*
X139667857Y-67079761D01*
X139525000Y-66936904D01*
X139429761Y-66889285D01*
X139334523Y-66889285D01*
X139382142Y-67127380D02*
X139286904Y-67079761D01*
X139191666Y-66984523D01*
X139144047Y-66794047D01*
X139144047Y-66460714D01*
X139191666Y-66270238D01*
X139286904Y-66175000D01*
X139382142Y-66127380D01*
X139572619Y-66127380D01*
X139667857Y-66175000D01*
X139763095Y-66270238D01*
X139810714Y-66460714D01*
X139810714Y-66794047D01*
X139763095Y-66984523D01*
X139667857Y-67079761D01*
X139572619Y-67127380D01*
X139382142Y-67127380D01*
X140715476Y-66127380D02*
X140239285Y-66127380D01*
X140191666Y-66603571D01*
X140239285Y-66555952D01*
X140334523Y-66508333D01*
X140572619Y-66508333D01*
X140667857Y-66555952D01*
X140715476Y-66603571D01*
X140763095Y-66698809D01*
X140763095Y-66936904D01*
X140715476Y-67032142D01*
X140667857Y-67079761D01*
X140572619Y-67127380D01*
X140334523Y-67127380D01*
X140239285Y-67079761D01*
X140191666Y-67032142D01*
X141144047Y-66841666D02*
X141620238Y-66841666D01*
X141048809Y-67127380D02*
X141382142Y-66127380D01*
X141715476Y-67127380D01*
X137707619Y-71215238D02*
X137660000Y-71310476D01*
X137564761Y-71405714D01*
X137421904Y-71548571D01*
X137374285Y-71643809D01*
X137374285Y-71739047D01*
X137612380Y-71691428D02*
X137564761Y-71786666D01*
X137469523Y-71881904D01*
X137279047Y-71929523D01*
X136945714Y-71929523D01*
X136755238Y-71881904D01*
X136660000Y-71786666D01*
X136612380Y-71691428D01*
X136612380Y-71500952D01*
X136660000Y-71405714D01*
X136755238Y-71310476D01*
X136945714Y-71262857D01*
X137279047Y-71262857D01*
X137469523Y-71310476D01*
X137564761Y-71405714D01*
X137612380Y-71500952D01*
X137612380Y-71691428D01*
X137612380Y-70310476D02*
X137612380Y-70881904D01*
X137612380Y-70596190D02*
X136612380Y-70596190D01*
X136755238Y-70691428D01*
X136850476Y-70786666D01*
X136898095Y-70881904D01*
%TO.C,J1*%
X159853571Y-79462380D02*
X159853571Y-80271904D01*
X159901190Y-80367142D01*
X159948809Y-80414761D01*
X160044047Y-80462380D01*
X160234523Y-80462380D01*
X160329761Y-80414761D01*
X160377380Y-80367142D01*
X160425000Y-80271904D01*
X160425000Y-79462380D01*
X160853571Y-80414761D02*
X160996428Y-80462380D01*
X161234523Y-80462380D01*
X161329761Y-80414761D01*
X161377380Y-80367142D01*
X161425000Y-80271904D01*
X161425000Y-80176666D01*
X161377380Y-80081428D01*
X161329761Y-80033809D01*
X161234523Y-79986190D01*
X161044047Y-79938571D01*
X160948809Y-79890952D01*
X160901190Y-79843333D01*
X160853571Y-79748095D01*
X160853571Y-79652857D01*
X160901190Y-79557619D01*
X160948809Y-79510000D01*
X161044047Y-79462380D01*
X161282142Y-79462380D01*
X161425000Y-79510000D01*
X162186904Y-79938571D02*
X162329761Y-79986190D01*
X162377380Y-80033809D01*
X162425000Y-80129047D01*
X162425000Y-80271904D01*
X162377380Y-80367142D01*
X162329761Y-80414761D01*
X162234523Y-80462380D01*
X161853571Y-80462380D01*
X161853571Y-79462380D01*
X162186904Y-79462380D01*
X162282142Y-79510000D01*
X162329761Y-79557619D01*
X162377380Y-79652857D01*
X162377380Y-79748095D01*
X162329761Y-79843333D01*
X162282142Y-79890952D01*
X162186904Y-79938571D01*
X161853571Y-79938571D01*
X162615476Y-80557619D02*
X163377380Y-80557619D01*
X163567857Y-80176666D02*
X164044047Y-80176666D01*
X163472619Y-80462380D02*
X163805952Y-79462380D01*
X164139285Y-80462380D01*
X155272380Y-71453333D02*
X155986666Y-71453333D01*
X156129523Y-71500952D01*
X156224761Y-71596190D01*
X156272380Y-71739047D01*
X156272380Y-71834285D01*
X156272380Y-70453333D02*
X156272380Y-71024761D01*
X156272380Y-70739047D02*
X155272380Y-70739047D01*
X155415238Y-70834285D01*
X155510476Y-70929523D01*
X155558095Y-71024761D01*
%TO.C,C7*%
X144041904Y-57570714D02*
X144041904Y-58237380D01*
X143803809Y-57189761D02*
X143565714Y-57904047D01*
X144184761Y-57904047D01*
X144470476Y-57237380D02*
X145137142Y-57237380D01*
X144708571Y-58237380D01*
X145946666Y-57570714D02*
X145946666Y-58237380D01*
X145518095Y-57570714D02*
X145518095Y-58094523D01*
X145565714Y-58189761D01*
X145660952Y-58237380D01*
X145803809Y-58237380D01*
X145899047Y-58189761D01*
X145946666Y-58142142D01*
D12*
X144994285Y-63600000D02*
X145022857Y-63628571D01*
X145051428Y-63714285D01*
X145051428Y-63771428D01*
X145022857Y-63857142D01*
X144965714Y-63914285D01*
X144908571Y-63942857D01*
X144794285Y-63971428D01*
X144708571Y-63971428D01*
X144594285Y-63942857D01*
X144537142Y-63914285D01*
X144480000Y-63857142D01*
X144451428Y-63771428D01*
X144451428Y-63714285D01*
X144480000Y-63628571D01*
X144508571Y-63600000D01*
X144451428Y-63400000D02*
X144451428Y-63000000D01*
X145051428Y-63257142D01*
D10*
%TO.C,C5*%
X129373333Y-87447380D02*
X128801904Y-87447380D01*
X129087619Y-87447380D02*
X129087619Y-86447380D01*
X128992380Y-86590238D01*
X128897142Y-86685476D01*
X128801904Y-86733095D01*
X129801904Y-86780714D02*
X129801904Y-87447380D01*
X129801904Y-86875952D02*
X129849523Y-86828333D01*
X129944761Y-86780714D01*
X130087619Y-86780714D01*
X130182857Y-86828333D01*
X130230476Y-86923571D01*
X130230476Y-87447380D01*
D11*
X129682857Y-82974166D02*
X129701904Y-82993214D01*
X129720952Y-83050357D01*
X129720952Y-83088452D01*
X129701904Y-83145595D01*
X129663809Y-83183690D01*
X129625714Y-83202738D01*
X129549523Y-83221785D01*
X129492380Y-83221785D01*
X129416190Y-83202738D01*
X129378095Y-83183690D01*
X129340000Y-83145595D01*
X129320952Y-83088452D01*
X129320952Y-83050357D01*
X129340000Y-82993214D01*
X129359047Y-82974166D01*
X129320952Y-82612261D02*
X129320952Y-82802738D01*
X129511428Y-82821785D01*
X129492380Y-82802738D01*
X129473333Y-82764642D01*
X129473333Y-82669404D01*
X129492380Y-82631309D01*
X129511428Y-82612261D01*
X129549523Y-82593214D01*
X129644761Y-82593214D01*
X129682857Y-82612261D01*
X129701904Y-82631309D01*
X129720952Y-82669404D01*
X129720952Y-82764642D01*
X129701904Y-82802738D01*
X129682857Y-82821785D01*
D10*
%TO.C,C4*%
X115149523Y-86542619D02*
X115197142Y-86495000D01*
X115292380Y-86447380D01*
X115530476Y-86447380D01*
X115625714Y-86495000D01*
X115673333Y-86542619D01*
X115720952Y-86637857D01*
X115720952Y-86733095D01*
X115673333Y-86875952D01*
X115101904Y-87447380D01*
X115720952Y-87447380D01*
X116340000Y-86447380D02*
X116435238Y-86447380D01*
X116530476Y-86495000D01*
X116578095Y-86542619D01*
X116625714Y-86637857D01*
X116673333Y-86828333D01*
X116673333Y-87066428D01*
X116625714Y-87256904D01*
X116578095Y-87352142D01*
X116530476Y-87399761D01*
X116435238Y-87447380D01*
X116340000Y-87447380D01*
X116244761Y-87399761D01*
X116197142Y-87352142D01*
X116149523Y-87256904D01*
X116101904Y-87066428D01*
X116101904Y-86828333D01*
X116149523Y-86637857D01*
X116197142Y-86542619D01*
X116244761Y-86495000D01*
X116340000Y-86447380D01*
X117292380Y-86447380D02*
X117387619Y-86447380D01*
X117482857Y-86495000D01*
X117530476Y-86542619D01*
X117578095Y-86637857D01*
X117625714Y-86828333D01*
X117625714Y-87066428D01*
X117578095Y-87256904D01*
X117530476Y-87352142D01*
X117482857Y-87399761D01*
X117387619Y-87447380D01*
X117292380Y-87447380D01*
X117197142Y-87399761D01*
X117149523Y-87352142D01*
X117101904Y-87256904D01*
X117054285Y-87066428D01*
X117054285Y-86828333D01*
X117101904Y-86637857D01*
X117149523Y-86542619D01*
X117197142Y-86495000D01*
X117292380Y-86447380D01*
X118054285Y-86780714D02*
X118054285Y-87780714D01*
X118054285Y-86828333D02*
X118149523Y-86780714D01*
X118340000Y-86780714D01*
X118435238Y-86828333D01*
X118482857Y-86875952D01*
X118530476Y-86971190D01*
X118530476Y-87256904D01*
X118482857Y-87352142D01*
X118435238Y-87399761D01*
X118340000Y-87447380D01*
X118149523Y-87447380D01*
X118054285Y-87399761D01*
X117197142Y-81446666D02*
X117244761Y-81494285D01*
X117292380Y-81637142D01*
X117292380Y-81732380D01*
X117244761Y-81875238D01*
X117149523Y-81970476D01*
X117054285Y-82018095D01*
X116863809Y-82065714D01*
X116720952Y-82065714D01*
X116530476Y-82018095D01*
X116435238Y-81970476D01*
X116340000Y-81875238D01*
X116292380Y-81732380D01*
X116292380Y-81637142D01*
X116340000Y-81494285D01*
X116387619Y-81446666D01*
X116625714Y-80589523D02*
X117292380Y-80589523D01*
X116244761Y-80827619D02*
X116959047Y-81065714D01*
X116959047Y-80446666D01*
%TO.C,R5*%
X140176428Y-85907619D02*
X140224047Y-85860000D01*
X140319285Y-85812380D01*
X140557380Y-85812380D01*
X140652619Y-85860000D01*
X140700238Y-85907619D01*
X140747857Y-86002857D01*
X140747857Y-86098095D01*
X140700238Y-86240952D01*
X140128809Y-86812380D01*
X140747857Y-86812380D01*
X141652619Y-85812380D02*
X141176428Y-85812380D01*
X141128809Y-86288571D01*
X141176428Y-86240952D01*
X141271666Y-86193333D01*
X141509761Y-86193333D01*
X141605000Y-86240952D01*
X141652619Y-86288571D01*
X141700238Y-86383809D01*
X141700238Y-86621904D01*
X141652619Y-86717142D01*
X141605000Y-86764761D01*
X141509761Y-86812380D01*
X141271666Y-86812380D01*
X141176428Y-86764761D01*
X141128809Y-86717142D01*
X142128809Y-86812380D02*
X142128809Y-86145714D01*
X142128809Y-86240952D02*
X142176428Y-86193333D01*
X142271666Y-86145714D01*
X142414523Y-86145714D01*
X142509761Y-86193333D01*
X142557380Y-86288571D01*
X142557380Y-86812380D01*
X142557380Y-86288571D02*
X142605000Y-86193333D01*
X142700238Y-86145714D01*
X142843095Y-86145714D01*
X142938333Y-86193333D01*
X142985952Y-86288571D01*
X142985952Y-86812380D01*
X137612380Y-81446666D02*
X137136190Y-81780000D01*
X137612380Y-82018095D02*
X136612380Y-82018095D01*
X136612380Y-81637142D01*
X136660000Y-81541904D01*
X136707619Y-81494285D01*
X136802857Y-81446666D01*
X136945714Y-81446666D01*
X137040952Y-81494285D01*
X137088571Y-81541904D01*
X137136190Y-81637142D01*
X137136190Y-82018095D01*
X136612380Y-80541904D02*
X136612380Y-81018095D01*
X137088571Y-81065714D01*
X137040952Y-81018095D01*
X136993333Y-80922857D01*
X136993333Y-80684761D01*
X137040952Y-80589523D01*
X137088571Y-80541904D01*
X137183809Y-80494285D01*
X137421904Y-80494285D01*
X137517142Y-80541904D01*
X137564761Y-80589523D01*
X137612380Y-80684761D01*
X137612380Y-80922857D01*
X137564761Y-81018095D01*
X137517142Y-81065714D01*
D14*
%TO.C,D1*%
X137809440Y-61759080D02*
X137809440Y-60158880D01*
X139460000Y-58960000D02*
X139460000Y-62960000D01*
X134860000Y-58960000D02*
X139460000Y-58960000D01*
X136658820Y-60958980D02*
X135660600Y-60958980D01*
X137809440Y-60958980D02*
X136658820Y-60209680D01*
X136658820Y-60209680D02*
X136658820Y-61759080D01*
X134860000Y-62960000D02*
X139460000Y-62960000D01*
X134860000Y-62960000D02*
X134860000Y-58960000D01*
X137809440Y-60958980D02*
X136658820Y-61759080D01*
X137809440Y-60958980D02*
X138711140Y-60958980D01*
%TO.C,U1*%
X125050000Y-69645000D02*
X126025000Y-68670000D01*
X128950000Y-68670000D02*
X128950000Y-73570000D01*
X125050000Y-73570000D02*
X125050000Y-69645000D01*
X128950000Y-73570000D02*
X125050000Y-73570000D01*
X126025000Y-68670000D02*
X128950000Y-68670000D01*
%TO.C,R2*%
X114740000Y-67570000D02*
X118940000Y-67570000D01*
X114740000Y-74670000D02*
X114740000Y-67570000D01*
X118940000Y-67570000D02*
X118940000Y-74670000D01*
X118940000Y-74670000D02*
X114740000Y-74670000D01*
%TO.C,R3*%
X124872500Y-82080000D02*
X124047500Y-82080000D01*
X124872500Y-80480000D02*
X124872500Y-82080000D01*
X124047500Y-82080000D02*
X124047500Y-80480000D01*
X124047500Y-80480000D02*
X124872500Y-80480000D01*
%TO.C,C6*%
X129850000Y-58460000D02*
X129850000Y-63460000D01*
X124150000Y-63460000D02*
X124150000Y-58460000D01*
X124150000Y-58460000D02*
X129850000Y-58460000D01*
X129850000Y-63460000D02*
X124150000Y-63460000D01*
%TO.C,R4*%
X129952500Y-79540000D02*
X129127500Y-79540000D01*
X129127500Y-77940000D02*
X129952500Y-77940000D01*
X129127500Y-79540000D02*
X129127500Y-77940000D01*
X129952500Y-77940000D02*
X129952500Y-79540000D01*
%TO.C,C3*%
X111360000Y-77940000D02*
X112160000Y-77940000D01*
X112160000Y-77940000D02*
X112160000Y-79540000D01*
X111360000Y-79540000D02*
X111360000Y-77940000D01*
X112160000Y-79540000D02*
X111360000Y-79540000D01*
%TO.C,C2*%
X112160000Y-74460000D02*
X111360000Y-74460000D01*
X112160000Y-72860000D02*
X112160000Y-74460000D01*
X111360000Y-72860000D02*
X112160000Y-72860000D01*
X111360000Y-74460000D02*
X111360000Y-72860000D01*
%TO.C,R1*%
X111347500Y-67780000D02*
X112172500Y-67780000D01*
X111347500Y-69380000D02*
X111347500Y-67780000D01*
X112172500Y-69380000D02*
X111347500Y-69380000D01*
X112172500Y-67780000D02*
X112172500Y-69380000D01*
%TO.C,R6*%
X144367500Y-70320000D02*
X145192500Y-70320000D01*
X144367500Y-71920000D02*
X144367500Y-70320000D01*
X145192500Y-71920000D02*
X144367500Y-71920000D01*
X145192500Y-70320000D02*
X145192500Y-71920000D01*
%TO.C,C1*%
X107630000Y-80319531D02*
X107330000Y-80319531D01*
X108330000Y-82930000D02*
X105030000Y-82930000D01*
X107505000Y-79630000D02*
X108330000Y-80455000D01*
X107480000Y-80169531D02*
X107480000Y-80469531D01*
X105030000Y-80455000D02*
X105030000Y-82930000D01*
X108330000Y-80455000D02*
X108330000Y-82930000D01*
X107505000Y-79630000D02*
X105855000Y-79630000D01*
X105855000Y-79630000D02*
X105030000Y-80455000D01*
X108180000Y-81280000D02*
G75*
G03*
X108180000Y-81280000I-1500000J0D01*
G01*
%TO.C,R7*%
X145405000Y-77200000D02*
X144155000Y-77200000D01*
X145405000Y-75200000D02*
X145405000Y-77200000D01*
X144155000Y-75200000D02*
X145405000Y-75200000D01*
X144155000Y-77200000D02*
X144155000Y-75200000D01*
%TO.C,Q1*%
X134585000Y-68170000D02*
X139735000Y-68170000D01*
X134585000Y-73070000D02*
X134585000Y-68170000D01*
X139735000Y-68170000D02*
X139735000Y-74070000D01*
X134585000Y-73070000D02*
X135585000Y-74070000D01*
X139735000Y-74070000D02*
X135585000Y-74070000D01*
%TO.C,J1*%
X165110000Y-78320000D02*
X165110000Y-63920000D01*
X164810000Y-77670000D02*
X149850000Y-77670000D01*
X149850000Y-64570000D02*
X164810000Y-64570000D01*
X149850000Y-77670000D02*
X149850000Y-64570000D01*
X150850000Y-74620000D02*
X149850000Y-73620000D01*
X149850000Y-75620000D02*
X150850000Y-74620000D01*
X164810000Y-78320000D02*
X165110000Y-78320000D01*
X165110000Y-63920000D02*
X164810000Y-63920000D01*
X164810000Y-63920000D02*
X164810000Y-64570000D01*
X161390000Y-77670000D02*
X161390000Y-64570000D01*
X164810000Y-77670000D02*
X164810000Y-78320000D01*
%TO.C,C7*%
X145605000Y-61850000D02*
X146430000Y-62675000D01*
X145730000Y-62539531D02*
X145430000Y-62539531D01*
X146430000Y-65150000D02*
X143130000Y-65150000D01*
X143130000Y-62675000D02*
X143130000Y-65150000D01*
X143955000Y-61850000D02*
X143130000Y-62675000D01*
X145605000Y-61850000D02*
X143955000Y-61850000D01*
X145580000Y-62389531D02*
X145580000Y-62689531D01*
X146430000Y-62675000D02*
X146430000Y-65150000D01*
X146280000Y-63500000D02*
G75*
G03*
X146280000Y-63500000I-1500000J0D01*
G01*
%TO.C,C5*%
X129140000Y-83707500D02*
X129140000Y-82107500D01*
X129940000Y-82107500D02*
X129940000Y-83707500D01*
X129140000Y-82107500D02*
X129940000Y-82107500D01*
X129940000Y-83707500D02*
X129140000Y-83707500D01*
%TO.C,C4*%
X115240000Y-79030000D02*
X118440000Y-79030000D01*
X118440000Y-83530000D02*
X115240000Y-83530000D01*
X118440000Y-79030000D02*
X118440000Y-83530000D01*
X115240000Y-83530000D02*
X115240000Y-79030000D01*
%TO.C,R5*%
X135060000Y-77730000D02*
X139260000Y-77730000D01*
X135060000Y-84830000D02*
X135060000Y-77730000D01*
X139260000Y-84830000D02*
X135060000Y-84830000D01*
X139260000Y-77730000D02*
X139260000Y-84830000D01*
%TD*%
M02*
