M48
; DRILL file {KiCad (6.0.4)} date Tue Apr 26 23:45:52 2022
; FORMAT={-:-/ absolute / inch / decimal}
; #@! TF.CreationDate,2022-04-26T23:45:52-07:00
; #@! TF.GenerationSoftware,Kicad,Pcbnew,(6.0.4)
; #@! TF.FileFunction,Plated,1,2,PTH
FMAT,2
INCH
; #@! TA.AperFunction,Plated,PTH,ViaDrill
T1C0.0157
; #@! TA.AperFunction,Plated,PTH,ComponentDrill
T2C0.0374
; #@! TA.AperFunction,Plated,PTH,ComponentDrill
T3C0.0512
; #@! TA.AperFunction,Plated,PTH,ComponentDrill
T4C0.0906
%
G90
G05
T1
X3.975Y-2.5341
X3.975Y-2.9
X4.075Y-2.45
X4.1Y-3.025
X4.1Y-3.3
X4.25Y-2.7
X4.25Y-3.125
X4.325Y-2.95
X4.325Y-3.125
X4.325Y-3.25
X4.45Y-2.575
X4.45Y-2.725
X4.725Y-2.575
X4.725Y-2.625
X4.725Y-2.775
X4.725Y-3.125
X4.7715Y-2.825
X4.7715Y-3.025
X4.775Y-2.475
X4.775Y-2.575
X4.8Y-2.725
X4.8Y-3.075
X4.85Y-2.95
X4.85Y-3.175
X5.0Y-2.9215
X5.0Y-3.225
X5.175Y-2.775
X5.175Y-2.95
X5.225Y-2.25
X5.225Y-2.75
X5.275Y-2.825
X5.275Y-2.9715
X5.525Y-2.875
X5.525Y-3.1
X5.6Y-2.45
X5.6Y-2.75
X5.8Y-2.35
X5.8Y-2.55
X5.825Y-2.775
X5.825Y-2.925
T2
X5.989Y-2.6622
X5.989Y-2.7606
X5.989Y-2.8394
X5.989Y-2.9378
T3
X4.1Y-2.7
X4.1Y-2.9
T4
X6.0957Y-2.5413
X6.0957Y-3.0587
T0
M30
